<svg width="55" height="54" viewBox="0 0 55 54" fill="none" xmlns="http://www.w3.org/2000/svg">
<g clip-path="url(#clip0_176_212)">
<path fill-rule="evenodd" clip-rule="evenodd" d="M27.7945 6.09817C31.9267 6.09213 35.9679 7.31197 39.4067 9.60334C42.8455 11.8947 45.5273 15.1546 47.1128 18.9706C48.6984 22.7866 49.1163 26.9871 48.3139 31.0407C47.5114 35.0943 45.5246 38.8188 42.6048 41.7428C39.6849 44.6669 35.9634 46.6592 31.911 47.4676C27.8585 48.276 23.6574 47.8641 19.8391 46.2842C16.0208 44.7042 12.757 42.0272 10.4606 38.5918C8.16422 35.1563 6.93848 31.1169 6.93848 26.9847C6.93847 21.4505 9.13482 16.1426 13.0452 12.2264C16.9556 8.31034 22.2603 6.10625 27.7945 6.09817Z" fill="url(#paint0_linear_176_212)"/>
<path fill-rule="evenodd" clip-rule="evenodd" d="M6.93831 26.9847C6.93831 21.4506 9.13465 16.1426 13.045 12.2265C16.9554 8.31043 22.2602 6.10633 27.7943 6.09825V0C26.3884 0.847093 25.0527 1.80554 23.8 2.86616C23.1623 3.16826 22.499 3.41317 21.818 3.59797C21.1167 3.59797 21.0863 4.66516 20.4154 4.87859C19.7446 5.09203 17.9152 4.87858 17.0309 5.36644C14.6959 6.51787 12.564 8.04208 10.7192 9.87916C7.65614 12.9492 5.4669 16.7804 4.37705 20.978C4.1988 21.657 3.96422 22.3199 3.67575 22.9599C2.56243 24.1817 1.60012 25.5331 0.80957 26.9847H6.93831Z" fill="url(#paint1_linear_176_212)"/>
<path fill-rule="evenodd" clip-rule="evenodd" d="M23.8008 2.83569L27.7951 6.09825V0C26.3892 0.847093 25.0535 1.80554 23.8008 2.86616V2.83569Z" fill="url(#paint2_linear_176_212)"/>
<path fill-rule="evenodd" clip-rule="evenodd" d="M6.93831 26.9848L3.67575 22.96C2.56243 24.1818 1.60012 25.5331 0.80957 26.9848H6.93831Z" fill="url(#paint3_linear_176_212)"/>
<path fill-rule="evenodd" clip-rule="evenodd" d="M48.6814 26.9848C48.6814 21.4453 46.4809 16.1327 42.5639 12.2158C38.6469 8.29878 33.3344 6.09825 27.7949 6.09825V0C29.2105 0.832289 30.5475 1.79162 31.7893 2.86616C32.4354 3.17318 33.1093 3.41822 33.8017 3.59797C38.0051 4.65668 41.8416 6.8384 44.9005 9.90966C45.9051 10.9292 46.823 12.0307 47.6447 13.2027C48.3863 16.7272 49.8502 20.0599 51.944 22.9904C53.0573 24.2122 54.0196 25.5636 54.8102 27.0152L48.6814 26.9848Z" fill="url(#paint4_linear_176_212)"/>
<path fill-rule="evenodd" clip-rule="evenodd" d="M31.7893 2.83569L27.7949 6.09825V0C29.2105 0.832289 30.5475 1.79162 31.7893 2.86616V2.83569Z" fill="url(#paint5_linear_176_212)"/>
<path fill-rule="evenodd" clip-rule="evenodd" d="M48.6816 26.9848L51.9442 22.96C53.0575 24.1818 54.0198 25.5331 54.8104 26.9848H48.6816Z" fill="url(#paint6_linear_176_212)"/>
<path fill-rule="evenodd" clip-rule="evenodd" d="M6.93875 26.9848C6.93875 32.5162 9.13607 37.821 13.0473 41.7322C16.9586 45.6435 22.2634 47.8408 27.7948 47.8408V53.9391C26.3888 53.092 25.0531 52.1335 23.8004 51.0729C23.1567 50.7938 22.4945 50.5595 21.8185 50.3716C18.2932 49.474 15.0188 47.7847 12.2442 45.432C11.9698 45.2186 12.4272 44.1209 12.2442 43.9989C12.0613 43.877 10.9026 44.2734 10.6587 43.9989C8.16773 41.5301 6.25208 38.5421 5.04829 35.2479C5.37815 34.4756 5.41456 33.6093 5.15066 32.812C4.88676 32.0147 4.34073 31.3412 3.6152 30.9182C2.50342 29.7062 1.54114 28.3652 0.749023 26.9238L6.93875 26.9848Z" fill="url(#paint7_linear_176_212)"/>
<path fill-rule="evenodd" clip-rule="evenodd" d="M23.8008 51.1034L27.7951 47.8408V53.9391C26.3892 53.092 25.0535 52.1335 23.8008 51.0729V51.1034Z" fill="url(#paint8_linear_176_212)"/>
<path fill-rule="evenodd" clip-rule="evenodd" d="M6.93831 26.9845L3.67575 30.8874C2.56397 29.6754 1.60169 28.3344 0.80957 26.8931L6.93831 26.9845Z" fill="url(#paint9_linear_176_212)"/>
<path fill-rule="evenodd" clip-rule="evenodd" d="M48.6814 26.9846C48.6733 32.5188 46.4693 37.8235 42.5531 41.7339C38.637 45.6443 33.3291 47.8406 27.7949 47.8406V53.9389C29.2105 53.1066 30.5475 52.1472 31.7893 51.0727C32.4416 50.789 33.1143 50.5546 33.8017 50.3714C37.9993 49.2815 41.8305 47.0923 44.9005 44.0292C47.9718 40.9703 50.1535 37.1338 51.2122 32.9304C51.397 32.2494 51.6419 31.5861 51.944 30.9484C53.0558 29.7365 54.018 28.3954 54.8102 26.9541L48.6814 26.9846Z" fill="url(#paint10_linear_176_212)"/>
<path fill-rule="evenodd" clip-rule="evenodd" d="M31.7893 51.1034L27.7949 47.8408V53.9391C29.2105 53.1068 30.5475 52.1474 31.7893 51.0729V51.1034Z" fill="url(#paint11_linear_176_212)"/>
<path fill-rule="evenodd" clip-rule="evenodd" d="M48.6816 26.9845L51.9442 30.8874C53.056 29.6754 54.0183 28.3344 54.8104 26.8931L48.6816 26.9845Z" fill="url(#paint12_linear_176_212)"/>
<path fill-rule="evenodd" clip-rule="evenodd" d="M5.65809 25.3994L1.84668 26.985H6.93872C6.93871 21.4508 9.13506 16.1428 13.0454 12.2267C16.9558 8.31064 22.2606 6.10654 27.7947 6.09846V0.792969L26.3007 4.87881C21.1609 5.7463 16.4163 8.18525 12.7197 11.8601C9.02304 15.5349 6.55602 20.2649 5.65809 25.3994Z" fill="#89EFF4"/>
<path fill-rule="evenodd" clip-rule="evenodd" d="M42.0346 41.2243C38.748 44.5134 34.4656 46.6229 29.8549 47.2241C25.2442 47.8252 20.5641 46.8843 16.5439 44.5479C19.8966 46.7115 23.8051 47.8554 27.7952 47.8409C32.1694 47.8512 36.4361 46.4858 39.9917 43.9381C40.4162 43.8866 40.8348 43.7948 41.2419 43.6637C41.3943 43.4807 41.2419 43.1758 41.3943 42.8404C42.4398 42.002 43.3999 41.0624 44.2605 40.0352C44.4739 39.7913 46.7913 40.3401 46.9742 40.0352C47.1572 39.7303 45.1447 38.8155 45.2667 38.6326C47.5304 35.2588 48.7593 31.2974 48.8027 27.2348C48.846 23.1722 47.7018 19.1854 45.5106 15.7642C47.8432 19.7875 48.7791 24.4695 48.1724 29.0804C47.5657 33.6913 45.4505 37.9718 42.1566 41.2548L42.0346 41.2243Z" fill="#73BDC9"/>
<path fill-rule="evenodd" clip-rule="evenodd" d="M27.7948 7.86672C31.576 7.86672 35.2722 8.98798 38.4162 11.0887C41.5601 13.1894 44.0105 16.1752 45.4575 19.6686C46.9045 23.162 47.2831 27.0059 46.5455 30.7145C45.8078 34.423 43.987 37.8295 41.3133 40.5032C38.6396 43.1769 35.2331 44.9977 31.5245 45.7354C27.816 46.4731 23.972 46.0945 20.4786 44.6475C16.9853 43.2005 13.9995 40.7501 11.8988 37.6061C9.79804 34.4622 8.67678 30.7659 8.67678 26.9848C8.67277 24.473 9.16453 21.9852 10.1239 19.6638C11.0832 17.3425 12.4913 15.2334 14.2674 13.4573C16.0434 11.6812 18.1526 10.2732 20.4739 9.31382C22.7952 8.35447 25.2831 7.86271 27.7948 7.86672Z" fill="url(#paint13_radial_176_212)"/>
<path style="mix-blend-mode:screen" fill-rule="evenodd" clip-rule="evenodd" d="M25.66 10.3672C28.5487 10.3672 31.3725 11.2238 33.7743 12.8287C36.1761 14.4335 38.0481 16.7145 39.1536 19.3833C40.259 22.0521 40.5482 24.9887 39.9847 27.8219C39.4211 30.655 38.0301 33.2575 35.9875 35.3001C33.9449 37.3426 31.3425 38.7337 28.5094 39.2972C25.6762 39.8608 22.7396 39.5715 20.0708 38.4661C17.402 37.3606 15.121 35.4886 13.5162 33.0868C11.9113 30.685 11.0547 27.8612 11.0547 24.9725C11.0507 23.0534 11.4257 21.1524 12.1583 19.3786C12.8909 17.6048 13.9665 15.9931 15.3236 14.6361C16.6806 13.279 18.2923 12.2034 20.0661 11.4708C21.8399 10.7383 23.7409 10.3632 25.66 10.3672Z" fill="url(#paint14_radial_176_212)"/>
<path style="mix-blend-mode:screen" fill-rule="evenodd" clip-rule="evenodd" d="M16.8177 15.6418C21.117 11.3425 27.2457 10.5193 30.5083 13.8123C33.7708 17.1054 32.9781 23.2036 28.6788 27.5029C24.3795 31.8021 18.2813 32.5949 14.9882 29.3323C11.6952 26.0698 12.5489 19.9106 16.8177 15.6418Z" fill="url(#paint15_radial_176_212)"/>
<path style="mix-blend-mode:screen" opacity="0.5" fill-rule="evenodd" clip-rule="evenodd" d="M36.454 11.5259C40.2826 13.8902 43.0597 17.6316 44.2143 21.9807C45.3689 26.3298 44.8132 30.956 42.6615 34.9079C40.5098 38.8599 36.9257 41.8372 32.6461 43.2276C28.3665 44.6179 23.7169 44.3157 19.6533 42.383C21.0404 42.724 22.4632 42.898 23.8916 42.9014C27.5081 42.8566 31.0301 41.7409 34.0127 39.6952C36.9954 37.6496 39.3048 34.7658 40.6491 31.4082C41.9934 28.0506 42.3124 24.3699 41.5658 20.831C40.8191 17.2922 39.0402 14.0541 36.454 11.5259Z" fill="url(#paint16_radial_176_212)"/>
<path d="M31.649 18L21.749 27L31.649 36" stroke="white" stroke-width="3.6"/>
</g>
<defs>
<linearGradient id="paint0_linear_176_212" x1="27.7945" y1="47.8407" x2="27.7945" y2="6.09816" gradientUnits="userSpaceOnUse">
<stop stop-color="#8292AB"/>
<stop offset="1" stop-color="#5B597D"/>
</linearGradient>
<linearGradient id="paint1_linear_176_212" x1="0.80957" y1="13.4771" x2="27.7943" y2="13.4771" gradientUnits="userSpaceOnUse">
<stop stop-color="#515D7D"/>
<stop offset="1" stop-color="#99AAC9"/>
</linearGradient>
<linearGradient id="paint2_linear_176_212" x1="23.8008" y1="3.04912" x2="32.3993" y2="3.04912" gradientUnits="userSpaceOnUse">
<stop stop-color="#BCD1E8"/>
<stop offset="1" stop-color="#788896"/>
</linearGradient>
<linearGradient id="paint3_linear_176_212" x1="146.367" y1="516.889" x2="146.367" y2="511.576" gradientUnits="userSpaceOnUse">
<stop stop-color="#BCD1E8"/>
<stop offset="1" stop-color="#788896"/>
</linearGradient>
<linearGradient id="paint4_linear_176_212" x1="27.7949" y1="13.4771" x2="54.8102" y2="13.4771" gradientUnits="userSpaceOnUse">
<stop stop-color="#99AAC9"/>
<stop offset="1" stop-color="#515D7D"/>
</linearGradient>
<linearGradient id="paint5_linear_176_212" x1="27.7949" y1="3.04912" x2="31.7893" y2="3.04912" gradientUnits="userSpaceOnUse">
<stop stop-color="#5A5D75"/>
<stop offset="1" stop-color="#5B597D"/>
</linearGradient>
<linearGradient id="paint6_linear_176_212" x1="290.46" y1="516.889" x2="290.46" y2="511.576" gradientUnits="userSpaceOnUse">
<stop stop-color="#BCD1E8"/>
<stop offset="1" stop-color="#788896"/>
</linearGradient>
<linearGradient id="paint7_linear_176_212" x1="616.04" y1="3461.91" x2="855.394" y2="3461.91" gradientUnits="userSpaceOnUse">
<stop stop-color="#5A5D75"/>
<stop offset="1" stop-color="#5B597D"/>
</linearGradient>
<linearGradient id="paint8_linear_176_212" x1="23.8008" y1="50.9204" x2="27.7951" y2="50.9204" gradientUnits="userSpaceOnUse">
<stop stop-color="#5B597D"/>
<stop offset="1" stop-color="#707491"/>
</linearGradient>
<linearGradient id="paint9_linear_176_212" x1="0.80957" y1="28.9665" x2="6.93831" y2="28.9665" gradientUnits="userSpaceOnUse">
<stop stop-color="#46435E"/>
<stop offset="1" stop-color="#4A4D61"/>
</linearGradient>
<linearGradient id="paint10_linear_176_212" x1="881.477" y1="3458.06" x2="1120.83" y2="3458.06" gradientUnits="userSpaceOnUse">
<stop stop-color="#46435E"/>
<stop offset="1" stop-color="#4A4D61"/>
</linearGradient>
<linearGradient id="paint11_linear_176_212" x1="27.7949" y1="50.9204" x2="31.7893" y2="50.9204" gradientUnits="userSpaceOnUse">
<stop stop-color="#5D617A"/>
<stop offset="1" stop-color="#46435E"/>
</linearGradient>
<linearGradient id="paint12_linear_176_212" x1="284.331" y1="519.676" x2="296.65" y2="519.676" gradientUnits="userSpaceOnUse">
<stop stop-color="#46435E"/>
<stop offset="1" stop-color="#4A4D61"/>
</linearGradient>
<radialGradient id="paint13_radial_176_212" cx="0" cy="0" r="1" gradientUnits="userSpaceOnUse" gradientTransform="translate(21.6965 21.7402) scale(26.07)">
<stop stop-color="#0F9487"/>
<stop offset="0.24" stop-color="#0B6C6A"/>
<stop offset="0.46" stop-color="#084F55"/>
<stop offset="0.58" stop-color="#07444D"/>
<stop offset="0.71" stop-color="#074047"/>
<stop offset="0.88" stop-color="#083436"/>
<stop offset="1" stop-color="#082925"/>
</radialGradient>
<radialGradient id="paint14_radial_176_212" cx="0" cy="0" r="1" gradientUnits="userSpaceOnUse" gradientTransform="translate(15.7199 13.5078) scale(31.7414)">
<stop stop-color="#008F8C"/>
<stop offset="1"/>
</radialGradient>
<radialGradient id="paint15_radial_176_212" cx="0" cy="0" r="1" gradientUnits="userSpaceOnUse" gradientTransform="translate(509.964 2281.91) scale(200.826 200.92)">
<stop stop-color="#008F8C"/>
<stop offset="1"/>
</radialGradient>
<radialGradient id="paint16_radial_176_212" cx="0" cy="0" r="1" gradientUnits="userSpaceOnUse" gradientTransform="translate(823.198 3972.44) scale(248.231 321.393)">
<stop stop-color="#008F8C"/>
<stop offset="1"/>
</radialGradient>
<clipPath id="clip0_176_212">
<rect width="54" height="54" fill="white" transform="translate(0.749023)"/>
</clipPath>
</defs>
</svg>
