<svg width="22" height="21" viewBox="0 0 22 21" fill="none" xmlns="http://www.w3.org/2000/svg">
<path d="M11.5967 11.0841C11.8005 11.0839 11.996 11.0027 12.14 10.8583L19.3792 3.61912V7.36191C19.3792 7.63674 19.5258 7.89062 19.7638 8.02795C20.0017 8.16528 20.2949 8.16528 20.5328 8.02795C20.7707 7.89062 20.9173 7.63673 20.9173 7.36191V1.76319C20.9173 1.55926 20.8363 1.36356 20.6921 1.21936C20.5479 1.07517 20.3522 0.994141 20.1483 0.994141H14.5496C14.2747 0.994141 14.0209 1.14074 13.8835 1.37867C13.7462 1.6166 13.7462 1.9098 13.8835 2.14772C14.0209 2.38564 14.2748 2.53225 14.5496 2.53225H18.2924L11.0017 9.77146C10.8577 9.91566 10.7769 10.1112 10.7769 10.3149C10.7769 10.5189 10.8577 10.7142 11.0019 10.8584C11.1459 11.0026 11.3413 11.0838 11.5452 11.084L11.5967 11.0841Z" fill="#53A451"/>
<path d="M20.2302 11.8227C20.0262 11.8227 19.8305 11.9037 19.6863 12.0481C19.5421 12.1923 19.4611 12.3878 19.4611 12.5917V18.9494C19.4611 19.0826 19.4082 19.2105 19.314 19.3047C19.2198 19.399 19.0919 19.4518 18.9587 19.4518H3.04452C2.76694 19.4518 2.54204 19.2269 2.54204 18.9494V3.03521C2.54204 2.75763 2.76692 2.53274 3.04452 2.53274H9.06335C9.33819 2.53274 9.59207 2.38614 9.7294 2.14821C9.86673 1.91028 9.86673 1.61708 9.7294 1.37916C9.59207 1.14123 9.33818 0.994629 9.06335 0.994629H3.04452C2.50051 0.994629 1.97901 1.21075 1.59431 1.59528C1.20978 1.97998 0.993652 2.50149 0.993652 3.0455V18.9495C0.993652 19.4935 1.20978 20.015 1.59431 20.3997C1.979 20.7843 2.50051 21.0004 3.04452 21.0004H18.9587C19.5027 21.0004 20.0242 20.7843 20.4089 20.3997C20.7934 20.015 21.0095 19.4935 21.0095 18.9495V12.5919C21.0095 12.3862 20.9271 12.189 20.7807 12.0444C20.6341 11.8999 20.4358 11.8201 20.2302 11.8228L20.2302 11.8227Z" fill="#53A451"/>
</svg>
