<svg width="23" height="23" viewBox="0 0 23 23" fill="none" xmlns="http://www.w3.org/2000/svg">
<path fill-rule="evenodd" clip-rule="evenodd" d="M2.42372 19.6382C2.7678 19.9821 3.23421 20.1754 3.72066 20.1754H13.8875C14.374 20.1754 14.8404 19.9821 15.1844 19.6382L15.2366 19.5861C15.5805 19.242 15.7737 18.7756 15.7737 18.2891V8.1223C15.7737 7.63585 15.5805 7.16944 15.2366 6.82536L15.1844 6.77324C14.8404 6.42935 14.374 6.23608 13.8875 6.23608H3.72066C3.23421 6.23608 2.7678 6.42934 2.42372 6.77324L2.3716 6.82536C2.02771 7.16943 1.83444 7.63585 1.83444 8.1223V18.2891C1.83444 18.7756 2.0277 19.242 2.3716 19.5861L2.42372 19.6382ZM16.533 5.52896L16.4808 5.47667C15.7931 4.78888 14.86 4.40234 13.8872 4.40234H3.72031C2.74736 4.40234 1.81441 4.78887 1.12662 5.47667L1.07432 5.52896C0.386535 6.21675 0 7.14994 0 8.12265V18.2895C0 19.2623 0.386522 20.1954 1.07432 20.8834L1.12662 20.9353C1.81441 21.6233 2.74741 22.0098 3.72031 22.0098H13.8872C14.8601 22.0098 15.7931 21.6233 16.4808 20.9353L16.533 20.8834C17.2209 20.1954 17.6075 19.2623 17.6075 18.2895V8.12265C17.6075 7.14989 17.2209 6.21675 16.533 5.52896Z" fill="#DEDEDE"/>
<path fill-rule="evenodd" clip-rule="evenodd" d="M17.6075 15.7734H18.289C18.7755 15.7734 19.2419 15.5801 19.5859 15.2362L19.6381 15.1841C19.982 14.84 20.1752 14.3736 20.1752 13.8872V3.72031C20.1752 3.23386 19.982 2.76745 19.6381 2.42337L19.5859 2.37125C19.2419 2.02736 18.7755 1.83409 18.289 1.83409H8.12216C7.63572 1.83409 7.16931 2.02735 6.82523 2.37125L6.77311 2.42337C6.42922 2.76744 6.23595 3.23386 6.23595 3.72031V4.40181H4.40186V3.72031C4.40186 2.74736 4.78838 1.81441 5.47618 1.12662L5.52848 1.07432C6.21626 0.386535 7.14927 0 8.12216 0H18.289C19.2618 0 20.1949 0.386522 20.8829 1.07432L20.9348 1.12662C21.6228 1.81441 22.0093 2.74741 22.0093 3.72031V13.8872C22.0093 14.8601 21.6228 15.7931 20.9348 16.4808L20.8829 16.533C20.1949 17.2209 19.2618 17.6075 18.289 17.6075H17.6075L17.6075 15.7734Z" fill="#DEDEDE"/>
</svg>
