<svg width="19" height="18" viewBox="0 0 19 18" fill="none" xmlns="http://www.w3.org/2000/svg">
<circle cx="9.74902" cy="9" r="9" fill="#087BED"/>
<path d="M8.33438 14.125V6.57727H10.4277V14.125H8.33438ZM9.38596 5.60432C9.07474 5.60432 8.80775 5.50113 8.58499 5.29475C8.36551 5.08509 8.25576 4.83448 8.25576 4.54292C8.25576 4.25464 8.36551 4.00731 8.58499 3.80093C8.80775 3.59127 9.07474 3.48644 9.38596 3.48644C9.69717 3.48644 9.96252 3.59127 10.182 3.80093C10.4048 4.00731 10.5161 4.25464 10.5161 4.54292C10.5161 4.83448 10.4048 5.08509 10.182 5.29475C9.96252 5.50113 9.69717 5.60432 9.38596 5.60432Z" fill="white"/>
</svg>
