<svg width="176" height="196" viewBox="0 0 176 196" fill="none" xmlns="http://www.w3.org/2000/svg">
<g clip-path="url(#clip0_176_492)">
<path d="M98.6925 147.847C98.6925 147.847 52.5757 145.353 49.836 144.655C47.0962 143.956 38.0588 136.922 38.0588 136.922L18.4096 121.645L8.12012 107.103L32.1579 101.392L54.4725 107.016L66.3859 104.522L105.399 124.563L98.6925 147.847Z" fill="#186181"/>
<path d="M32.2571 115.073C33.658 114.786 45.3855 111.057 45.3855 111.057C45.3855 111.057 41.778 103.836 39.7077 103.312L32.1208 101.392L8.08301 107.103C8.08301 107.103 22.6991 114.15 24.0875 114.935C25.476 115.721 30.8935 115.347 32.2571 115.073Z" fill="url(#paint0_linear_176_492)"/>
<path d="M102.225 136.973L70.9103 124.501L48.9056 121.483L35.9756 124.115L49.8354 144.668C52.5751 145.316 97.6258 147.86 97.6258 147.86L102.225 136.973Z" fill="#00618E"/>
<path d="M26.2939 115.373C26.2939 115.373 34.9718 122.856 35.914 124.103C36.8562 125.35 101.68 138.969 101.68 138.969C101.68 138.969 69.4478 110.871 64.9106 111.619C60.3733 112.367 45.3853 111.058 45.3853 111.058L26.2939 115.373Z" fill="#00618E"/>
<path d="M49.836 144.643L35.9142 124.115L26.2941 115.373L8.12012 107.104L18.4096 121.646L49.836 144.643Z" fill="url(#paint1_linear_176_492)"/>
<path d="M58.9973 113.963C58.9973 113.963 40.501 104.722 38.2323 101.242C35.9637 97.7625 30.3231 84.7299 30.3231 84.7299L26.7031 55.3599C26.7031 55.3599 62.8156 71.0863 64.1916 72.2212C65.5677 73.3561 79.068 99.5709 79.068 99.5709L58.9973 113.963Z" fill="url(#paint2_linear_176_492)"/>
<path d="M37.6373 100.269H37.7365L42.3357 72.3334L26.7031 55.3599L30.3231 84.7299C30.3231 84.7299 35.1083 95.817 37.6373 100.269Z" fill="url(#paint3_linear_176_492)"/>
<path d="M58.7741 73.3067L62.9643 71.5482C56.4063 68.2932 26.7031 55.3354 26.7031 55.3354L42.3357 72.3339L58.7741 73.3067Z" fill="url(#paint4_linear_176_492)"/>
<path d="M59.0469 69.7019C48.7574 64.9628 26.7031 55.3599 26.7031 55.3599L52.7368 68.4423L59.0469 69.7019Z" fill="url(#paint5_linear_176_492)"/>
<path d="M26.7158 55.3599L29.6415 69.3403L29.5919 77.9954L26.7158 55.3599Z" fill="url(#paint6_linear_176_492)"/>
<path d="M73.3784 136.599C73.3784 136.599 64.0187 61.2716 62.1467 50.9203C60.2748 40.5691 82.7381 1.95776 86.482 0.0745878C90.2259 -1.80859 121.107 32.0886 124.851 36.8028C128.595 41.5169 114.561 144.131 111.747 141.313C108.933 138.494 103.85 150.729 93.759 151.664C83.6679 152.599 73.3784 136.599 73.3784 136.599Z" fill="#1281C8"/>
<path d="M124.851 36.8031L118.206 29.2579L96.8953 22.249L86.5066 36.8405L79.1676 58.4908L72.622 87.6738L70.4277 112.903C72.1261 126.372 73.403 136.599 73.403 136.599C73.403 136.599 83.6925 152.612 93.7837 151.664C103.875 150.717 108.97 138.482 111.772 141.313C111.772 141.313 117.549 81.9869 117.549 75.851C117.549 69.715 121.268 46.2065 124.851 36.8031Z" fill="url(#paint7_linear_176_492)"/>
<path d="M79.1419 58.4525L65.4309 36.8022C63.0382 42.7885 61.6126 48.0265 62.1456 50.9198C64.0176 61.2711 73.3773 136.598 73.3773 136.598C75.9394 140.437 78.9902 143.921 82.4519 146.962H86.4561C86.4561 146.962 93.1877 83.8692 93.7579 80.1028C94.3282 76.3365 79.1419 58.4525 79.1419 58.4525Z" fill="url(#paint8_linear_176_492)"/>
<path d="M99.7339 28.3226L105.672 20.316L103.862 14.1427C95.8412 6.07372 88.2171 -0.822948 86.5063 0.07499C82.7872 1.95817 60.2991 40.557 62.171 50.9208L79.1673 58.4036L99.7339 28.3226Z" fill="url(#paint9_linear_176_492)"/>
<path d="M124.85 36.8027C121.131 32.0885 90.2253 -1.85851 86.4814 0.0745476L99.7338 28.3222L124.85 36.8027Z" fill="url(#paint10_linear_176_492)"/>
<path d="M84.6586 1.89552C86.1214 5.824 94.8489 29.4822 93.7579 29.2203C92.667 28.9584 81.956 50.6087 81.956 50.6087L75.7575 53.4272C75.7575 53.4272 65.0713 49.2992 63.8936 47.1915C62.7159 45.0839 67.216 32.6998 67.216 32.6998C65.5151 36.3947 64.0937 40.2135 62.9638 44.1236C62.4357 46.3583 62.1736 48.6483 62.1829 50.9454L79.1791 58.4282L99.7705 28.2974L86.4809 0.074707C85.7731 0.570749 85.1565 1.18687 84.6586 1.89552V1.89552Z" fill="url(#paint11_linear_176_492)"/>
<path d="M64.1674 50.6206L62.0103 49.2363C61.9806 49.799 62.0096 50.3634 62.0971 50.92C63.9691 61.2712 73.3288 136.598 73.3288 136.598C73.3288 136.598 65.5311 61.77 63.6343 51.6059L64.1674 50.6206Z" fill="url(#paint12_linear_176_492)"/>
<path d="M76.9727 57.4927C76.9727 57.4927 91.192 77.2099 92.4069 79.1679C93.6218 81.1259 86.4563 146.962 86.4563 146.962C86.4563 146.962 94.5887 80.864 94.44 79.0058C94.2912 77.1476 79.8115 57.4927 79.8115 57.4927L79.1421 58.453L76.9727 57.4927Z" fill="url(#paint13_linear_176_492)"/>
<path d="M98.6924 26.0771L124.85 36.8025C124.85 36.8025 116.817 70.8119 116.581 89.1074C114.251 78.2199 122.519 38.8354 122.78 37.7379C121.057 36.8025 99.0519 29.2698 99.0519 29.2698L99.6842 28.322L98.6924 26.0771Z" fill="url(#paint14_linear_176_492)"/>
<path style="mix-blend-mode:color-dodge" d="M115.582 43.3372C117.666 30.4962 109.007 18.3874 96.2426 16.2915C83.4782 14.1956 71.4417 22.9063 69.3583 35.7473C67.2749 48.5884 75.9336 60.6971 88.698 62.793C101.462 64.8889 113.499 56.1783 115.582 43.3372Z" fill="url(#paint15_radial_176_492)"/>
<path style="mix-blend-mode:color-dodge" d="M111.124 88.2568C114.071 75.5881 106.251 62.9149 93.6577 59.9504C81.0645 56.986 68.4669 64.8529 65.5201 77.5217C62.5734 90.1904 70.3934 102.864 82.9866 105.828C95.5797 108.792 108.177 100.926 111.124 88.2568Z" fill="url(#paint16_radial_176_492)"/>
<path d="M120.858 147.723C120.858 147.723 132.598 128.542 135.536 126.073C138.665 123.054 141.609 119.848 144.351 116.47L146.545 135.613L133.007 147.723H120.858Z" fill="url(#paint17_linear_176_492)"/>
<path d="M42.9802 100.407C42.9802 100.407 37.0545 116.295 37.5999 119.538C38.1454 122.781 40.2529 137.335 40.2653 138.445C40.2777 139.555 59.1087 151.303 59.1087 151.303H81.163C81.163 151.303 89.7664 124.414 88.1548 119.538C86.5432 114.662 65.5675 100.407 65.5675 100.407L43.5133 93.5352L42.9802 100.407Z" fill="url(#paint18_linear_176_492)"/>
<path d="M75.3862 107.478L81.9814 119.687L81.1632 151.29H59.109L41.1953 136.387L53.5303 107.491L75.3862 107.478Z" fill="url(#paint19_linear_176_492)"/>
<path d="M43.5133 93.5352L42.9802 100.369C42.9802 100.369 37.0545 116.258 37.5999 119.501C38.1454 122.743 40.2529 137.297 40.2653 138.407L53.5301 107.453L43.5133 93.5352Z" fill="url(#paint20_linear_176_492)"/>
<path d="M43.1787 97.9003L43.5134 93.5728L43.1787 97.9003Z" fill="url(#paint21_linear_176_492)"/>
<path d="M75.3864 107.478C70.2664 103.6 65.5679 100.407 65.5679 100.407L43.5137 93.5352L53.5305 107.453H75.3864V107.478Z" fill="url(#paint22_linear_176_492)"/>
<path d="M42.9797 100.407C42.9797 100.407 37.0663 116.296 37.5994 119.538C38.1325 122.781 40.2524 137.335 40.2648 138.445C40.2648 138.507 40.3392 138.594 40.4259 138.707L53.5296 107.528L44.207 93.8097L43.5128 93.5977L42.9797 100.407Z" fill="url(#paint23_linear_176_492)"/>
<path d="M45.5468 94.1963L43.5136 93.5728L43.3525 95.6056L43.5136 95.7303C43.5136 95.7303 52.1915 106.531 52.1915 107.341C52.1915 108.152 40.2656 138.432 40.2656 138.432L54.1999 107.478L45.5468 94.1963Z" fill="url(#paint24_linear_176_492)"/>
<path d="M52.7861 105.32L71.7163 107.49H54.1994L52.7861 105.32Z" fill="url(#paint25_linear_176_492)"/>
<path d="M88.1549 119.537C87.3491 117.118 81.7456 112.366 76.3281 108.201C76.3281 108.201 86.2457 118.527 86.878 120.285C87.5102 122.044 81.1878 150.329 81.1878 150.329L81.5101 150.179C83.0845 145.079 89.5805 123.815 88.1549 119.537Z" fill="url(#paint26_linear_176_492)"/>
<path d="M141.796 119.475L140.792 127.856L146.532 135.638L144.338 116.495C144.338 116.495 143.259 117.792 141.796 119.475Z" fill="url(#paint27_linear_176_492)"/>
<path d="M140.792 127.856L144.35 116.47C141.608 119.848 138.665 123.054 135.536 126.073C134.798 126.802 134.129 127.599 133.54 128.455L140.792 127.856Z" fill="url(#paint28_linear_176_492)"/>
<path d="M114.66 147.162C113.869 147.087 113.101 146.852 112.402 146.471C111.703 146.091 111.088 145.573 110.593 144.947C110.098 144.322 109.733 143.603 109.52 142.833C109.307 142.063 109.251 141.257 109.354 140.465C110.656 130.488 114.313 111.519 116.916 107.341C120.338 101.829 142.95 83.583 142.95 83.583C142.95 83.583 144.326 111.132 142.95 113.028C141.884 114.5 131.173 135.165 126.561 144.094C125.94 145.29 124.978 146.272 123.799 146.914C122.619 147.556 121.276 147.829 119.941 147.698L114.66 147.162Z" fill="url(#paint29_linear_176_492)"/>
<path d="M133.342 101.192L126.475 97.6631C122.086 101.592 118.218 105.358 116.966 107.391C114.363 111.569 110.706 130.475 109.404 140.515C109.3 141.307 109.357 142.113 109.57 142.883C109.782 143.653 110.147 144.372 110.643 144.997C111.138 145.622 111.753 146.141 112.452 146.521C113.151 146.902 113.919 147.137 114.71 147.212L135.152 104.398L133.342 101.192Z" fill="url(#paint30_linear_176_492)"/>
<path d="M142.925 83.6328L142.032 84.3686L134.482 100.918L135.164 104.398L142.925 113.128C144.301 111.182 142.925 83.6328 142.925 83.6328Z" fill="url(#paint31_linear_176_492)"/>
<path d="M142.924 83.6328C142.924 83.6328 120.337 101.878 116.891 107.391L135.139 104.398L142.924 83.6328Z" fill="url(#paint32_linear_176_492)"/>
<path d="M118.094 108.501C120.437 104.884 142.888 83.6829 142.888 83.6704C142.888 83.6579 120.3 101.916 116.854 107.428C114.251 111.606 110.594 130.513 109.292 140.552C109.354 140.49 115.763 112.068 118.094 108.501Z" fill="url(#paint33_linear_176_492)"/>
<path d="M133.701 147.66C136.12 146.455 138.603 145.385 141.139 144.455C141.61 144.455 147.338 146.65 146.569 147.423C145.801 148.197 133.701 147.66 133.701 147.66Z" fill="url(#paint34_linear_176_492)"/>
<path style="mix-blend-mode:color-dodge" d="M56.7653 135.002C68.3156 135.002 77.679 125.583 77.679 113.963C77.679 102.343 68.3156 92.9238 56.7653 92.9238C45.215 92.9238 35.8516 102.343 35.8516 113.963C35.8516 125.583 45.215 135.002 56.7653 135.002Z" fill="url(#paint35_radial_176_492)"/>
<path style="mix-blend-mode:color-dodge" d="M118.093 138.445C129.644 138.445 139.007 129.025 139.007 117.405C139.007 105.786 129.644 96.3662 118.093 96.3662C106.543 96.3662 97.1797 105.786 97.1797 117.405C97.1797 129.025 106.543 138.445 118.093 138.445Z" fill="url(#paint36_radial_176_492)"/>
<path style="mix-blend-mode:color-dodge" d="M88.0062 158.66C136.611 158.66 176.012 154.93 176.012 150.329C176.012 145.728 136.611 141.999 88.0062 141.999C39.4017 141.999 0 145.728 0 150.329C0 154.93 39.4017 158.66 88.0062 158.66Z" fill="url(#paint37_radial_176_492)"/>
<path style="mix-blend-mode:color-dodge" d="M158.436 136.622C164.794 97.9422 138.779 61.4007 100.33 55.0043C61.8811 48.6078 25.5575 74.7786 19.1992 113.458C12.8409 152.138 38.8556 188.679 77.3047 195.076C115.754 201.472 152.077 175.302 158.436 136.622Z" fill="url(#paint38_radial_176_492)"/>
</g>
<defs>
<linearGradient id="paint0_linear_176_492" x1="8.1202" y1="108.401" x2="45.4227" y2="108.401" gradientUnits="userSpaceOnUse">
<stop offset="0.01" stop-color="#55E7EC"/>
<stop offset="0.29" stop-color="#51E3EB"/>
<stop offset="0.6" stop-color="#47D6E8"/>
<stop offset="0.92" stop-color="#35C1E3"/>
<stop offset="1" stop-color="#2FBAE1"/>
</linearGradient>
<linearGradient id="paint1_linear_176_492" x1="8.12012" y1="125.873" x2="49.836" y2="125.873" gradientUnits="userSpaceOnUse">
<stop offset="0.01" stop-color="#9FFAF3"/>
<stop offset="0.17" stop-color="#76D8F1"/>
<stop offset="0.34" stop-color="#4FB6EF"/>
<stop offset="0.52" stop-color="#309CEE"/>
<stop offset="0.69" stop-color="#1A89ED"/>
<stop offset="0.85" stop-color="#0D7EEC"/>
<stop offset="1" stop-color="#087AEC"/>
</linearGradient>
<linearGradient id="paint2_linear_176_492" x1="30234.2" y1="-6545.22" x2="30379.6" y2="-8928.68" gradientUnits="userSpaceOnUse">
<stop offset="0.01" stop-color="#55E7EC"/>
<stop offset="0.29" stop-color="#51E3EB"/>
<stop offset="0.6" stop-color="#47D6E8"/>
<stop offset="0.92" stop-color="#35C1E3"/>
<stop offset="1" stop-color="#2FBAE1"/>
</linearGradient>
<linearGradient id="paint3_linear_176_492" x1="29.2833" y1="78.2575" x2="42.9245" y2="76.0904" gradientUnits="userSpaceOnUse">
<stop offset="0.01" stop-color="#10A3F0"/>
<stop offset="0.2" stop-color="#10AAF1"/>
<stop offset="0.48" stop-color="#12BFF5"/>
<stop offset="0.83" stop-color="#14E0FB"/>
<stop offset="1" stop-color="#15F3FE"/>
</linearGradient>
<linearGradient id="paint4_linear_176_492" x1="28.4862" y1="66.6027" x2="61.3403" y2="61.3835" gradientUnits="userSpaceOnUse">
<stop offset="0.01" stop-color="#00709F"/>
<stop offset="1" stop-color="#206294"/>
</linearGradient>
<linearGradient id="paint5_linear_176_492" x1="28.2104" y1="64.8658" x2="57.5378" y2="60.2068" gradientUnits="userSpaceOnUse">
<stop offset="0.01" stop-color="#DCE7EC"/>
<stop offset="0.17" stop-color="#D8E7EC"/>
<stop offset="0.34" stop-color="#CBE7EC"/>
<stop offset="0.51" stop-color="#B6E6EC"/>
<stop offset="0.69" stop-color="#98E6EC"/>
<stop offset="0.87" stop-color="#72E5EB"/>
<stop offset="1" stop-color="#53E5EB"/>
</linearGradient>
<linearGradient id="paint6_linear_176_492" x1="1077.44" y1="1975.1" x2="1080.7" y2="1974.58" gradientUnits="userSpaceOnUse">
<stop offset="0.01" stop-color="#DCE7EC"/>
<stop offset="0.17" stop-color="#D8E7EC"/>
<stop offset="0.34" stop-color="#CBE7EC"/>
<stop offset="0.51" stop-color="#B6E6EC"/>
<stop offset="0.69" stop-color="#98E6EC"/>
<stop offset="0.87" stop-color="#72E5EB"/>
<stop offset="1" stop-color="#53E5EB"/>
</linearGradient>
<linearGradient id="paint7_linear_176_492" x1="99.2011" y1="25.2546" x2="94.9355" y2="157.549" gradientUnits="userSpaceOnUse">
<stop offset="0.01" stop-color="#0A98EA"/>
<stop offset="1" stop-color="#09EAF0"/>
</linearGradient>
<linearGradient id="paint8_linear_176_492" x1="14346.4" y1="18550.2" x2="18004.8" y2="12253.7" gradientUnits="userSpaceOnUse">
<stop offset="0.01" stop-color="#10A3F0"/>
<stop offset="0.2" stop-color="#10AAF1"/>
<stop offset="0.48" stop-color="#12BFF5"/>
<stop offset="0.83" stop-color="#14E0FB"/>
<stop offset="1" stop-color="#15F3FE"/>
</linearGradient>
<linearGradient id="paint9_linear_176_492" x1="62.0346" y1="29.2206" x2="105.672" y2="29.2206" gradientUnits="userSpaceOnUse">
<stop stop-color="#0CBCED"/>
<stop offset="1" stop-color="#24EBFF"/>
</linearGradient>
<linearGradient id="paint10_linear_176_492" x1="19429.7" y1="2378.13" x2="17553.1" y2="1729.37" gradientUnits="userSpaceOnUse">
<stop offset="0.01" stop-color="#00709F"/>
<stop offset="1" stop-color="#206294"/>
</linearGradient>
<linearGradient id="paint11_linear_176_492" x1="92.5059" y1="11.3363" x2="59.4321" y2="80.5362" gradientUnits="userSpaceOnUse">
<stop offset="0.01" stop-color="#6AFFF2"/>
<stop offset="0.24" stop-color="#66FBF1"/>
<stop offset="0.49" stop-color="#5BEEEE"/>
<stop offset="0.74" stop-color="#49D9E9"/>
<stop offset="0.99" stop-color="#30BBE1"/>
<stop offset="1" stop-color="#2FBAE1"/>
</linearGradient>
<linearGradient id="paint12_linear_176_492" x1="5260.88" y1="13319.5" x2="2158.47" y2="10803.8" gradientUnits="userSpaceOnUse">
<stop offset="0.01" stop-color="#DCE7EC"/>
<stop offset="0.17" stop-color="#D8E7EC"/>
<stop offset="0.34" stop-color="#CBE7EC"/>
<stop offset="0.51" stop-color="#B6E6EC"/>
<stop offset="0.69" stop-color="#98E6EC"/>
<stop offset="0.87" stop-color="#72E5EB"/>
<stop offset="1" stop-color="#53E5EB"/>
</linearGradient>
<linearGradient id="paint13_linear_176_492" x1="8356.04" y1="9350.7" x2="5393.88" y2="10568.3" gradientUnits="userSpaceOnUse">
<stop offset="0.01" stop-color="#55E7EC"/>
<stop offset="0.29" stop-color="#51E3EB"/>
<stop offset="0.6" stop-color="#47D6E8"/>
<stop offset="0.92" stop-color="#35C1E3"/>
<stop offset="1" stop-color="#2FBAE1"/>
</linearGradient>
<linearGradient id="paint14_linear_176_492" x1="12591.3" y1="5647.12" x2="13143.3" y2="5647.12" gradientUnits="userSpaceOnUse">
<stop offset="0.01" stop-color="#6AFFF2"/>
<stop offset="0.24" stop-color="#66FBF1"/>
<stop offset="0.49" stop-color="#5BEEEE"/>
<stop offset="0.74" stop-color="#49D9E9"/>
<stop offset="0.99" stop-color="#30BBE1"/>
<stop offset="1" stop-color="#2FBAE1"/>
</linearGradient>
<radialGradient id="paint15_radial_176_492" cx="0" cy="0" r="1" gradientUnits="userSpaceOnUse" gradientTransform="translate(92.8901 37.829) scale(19.0418 19.156)">
<stop offset="0.01" stop-color="#6AFFF2"/>
<stop offset="0.13" stop-color="#53C6BC"/>
<stop offset="0.25" stop-color="#3D928B"/>
<stop offset="0.38" stop-color="#2A6660"/>
<stop offset="0.5" stop-color="#1B413E"/>
<stop offset="0.63" stop-color="#0F2423"/>
<stop offset="0.75" stop-color="#07100F"/>
<stop offset="0.88" stop-color="#020404"/>
<stop offset="1"/>
</radialGradient>
<radialGradient id="paint16_radial_176_492" cx="0" cy="0" r="1" gradientUnits="userSpaceOnUse" gradientTransform="translate(88.7482 81.1876) scale(19.0418 19.156)">
<stop stop-color="#1D4643"/>
<stop offset="0.03" stop-color="#1A3E3B"/>
<stop offset="0.13" stop-color="#102725"/>
<stop offset="0.24" stop-color="#091515"/>
<stop offset="0.37" stop-color="#040909"/>
<stop offset="0.56" stop-color="#010202"/>
<stop offset="1"/>
</radialGradient>
<linearGradient id="paint17_linear_176_492" x1="12847.8" y1="4770.71" x2="13380" y2="4770.71" gradientUnits="userSpaceOnUse">
<stop offset="0.01" stop-color="#0A98EA"/>
<stop offset="1" stop-color="#09EAF0"/>
</linearGradient>
<linearGradient id="paint18_linear_176_492" x1="21790.5" y1="8248.56" x2="23871.5" y2="8248.56" gradientUnits="userSpaceOnUse">
<stop offset="0.01" stop-color="#00709F"/>
<stop offset="1" stop-color="#206294"/>
</linearGradient>
<linearGradient id="paint19_linear_176_492" x1="2848.5" y1="5415.73" x2="1462.4" y2="4031.73" gradientUnits="userSpaceOnUse">
<stop offset="0.01" stop-color="#9FFAF3"/>
<stop offset="0.17" stop-color="#76D8F1"/>
<stop offset="0.34" stop-color="#4FB6EF"/>
<stop offset="0.52" stop-color="#309CEE"/>
<stop offset="0.69" stop-color="#1A89ED"/>
<stop offset="0.85" stop-color="#0D7EEC"/>
<stop offset="1" stop-color="#087AEC"/>
</linearGradient>
<linearGradient id="paint20_linear_176_492" x1="6875.31" y1="6197.03" x2="7080.95" y2="6197.03" gradientUnits="userSpaceOnUse">
<stop offset="0.01" stop-color="#0A98EA"/>
<stop offset="1" stop-color="#09EAF0"/>
</linearGradient>
<linearGradient id="paint21_linear_176_492" x1="54.8366" y1="425.757" x2="54.927" y2="425.757" gradientUnits="userSpaceOnUse">
<stop offset="0.01" stop-color="#0A98EA"/>
<stop offset="1" stop-color="#09EAF0"/>
</linearGradient>
<linearGradient id="paint22_linear_176_492" x1="43.5137" y1="100.532" x2="75.3864" y2="100.532" gradientUnits="userSpaceOnUse">
<stop offset="0.01" stop-color="#00709F"/>
<stop offset="1" stop-color="#087EE8"/>
</linearGradient>
<linearGradient id="paint23_linear_176_492" x1="51.2857" y1="118.69" x2="17.6375" y2="109.588" gradientUnits="userSpaceOnUse">
<stop offset="0.01" stop-color="#6DDCF7"/>
<stop offset="1" stop-color="#DBFBF6"/>
</linearGradient>
<linearGradient id="paint24_linear_176_492" x1="5945.6" y1="5361.43" x2="6490.89" y2="5694.81" gradientUnits="userSpaceOnUse">
<stop offset="0.01" stop-color="#6AFFF2"/>
<stop offset="0.24" stop-color="#66FBF1"/>
<stop offset="0.49" stop-color="#5BEEEE"/>
<stop offset="0.74" stop-color="#49D9E9"/>
<stop offset="0.99" stop-color="#30BBE1"/>
<stop offset="1" stop-color="#2FBAE1"/>
</linearGradient>
<linearGradient id="paint25_linear_176_492" x1="62.9641" y1="108.625" x2="60.8712" y2="102.135" gradientUnits="userSpaceOnUse">
<stop offset="0.01" stop-color="#6AFFF2"/>
<stop offset="1" stop-color="#45D4E7"/>
</linearGradient>
<linearGradient id="paint26_linear_176_492" x1="5758.33" y1="6739.19" x2="5257.11" y2="6585.74" gradientUnits="userSpaceOnUse">
<stop offset="0.01" stop-color="#6AFFF2"/>
<stop offset="0.24" stop-color="#66FBF1"/>
<stop offset="0.49" stop-color="#5BEEEE"/>
<stop offset="0.74" stop-color="#49D9E9"/>
<stop offset="0.99" stop-color="#30BBE1"/>
<stop offset="1" stop-color="#2FBAE1"/>
</linearGradient>
<linearGradient id="paint27_linear_176_492" x1="3077" y1="2874.5" x2="3103.63" y2="2874.5" gradientUnits="userSpaceOnUse">
<stop offset="0.01" stop-color="#0A98EA"/>
<stop offset="1" stop-color="#09EAF0"/>
</linearGradient>
<linearGradient id="paint28_linear_176_492" x1="5600.24" y1="1808.39" x2="5694.51" y2="1808.39" gradientUnits="userSpaceOnUse">
<stop offset="0.01" stop-color="#0A98EA"/>
<stop offset="1" stop-color="#09EAF0"/>
</linearGradient>
<linearGradient id="paint29_linear_176_492" x1="16763.7" y1="8793.5" x2="17709.6" y2="8793.5" gradientUnits="userSpaceOnUse">
<stop offset="0.01" stop-color="#0A98EA"/>
<stop offset="1" stop-color="#09EAF0"/>
</linearGradient>
<linearGradient id="paint30_linear_176_492" x1="110.011" y1="99.3717" x2="123.928" y2="126.579" gradientUnits="userSpaceOnUse">
<stop offset="0.01" stop-color="#0076C4"/>
<stop offset="0.15" stop-color="#017DC7"/>
<stop offset="0.36" stop-color="#0592D1"/>
<stop offset="0.61" stop-color="#0AB3E0"/>
<stop offset="0.9" stop-color="#12E1F6"/>
<stop offset="1" stop-color="#15F3FE"/>
</linearGradient>
<linearGradient id="paint31_linear_176_492" x1="4719.96" y1="3677.87" x2="4786.06" y2="3677.87" gradientUnits="userSpaceOnUse">
<stop offset="0.01" stop-color="#0A98EA"/>
<stop offset="1" stop-color="#09EAF0"/>
</linearGradient>
<linearGradient id="paint32_linear_176_492" x1="13140.3" y1="2806.53" x2="13236.6" y2="3014.18" gradientUnits="userSpaceOnUse">
<stop offset="0.01" stop-color="#0076C4"/>
<stop offset="0.15" stop-color="#017DC7"/>
<stop offset="0.36" stop-color="#0592D1"/>
<stop offset="0.61" stop-color="#0AB3E0"/>
<stop offset="0.9" stop-color="#12E1F6"/>
<stop offset="1" stop-color="#15F3FE"/>
</linearGradient>
<linearGradient id="paint33_linear_176_492" x1="16443.2" y1="7641.57" x2="17353" y2="7641.57" gradientUnits="userSpaceOnUse">
<stop offset="0.01" stop-color="#55E7EC"/>
<stop offset="0.29" stop-color="#51E3EB"/>
<stop offset="0.6" stop-color="#47D6E8"/>
<stop offset="0.92" stop-color="#35C1E3"/>
<stop offset="1" stop-color="#2FBAE1"/>
</linearGradient>
<linearGradient id="paint34_linear_176_492" x1="6678.62" y1="686.895" x2="6813.18" y2="686.895" gradientUnits="userSpaceOnUse">
<stop offset="0.01" stop-color="#55E7EC"/>
<stop offset="0.29" stop-color="#51E3EB"/>
<stop offset="0.6" stop-color="#47D6E8"/>
<stop offset="0.92" stop-color="#35C1E3"/>
<stop offset="1" stop-color="#2FBAE1"/>
</linearGradient>
<radialGradient id="paint35_radial_176_492" cx="0" cy="0" r="1" gradientUnits="userSpaceOnUse" gradientTransform="translate(56.7653 113.963) scale(20.9137 21.0392)">
<stop stop-color="#22504D"/>
<stop offset="1"/>
</radialGradient>
<radialGradient id="paint36_radial_176_492" cx="0" cy="0" r="1" gradientUnits="userSpaceOnUse" gradientTransform="translate(118.403 117.717) scale(20.9137 21.0392)">
<stop stop-color="#22504D"/>
<stop offset="0.11" stop-color="#1B403D"/>
<stop offset="0.33" stop-color="#0F2423"/>
<stop offset="0.55" stop-color="#07100F"/>
<stop offset="0.78" stop-color="#020404"/>
<stop offset="1"/>
</radialGradient>
<radialGradient id="paint37_radial_176_492" cx="0" cy="0" r="1" gradientUnits="userSpaceOnUse" gradientTransform="translate(89.1839 -142.269) scale(84.3491 10.1826)">
<stop stop-color="#0C9FF9"/>
<stop offset="0.09" stop-color="#0C99F0"/>
<stop offset="0.23" stop-color="#0A8AD9"/>
<stop offset="0.4" stop-color="#0972B2"/>
<stop offset="0.6" stop-color="#06507D"/>
<stop offset="0.83" stop-color="#032439"/>
<stop offset="1"/>
</radialGradient>
<radialGradient id="paint38_radial_176_492" cx="0" cy="0" r="1" gradientUnits="userSpaceOnUse" gradientTransform="translate(66630.4 21492.1) scale(8714.61 8766.9)">
<stop offset="0.01" stop-color="#6AFFF2"/>
<stop offset="0.13" stop-color="#53C6BC"/>
<stop offset="0.25" stop-color="#3D928B"/>
<stop offset="0.38" stop-color="#2A6660"/>
<stop offset="0.5" stop-color="#1B413E"/>
<stop offset="0.63" stop-color="#0F2423"/>
<stop offset="0.75" stop-color="#07100F"/>
<stop offset="0.88" stop-color="#020404"/>
<stop offset="1"/>
</radialGradient>
<clipPath id="clip0_176_492">
<rect width="176" height="196" fill="white"/>
</clipPath>
</defs>
</svg>
