<svg width="466" height="535" viewBox="0 0 466 535" fill="none" xmlns="http://www.w3.org/2000/svg">
<g clip-path="url(#clip0_176_42)">
<path fill-rule="evenodd" clip-rule="evenodd" d="M17.0613 182.405C58.3389 176.902 87.9212 168.646 98.2406 158.327C99.7526 156.922 100.795 155.084 101.226 153.066C101.657 151.047 101.455 148.944 100.648 147.044C93.7144 125.688 89.8914 103.445 89.2972 81C89.2972 94.2088 53.3856 105.698 -0.137695 111.889C8.20852 123.901 18.9621 134.046 31.4397 141.678C28.5992 155.885 23.7094 169.604 16.9236 182.405H17.0613Z" fill="url(#paint0_linear_176_42)"/>
<path fill-rule="evenodd" clip-rule="evenodd" d="M85.6515 99.7112C74.2313 108.792 45.7496 116.497 7.43021 121.382C5.57272 119.318 3.92161 117.185 2.27051 115.053C42.3786 110.306 72.3738 102.463 84.2755 93.2443C86.6601 91.5344 88.4613 89.1327 89.4352 86.3647C89.4352 88.7726 89.7791 91.4557 90.0543 94.3451C88.9933 96.3551 87.4875 98.0964 85.6515 99.4361V99.7112Z" fill="url(#paint1_linear_176_42)"/>
<path fill-rule="evenodd" clip-rule="evenodd" d="M22.2897 171.259C59.3708 165.893 86.2702 157.5 96.1768 148.557C97.7173 147.186 98.8182 145.391 99.3414 143.397C99.7542 144.704 100.236 145.942 100.649 147.043V147.525C100.649 148.945 100.356 150.351 99.7873 151.653C99.2191 152.955 98.388 154.126 97.3462 155.092C87.1644 164.861 58.3389 173.254 18.6436 178.689C19.8131 176.282 20.9826 173.805 22.0834 171.259H22.2897Z" fill="url(#paint2_linear_176_42)"/>
<path fill-rule="evenodd" clip-rule="evenodd" d="M53.3168 115.536C52.5601 98.4747 69.2086 85.885 88.4715 81.6885C91.2233 106.042 101.818 135.762 101.474 151.31C101.474 144.981 93.1497 138.858 77.3954 133.423C61.6411 127.988 53.3168 121.797 53.3168 115.536Z" fill="url(#paint3_linear_176_42)"/>
<path fill-rule="evenodd" clip-rule="evenodd" d="M448.757 182.405C407.479 176.902 377.828 168.646 367.508 158.327C366.013 156.91 364.982 155.074 364.552 153.059C364.122 151.045 364.314 148.948 365.101 147.044C372.082 125.698 375.929 103.451 376.521 81C376.521 94.2088 412.432 105.698 465.956 111.889C457.609 123.901 446.856 134.046 434.378 141.678C437.187 155.894 442.078 169.618 448.894 182.405H448.757Z" fill="url(#paint4_linear_176_42)"/>
<path fill-rule="evenodd" clip-rule="evenodd" d="M380.51 99.7112C391.862 108.792 420.343 116.497 458.732 121.382C460.52 119.318 462.24 117.185 463.822 115.053C423.714 110.306 393.788 102.463 381.886 93.2443C379.506 91.5138 377.688 89.1212 376.658 86.3647C376.658 88.7726 376.658 91.4557 376.107 94.3451C377.147 96.3695 378.657 98.1153 380.51 99.4361V99.7112Z" fill="url(#paint5_linear_176_42)"/>
<path fill-rule="evenodd" clip-rule="evenodd" d="M443.528 171.259C406.447 165.893 379.548 157.5 369.642 148.557C368.078 147.206 366.972 145.403 366.477 143.397C366.083 144.636 365.624 145.853 365.101 147.043C365.101 147.043 365.101 147.387 365.101 147.525C365.088 148.941 365.368 150.345 365.925 151.647C366.481 152.95 367.302 154.123 368.334 155.092C378.516 164.861 407.342 173.254 447.037 178.689C445.868 176.282 444.767 173.805 443.666 171.259H443.528Z" fill="url(#paint6_linear_176_42)"/>
<path fill-rule="evenodd" clip-rule="evenodd" d="M412.433 115.536C413.258 98.4747 396.541 85.885 377.278 81.6885C374.595 106.042 364 135.762 364.344 151.31C364.344 144.981 372.668 138.858 388.423 133.423C404.177 127.988 412.433 121.797 412.433 115.536Z" fill="url(#paint7_linear_176_42)"/>
</g>
<g clip-path="url(#clip1_176_42)">
<path fill-rule="evenodd" clip-rule="evenodd" d="M231.979 498.356C254.233 495.996 276.487 493.298 299.416 489.926C333.134 485.037 366.852 479.137 400.57 471.719C398.417 459.423 397.57 446.934 398.042 434.46V76.5406C397.57 64.0667 398.417 51.5777 400.57 39.2819C366.852 31.8639 333.134 25.9632 299.416 21.0741C277.33 17.7023 255.076 15.0048 231.979 12.6445C209.894 15.0048 187.64 17.7023 165.554 21.0741C131.836 25.9632 98.1177 31.8639 64.3994 39.2819C66.5524 51.5777 67.4003 64.0667 66.9284 76.5406V434.46C67.4003 446.934 66.5524 459.423 64.3994 471.719C98.1177 479.137 131.836 485.037 165.554 489.926C187.64 493.298 209.894 495.996 231.979 498.356Z" fill="url(#paint8_radial_176_42)"/>
<g style="mix-blend-mode:screen" opacity="0.5">
<path fill-rule="evenodd" clip-rule="evenodd" d="M296.55 33.7211C328.413 37.5987 360.951 42.3192 392.647 48.3885C360.783 41.1391 328.245 35.5756 296.212 31.5294C275.195 28.3823 253.952 25.6849 232.485 23.437C211.242 25.5725 190 28.27 168.757 31.5294C136.725 36.2499 104.187 41.8134 72.3232 48.3885C104.018 42.3192 136.556 37.5987 168.42 33.7211C189.663 31.1922 211.074 28.8319 232.316 26.9774C253.727 28.8319 275.139 31.1922 296.381 33.7211H296.55Z" fill="#4D5E6E"/>
</g>
<g style="mix-blend-mode:color-burn" opacity="0.2">
<path fill-rule="evenodd" clip-rule="evenodd" d="M296.55 477.454C328.413 473.577 360.951 468.856 392.647 462.787C360.783 470.036 328.245 475.6 296.212 479.646C275.195 482.793 253.952 485.49 232.485 487.738C211.242 485.49 190 482.793 168.757 479.646C136.725 474.925 104.187 469.362 72.3232 462.787C104.018 468.856 136.556 473.577 168.42 477.454C189.663 479.983 211.074 482.343 232.316 484.198C253.727 482.343 275.139 479.983 296.381 477.454H296.55Z" fill="#35424F"/>
</g>
<path fill-rule="evenodd" clip-rule="evenodd" d="M406.64 39.9548C402.424 54.2773 400.713 69.2206 401.583 84.1257V426.872C400.713 441.777 402.424 456.72 406.64 471.043L423.5 478.629C417.311 468.463 413.991 456.812 413.89 444.911C412.541 438.504 409.506 434.795 409.506 432.604C410.307 430.312 411.704 428.275 413.553 426.703V177.357C413.553 171.793 410.181 164.712 410.181 159.149C410.181 156.114 413.553 154.428 413.553 151.394C411.946 142.417 411.946 133.227 413.553 124.25C411.72 122.417 410.691 119.931 410.691 117.338C410.691 114.746 411.72 112.26 413.553 110.426V84.1257C411.251 66.2535 414.737 48.114 423.5 32.3682L406.64 39.9548Z" fill="url(#paint9_linear_176_42)"/>
<path fill-rule="evenodd" clip-rule="evenodd" d="M57.3188 39.9566C93.2288 31.3584 130.15 24.952 166.397 19.5571C188.314 16.3538 210.063 13.4878 231.979 11.2961V0.000488281L212.086 1.855C209.557 1.855 206.522 5.22683 202.982 6.06978C200.124 6.07336 197.302 5.43982 194.721 4.21527C161.003 9.27301 127.284 14.6679 95.5891 21.0744C89.5744 22.0743 83.4747 22.4696 77.3812 22.2545C75.3582 22.2545 74.0095 27.1437 72.155 27.6494C70.3005 28.1552 67.0972 25.9635 65.2427 26.4693C57.531 29.332 49.4864 31.2016 41.3027 32.0328L57.3188 39.6194V39.9566Z" fill="url(#paint10_linear_176_42)"/>
<path fill-rule="evenodd" clip-rule="evenodd" d="M166.397 19.5518C130.15 24.9467 93.2283 31.3531 57.3184 39.9513L71.48 48.3809C103.344 41.1314 136.051 35.3993 168.083 31.5217C189.325 28.4871 210.736 25.6211 231.979 23.598V12.1338C210.062 14.3255 188.314 17.1915 166.397 20.3947V19.5518Z" fill="url(#paint11_linear_176_42)"/>
<path fill-rule="evenodd" clip-rule="evenodd" d="M231.979 11.2952C253.896 13.4868 275.813 16.3529 297.561 19.5562C333.977 24.9511 370.899 31.3575 406.64 39.9557L423.499 32.3691C414.366 29.6249 405.077 27.4293 395.682 25.794C386.857 26.5891 377.969 26.306 369.213 24.9511C365.482 23.4634 362.096 21.2255 359.266 18.376C325.548 11.9696 288.289 6.23745 253.391 1.5169C246.456 3.5027 239.021 2.71685 232.654 -0.674805V10.6208L231.979 11.2952Z" fill="url(#paint12_linear_176_42)"/>
<path fill-rule="evenodd" clip-rule="evenodd" d="M297.561 19.5554C275.813 16.3522 253.896 13.4861 231.979 11.2944V22.2529C253.391 24.276 274.802 27.1421 296.044 30.1767C328.077 34.8973 360.783 40.6294 392.647 47.0358L406.64 38.6063C370.899 30.0081 333.977 23.6016 297.561 18.2067V19.5554Z" fill="url(#paint13_linear_176_42)"/>
<path fill-rule="evenodd" clip-rule="evenodd" d="M392.647 48.3876C390.636 60.1888 389.845 72.1657 390.287 84.1289V367.531C392.715 371.05 394.016 375.225 394.016 379.501C394.016 383.777 392.715 387.952 390.287 391.471V426.875C389.845 438.838 390.636 450.815 392.647 462.616L406.64 471.046C402.423 456.723 400.712 441.78 401.582 426.875V84.1289C400.712 69.2239 402.423 54.2806 406.64 39.958L392.647 48.3876Z" fill="url(#paint14_linear_176_42)"/>
<path fill-rule="evenodd" clip-rule="evenodd" d="M57.3184 39.958C61.6744 54.2535 63.4442 69.2116 62.5446 84.1289V426.875C63.4442 441.792 61.6744 456.75 57.3184 471.046L71.48 462.616C73.4907 450.815 74.2816 438.838 73.8402 426.875C73.6589 423.371 72.8002 419.936 71.3115 416.759C71.3115 415.748 73.8402 413.725 73.8402 410.859V84.1289C74.2816 72.1657 73.4907 60.1888 71.48 48.3876L57.3184 39.958Z" fill="url(#paint15_linear_176_42)"/>
<path fill-rule="evenodd" clip-rule="evenodd" d="M62.5451 84.1257C63.4447 69.2084 61.6749 54.2502 57.3188 39.9548L41.3027 32.3682C47.8994 43.3478 51.2325 55.979 50.9123 68.7839C52.6564 70.2828 53.8934 72.2853 54.4528 74.516C54.2173 77.939 53.1149 81.2459 51.2496 84.1257C53.0871 89.5952 53.0871 95.5153 51.2496 100.985C51.2496 102.165 53.7786 100.985 53.7786 102.839C53.7786 104.694 51.2496 106.717 51.2496 107.897V342.576C54.79 348.814 55.1272 352.354 51.2496 352.354V360.952C51.2496 364.156 55.2958 364.324 55.2958 367.528C55.2958 370.731 51.2496 378.655 51.2496 382.701V426.872C53.5512 444.744 50.0652 462.883 41.3027 478.629L57.3188 471.043C61.6749 456.747 63.4447 441.789 62.5451 426.872V152.574C64.0625 149.202 65.4112 147.347 65.2427 144.987C64.5432 143.042 63.6389 141.177 62.5451 139.424V84.1257Z" fill="url(#paint16_linear_176_42)"/>
<path fill-rule="evenodd" clip-rule="evenodd" d="M168.083 480.313C136.051 475.592 103.344 469.86 71.48 463.454L57.3184 471.883C93.2283 480.481 130.15 486.888 166.397 492.283C188.314 495.486 210.062 498.352 231.979 500.544V489.08C210.736 486.888 189.325 484.19 168.083 481.156V480.313Z" fill="url(#paint17_linear_176_42)"/>
<path fill-rule="evenodd" clip-rule="evenodd" d="M166.397 491.443C130.15 486.048 93.2288 479.642 57.3188 471.043L41.3027 478.63C53.2727 481.665 66.2543 484.699 80.0788 487.565C85.4737 484.362 89.8571 487.565 94.0719 490.431L99.4667 491.443C99.4667 489.083 101.321 487.565 101.827 487.734C102.333 487.903 105.199 492.623 110.088 493.466C133.859 498.018 156.788 501.558 181.739 505.099C188.146 505.099 190.843 501.896 198.598 502.57C210.121 504.092 221.433 506.92 232.317 510.999V499.704C210.4 497.512 188.651 494.646 166.735 491.443H166.397Z" fill="url(#paint18_linear_176_42)"/>
<path fill-rule="evenodd" clip-rule="evenodd" d="M231.979 488.24V499.704C253.896 497.512 275.813 494.646 297.561 491.443C333.977 486.048 370.899 479.641 406.64 471.043L392.647 462.614C360.783 469.863 328.077 475.595 296.044 479.473C274.802 482.508 253.391 485.205 231.979 487.397V488.24Z" fill="url(#paint19_linear_176_42)"/>
<path fill-rule="evenodd" clip-rule="evenodd" d="M297.561 491.447C275.813 494.65 253.896 497.516 231.979 499.708V511.172C261.652 508.306 293.347 503.923 324.03 498.865C332.293 495.859 341.033 494.374 349.825 494.481C353.028 494.481 356.063 489.761 359.266 489.255C362.469 488.749 362.806 491.953 364.492 491.615C385.566 487.569 405.46 483.186 422.825 478.803L405.966 471.216C370.224 479.814 333.303 486.22 296.887 491.615L297.561 491.447Z" fill="url(#paint20_linear_176_42)"/>
<path fill-rule="evenodd" clip-rule="evenodd" d="M229.956 9.10084C184.619 14.2347 139.594 21.8325 95.083 31.8606C118.854 27.1401 142.963 23.0939 166.734 19.5535C190.506 16.0131 210.399 13.4842 232.316 11.2925C252.21 13.3156 271.935 15.8445 291.492 18.5419C292.503 18.5419 293.346 20.7336 294.189 20.9022C295.032 21.0708 296.718 19.3849 297.898 19.5535C321.838 23.0939 345.778 27.1401 369.718 31.8606C340.889 25.117 310.88 19.7221 281.208 15.0015C281.208 15.0015 279.522 9.60662 278.679 9.43803C277.836 9.26944 277.161 14.4957 276.487 14.3271L234.508 8.76365L232.316 0.839844L230.293 8.76365L229.956 9.10084Z" fill="#89EFF4"/>
<path fill-rule="evenodd" clip-rule="evenodd" d="M231.979 495.992C184.942 492.114 130.825 484.696 82.7764 476.772C110.594 482.505 138.749 487.394 167.072 491.44C188.989 494.643 210.737 497.509 232.654 499.701C254.571 497.509 276.488 494.643 298.236 491.44C326.053 487.394 354.208 482.505 382.532 476.772C334.483 484.696 280.365 492.114 233.328 495.992H231.979Z" fill="#73BDC9"/>
<path fill-rule="evenodd" clip-rule="evenodd" d="M60.5217 421.476C61.3245 437.57 59.2113 453.677 54.2839 469.019L45.6855 476.437L57.3184 471.042C61.6744 456.747 63.4442 441.789 62.5447 426.871V229.788L60.8589 397.031C59.0044 397.031 59.0044 398.716 60.8589 401.077V412.878C60.8589 414.227 58.1614 412.878 58.1614 414.733C58.1614 416.587 60.6902 419.959 60.6902 421.476H60.5217Z" fill="#73BDC9"/>
<path fill-rule="evenodd" clip-rule="evenodd" d="M403.436 421.476C402.805 437.563 404.914 453.64 409.674 469.019L418.272 476.437L406.64 471.042C402.996 459.778 401.286 447.979 401.582 436.144C395.344 428.051 395.344 424.848 401.582 426.871V229.788L403.436 421.476Z" fill="#73BDC9"/>
</g>
<g clip-path="url(#clip2_176_42)">
<path fill-rule="evenodd" clip-rule="evenodd" d="M232.477 37.1896C139.537 37.1896 61.9377 50.3556 43.9139 67.7953C42.4346 69.2251 41.415 71.065 40.986 73.0791C40.5571 75.0932 40.7382 77.1898 41.5061 79.1001C48.4941 100.511 52.3409 122.825 52.9258 145.343C52.9258 125.56 133.345 109.499 232.477 109.499C331.608 109.499 412.027 125.56 412.027 145.343C412.629 122.646 416.474 100.152 423.447 78.5487C424.234 76.6414 424.425 74.5399 423.995 72.5216C423.565 70.5033 422.535 68.663 421.039 67.2439C403.015 49.8042 325.485 36.6382 232.477 36.6382V37.1896Z" fill="#1181C7"/>
<path fill-rule="evenodd" clip-rule="evenodd" d="M232.477 109.154V37.1895C325.485 37.1895 403.015 50.3554 421.039 67.7951C422.535 69.2143 423.565 71.0545 423.995 73.0729C424.425 75.0912 424.234 77.1927 423.447 79.0999C416.526 100.527 412.681 122.831 412.027 145.343C412.027 125.56 331.677 109.499 232.477 109.499V109.154Z" fill="url(#paint21_radial_176_42)"/>
<path style="mix-blend-mode:screen" fill-rule="evenodd" clip-rule="evenodd" d="M416.086 72.552C409.468 92.8018 405.829 113.91 405.286 135.211C402.876 133.536 400.32 132.082 397.649 130.868C398.551 109.666 401.899 88.6402 407.625 68.2093C408.147 66.728 408.356 65.1538 408.238 63.5872C408.119 62.0205 407.676 60.4958 406.937 59.1104C409.683 60.2618 412.349 61.5976 414.917 63.1084C417.462 64.7628 416.98 69.3122 415.811 72.552H416.086Z" fill="url(#paint22_radial_176_42)"/>
<path fill-rule="evenodd" clip-rule="evenodd" d="M232.477 109.154V37.1895C139.537 37.1895 61.9377 50.3554 43.9139 67.7951C42.4346 69.2249 41.415 71.0648 40.986 73.0789C40.5571 75.093 40.7382 77.1896 41.5061 79.0999C48.4941 100.51 52.3409 122.825 52.9258 145.343C52.9258 125.56 133.345 109.499 232.477 109.499V109.154Z" fill="url(#paint23_radial_176_42)"/>
<path style="mix-blend-mode:screen" fill-rule="evenodd" clip-rule="evenodd" d="M48.9356 72.552C55.5211 92.81 59.1587 113.913 59.7362 135.211C62.1367 133.521 64.694 132.067 67.3724 130.868C66.3806 109.655 62.9408 88.6292 57.122 68.2093C56.5717 66.7362 56.3424 65.1621 56.4492 63.5927C56.556 62.0234 56.9966 60.495 57.7413 59.1104C55.0165 60.261 52.3731 61.5968 49.8299 63.1084C47.2158 64.7628 47.7661 69.3122 48.9356 72.552Z" fill="url(#paint24_radial_176_42)"/>
<path style="mix-blend-mode:screen" fill-rule="evenodd" clip-rule="evenodd" d="M232.477 37.1896C139.537 37.1896 61.9377 50.3556 43.9139 67.7953C42.4346 69.2251 41.415 71.065 40.986 73.0791C40.5571 75.0932 40.7382 77.1898 41.5061 79.1001C48.4941 100.511 52.3409 122.825 52.9258 145.343C52.9258 125.56 133.345 109.499 232.477 109.499C331.608 109.499 412.027 125.56 412.027 145.343C412.629 122.646 416.474 100.152 423.447 78.5487C424.234 76.6414 424.425 74.5399 423.995 72.5216C423.565 70.5033 422.535 68.663 421.039 67.2439C403.015 49.8042 325.485 36.6382 232.477 36.6382V37.1896Z" fill="url(#paint25_radial_176_42)"/>
<g style="mix-blend-mode:screen" opacity="0.5">
<path fill-rule="evenodd" clip-rule="evenodd" d="M232.477 38.3612C325.967 38.3612 403.979 51.5272 422.14 68.9669C422.428 69.2332 422.683 69.5341 422.897 69.863C422.401 68.9707 421.775 68.1576 421.04 67.4504C403.016 50.0107 325.486 36.8447 232.477 36.8447C139.468 36.8447 61.9381 50.0107 43.9142 67.4504C43.2202 68.1938 42.5981 69.0016 42.0566 69.863L42.8823 68.9669C60.975 51.5272 139.193 38.3612 232.477 38.3612Z" fill="#89EFF4"/>
</g>
<path fill-rule="evenodd" clip-rule="evenodd" d="M44.3951 79.5826C57.741 61.1778 136.922 47.1158 232.476 47.1158V40.2227C131.075 40.2227 48.1099 55.9391 41.5746 75.8603C41.3486 76.5264 41.2323 77.2248 41.2305 77.9283C41.2589 78.1802 41.2589 78.4346 41.2305 78.6866C41.712 79.8584 42.1249 81.0302 42.6064 82.2709C42.9581 81.2756 43.4693 80.3443 44.1199 79.5137L44.3951 79.5826Z" fill="url(#paint26_linear_176_42)"/>
<path fill-rule="evenodd" clip-rule="evenodd" d="M55.4022 135.279C69.7801 118.391 143.596 105.501 232.477 105.501V98.6074C143.045 98.6074 68.4042 111.635 54.0952 128.731C53.3287 129.632 52.6813 130.628 52.1689 131.695C52.4441 134.636 52.6507 137.324 52.7883 139.76C53.3123 138.088 54.2057 136.557 55.4022 135.279Z" fill="url(#paint27_linear_176_42)"/>
<path fill-rule="evenodd" clip-rule="evenodd" d="M420.627 79.5826C407.212 61.1778 328.099 47.1158 232.477 47.1158V40.2227C333.878 40.2227 416.843 55.9391 423.447 75.8603C423.551 76.5457 423.551 77.2429 423.447 77.9283C423.475 78.1802 423.475 78.4346 423.447 78.6866C423.034 79.8584 422.553 81.0302 422.14 82.2709C421.761 81.2882 421.252 80.3609 420.627 79.5137V79.5826Z" fill="url(#paint28_linear_176_42)"/>
<path fill-rule="evenodd" clip-rule="evenodd" d="M409.62 135.279C395.173 118.391 321.358 105.501 232.477 105.501V98.6074C321.908 98.6074 396.549 111.635 410.927 128.731C411.691 129.619 412.317 130.619 412.784 131.695C412.784 134.659 412.303 137.347 412.234 139.76C411.71 138.088 410.816 136.557 409.62 135.279Z" fill="url(#paint29_linear_176_42)"/>
</g>
<path d="M172.911 89H162.341V59.1818H172.998C175.998 59.1818 178.58 59.7788 180.744 60.9727C182.909 62.1568 184.573 63.8603 185.738 66.0831C186.912 68.3059 187.5 70.9654 187.5 74.0618C187.5 77.1678 186.912 79.8371 185.738 82.0696C184.573 84.3021 182.899 86.0153 180.715 87.2092C178.541 88.4031 175.939 89 172.911 89ZM168.645 83.5984H172.649C174.513 83.5984 176.08 83.2683 177.352 82.6083C178.633 81.9386 179.594 80.9048 180.234 79.5071C180.885 78.0997 181.21 76.2846 181.21 74.0618C181.21 71.8584 180.885 70.0579 180.234 68.6602C179.594 67.2624 178.638 66.2335 177.366 65.5735C176.095 64.9135 174.527 64.5835 172.663 64.5835H168.645V83.5984ZM202.158 89.4368C199.896 89.4368 197.94 88.9563 196.29 87.9954C194.65 87.0247 193.383 85.6755 192.49 83.9478C191.597 82.2103 191.151 80.1963 191.151 77.9055C191.151 75.5954 191.597 73.5765 192.49 71.8487C193.383 70.1113 194.65 68.7621 196.29 67.8011C197.94 66.8305 199.896 66.3452 202.158 66.3452C204.419 66.3452 206.37 66.8305 208.011 67.8011C209.661 68.7621 210.932 70.1113 211.825 71.8487C212.718 73.5765 213.165 75.5954 213.165 77.9055C213.165 80.1963 212.718 82.2103 211.825 83.9478C210.932 85.6755 209.661 87.0247 208.011 87.9954C206.37 88.9563 204.419 89.4368 202.158 89.4368ZM202.187 84.6321C203.216 84.6321 204.075 84.3409 204.764 83.7585C205.453 83.1664 205.972 82.3608 206.322 81.3416C206.681 80.3224 206.86 79.1625 206.86 77.8619C206.86 76.5612 206.681 75.4013 206.322 74.3821C205.972 73.3629 205.453 72.5573 204.764 71.9652C204.075 71.3731 203.216 71.0771 202.187 71.0771C201.148 71.0771 200.275 71.3731 199.566 71.9652C198.867 72.5573 198.338 73.3629 197.979 74.3821C197.63 75.4013 197.455 76.5612 197.455 77.8619C197.455 79.1625 197.63 80.3224 197.979 81.3416C198.338 82.3608 198.867 83.1664 199.566 83.7585C200.275 84.3409 201.148 84.6321 202.187 84.6321ZM223.4 76.071V89H217.198V66.6364H223.109V70.582H223.371C223.866 69.2814 224.696 68.2525 225.861 67.4954C227.026 66.7286 228.438 66.3452 230.098 66.3452C231.651 66.3452 233.005 66.6849 234.16 67.3643C235.315 68.0438 236.213 69.0144 236.853 70.2763C237.494 71.5284 237.814 73.0232 237.814 74.7607V89H231.612V75.8672C231.622 74.4986 231.272 73.4309 230.564 72.6641C229.855 71.8875 228.879 71.4993 227.637 71.4993C226.802 71.4993 226.065 71.6789 225.424 72.038C224.793 72.3971 224.298 72.9213 223.939 73.6104C223.589 74.2899 223.41 75.1101 223.4 76.071ZM249.08 89.4222C247.653 89.4222 246.381 89.1747 245.265 88.6797C244.149 88.175 243.266 87.4324 242.615 86.4521C241.975 85.462 241.654 84.2293 241.654 82.7539C241.654 81.5115 241.882 80.468 242.339 79.6236C242.795 78.7791 243.416 78.0997 244.202 77.5852C244.989 77.0708 245.882 76.6825 246.881 76.4205C247.891 76.1584 248.949 75.974 250.055 75.8672C251.356 75.7313 252.404 75.6051 253.2 75.4886C253.996 75.3625 254.574 75.178 254.933 74.9354C255.292 74.6927 255.472 74.3336 255.472 73.858V73.7706C255.472 72.8485 255.18 72.1351 254.598 71.6303C254.025 71.1256 253.21 70.8732 252.152 70.8732C251.036 70.8732 250.148 71.1207 249.487 71.6158C248.827 72.1011 248.391 72.7126 248.177 73.4503L242.441 72.9844C242.732 71.6255 243.304 70.451 244.159 69.4609C245.013 68.4612 246.114 67.6944 247.464 67.1605C248.823 66.617 250.395 66.3452 252.181 66.3452C253.423 66.3452 254.612 66.4908 255.748 66.782C256.893 67.0732 257.908 67.5245 258.791 68.136C259.684 68.7475 260.388 69.5337 260.902 70.4947C261.417 71.4459 261.674 72.5864 261.674 73.9162V89H255.792V85.8988H255.617C255.258 86.5977 254.777 87.214 254.176 87.7479C253.574 88.272 252.851 88.6845 252.006 88.9854C251.162 89.2766 250.186 89.4222 249.08 89.4222ZM250.856 85.1417C251.768 85.1417 252.574 84.9621 253.273 84.603C253.972 84.2341 254.52 83.7391 254.918 83.1179C255.316 82.4967 255.515 81.793 255.515 81.0067V78.6335C255.321 78.7597 255.054 78.8762 254.714 78.983C254.384 79.08 254.011 79.1722 253.593 79.2596C253.176 79.3372 252.759 79.41 252.341 79.478C251.924 79.5362 251.545 79.5896 251.206 79.6381C250.478 79.7449 249.842 79.9148 249.298 80.1477C248.755 80.3807 248.332 80.6961 248.032 81.0941C247.731 81.4824 247.58 81.9677 247.58 82.5501C247.58 83.3945 247.886 84.04 248.497 84.4865C249.119 84.9233 249.905 85.1417 250.856 85.1417ZM278.381 66.6364V71.2955H264.913V66.6364H278.381ZM267.971 61.2784H274.173V82.1278C274.173 82.7005 274.261 83.147 274.435 83.4673C274.61 83.7779 274.853 83.9963 275.163 84.1225C275.484 84.2487 275.853 84.3118 276.27 84.3118C276.561 84.3118 276.852 84.2875 277.144 84.239C277.435 84.1808 277.658 84.1371 277.813 84.108L278.789 88.7234C278.478 88.8204 278.041 88.9321 277.478 89.0582C276.915 89.1941 276.231 89.2766 275.426 89.3058C273.931 89.364 272.62 89.165 271.494 88.7088C270.378 88.2526 269.509 87.544 268.888 86.5831C268.267 85.6222 267.961 84.4089 267.971 82.9432V61.2784ZM292.373 89.4368C290.073 89.4368 288.092 88.9709 286.433 88.0391C284.783 87.0975 283.511 85.7678 282.618 84.0497C281.725 82.322 281.278 80.2788 281.278 77.9201C281.278 75.6197 281.725 73.6007 282.618 71.8633C283.511 70.1258 284.768 68.7718 286.389 67.8011C288.02 66.8305 289.932 66.3452 292.125 66.3452C293.601 66.3452 294.974 66.583 296.246 67.0586C297.527 67.5245 298.643 68.2282 299.595 69.1697C300.555 70.1113 301.303 71.2955 301.837 72.7223C302.371 74.1394 302.638 75.7992 302.638 77.7017V79.4052H283.754V75.5614H296.799C296.799 74.6684 296.605 73.8774 296.217 73.1882C295.828 72.4991 295.29 71.9603 294.601 71.5721C293.921 71.1741 293.13 70.9751 292.227 70.9751C291.286 70.9751 290.451 71.1935 289.723 71.6303C289.005 72.0574 288.442 72.6349 288.034 73.3629C287.627 74.0812 287.418 74.882 287.408 75.7653V79.4197C287.408 80.5263 287.612 81.4824 288.02 82.288C288.437 83.0936 289.024 83.7148 289.781 84.1516C290.538 84.5884 291.436 84.8068 292.475 84.8068C293.164 84.8068 293.795 84.7098 294.368 84.5156C294.94 84.3215 295.43 84.0303 295.838 83.642C296.246 83.2538 296.556 82.7782 296.77 82.2152L302.506 82.5938C302.215 83.9721 301.618 85.1757 300.716 86.2045C299.823 87.2237 298.668 88.0196 297.25 88.5923C295.843 89.1553 294.217 89.4368 292.373 89.4368Z" fill="white"/>
<path d="M172.911 89H162.341V59.1818H172.998C175.998 59.1818 178.58 59.7788 180.744 60.9727C182.909 62.1568 184.573 63.8603 185.738 66.0831C186.912 68.3059 187.5 70.9654 187.5 74.0618C187.5 77.1678 186.912 79.8371 185.738 82.0696C184.573 84.3021 182.899 86.0153 180.715 87.2092C178.541 88.4031 175.939 89 172.911 89ZM168.645 83.5984H172.649C174.513 83.5984 176.08 83.2683 177.352 82.6083C178.633 81.9386 179.594 80.9048 180.234 79.5071C180.885 78.0997 181.21 76.2846 181.21 74.0618C181.21 71.8584 180.885 70.0579 180.234 68.6602C179.594 67.2624 178.638 66.2335 177.366 65.5735C176.095 64.9135 174.527 64.5835 172.663 64.5835H168.645V83.5984ZM202.158 89.4368C199.896 89.4368 197.94 88.9563 196.29 87.9954C194.65 87.0247 193.383 85.6755 192.49 83.9478C191.597 82.2103 191.151 80.1963 191.151 77.9055C191.151 75.5954 191.597 73.5765 192.49 71.8487C193.383 70.1113 194.65 68.7621 196.29 67.8011C197.94 66.8305 199.896 66.3452 202.158 66.3452C204.419 66.3452 206.37 66.8305 208.011 67.8011C209.661 68.7621 210.932 70.1113 211.825 71.8487C212.718 73.5765 213.165 75.5954 213.165 77.9055C213.165 80.1963 212.718 82.2103 211.825 83.9478C210.932 85.6755 209.661 87.0247 208.011 87.9954C206.37 88.9563 204.419 89.4368 202.158 89.4368ZM202.187 84.6321C203.216 84.6321 204.075 84.3409 204.764 83.7585C205.453 83.1664 205.972 82.3608 206.322 81.3416C206.681 80.3224 206.86 79.1625 206.86 77.8619C206.86 76.5612 206.681 75.4013 206.322 74.3821C205.972 73.3629 205.453 72.5573 204.764 71.9652C204.075 71.3731 203.216 71.0771 202.187 71.0771C201.148 71.0771 200.275 71.3731 199.566 71.9652C198.867 72.5573 198.338 73.3629 197.979 74.3821C197.63 75.4013 197.455 76.5612 197.455 77.8619C197.455 79.1625 197.63 80.3224 197.979 81.3416C198.338 82.3608 198.867 83.1664 199.566 83.7585C200.275 84.3409 201.148 84.6321 202.187 84.6321ZM223.4 76.071V89H217.198V66.6364H223.109V70.582H223.371C223.866 69.2814 224.696 68.2525 225.861 67.4954C227.026 66.7286 228.438 66.3452 230.098 66.3452C231.651 66.3452 233.005 66.6849 234.16 67.3643C235.315 68.0438 236.213 69.0144 236.853 70.2763C237.494 71.5284 237.814 73.0232 237.814 74.7607V89H231.612V75.8672C231.622 74.4986 231.272 73.4309 230.564 72.6641C229.855 71.8875 228.879 71.4993 227.637 71.4993C226.802 71.4993 226.065 71.6789 225.424 72.038C224.793 72.3971 224.298 72.9213 223.939 73.6104C223.589 74.2899 223.41 75.1101 223.4 76.071ZM249.08 89.4222C247.653 89.4222 246.381 89.1747 245.265 88.6797C244.149 88.175 243.266 87.4324 242.615 86.4521C241.975 85.462 241.654 84.2293 241.654 82.7539C241.654 81.5115 241.882 80.468 242.339 79.6236C242.795 78.7791 243.416 78.0997 244.202 77.5852C244.989 77.0708 245.882 76.6825 246.881 76.4205C247.891 76.1584 248.949 75.974 250.055 75.8672C251.356 75.7313 252.404 75.6051 253.2 75.4886C253.996 75.3625 254.574 75.178 254.933 74.9354C255.292 74.6927 255.472 74.3336 255.472 73.858V73.7706C255.472 72.8485 255.18 72.1351 254.598 71.6303C254.025 71.1256 253.21 70.8732 252.152 70.8732C251.036 70.8732 250.148 71.1207 249.487 71.6158C248.827 72.1011 248.391 72.7126 248.177 73.4503L242.441 72.9844C242.732 71.6255 243.304 70.451 244.159 69.4609C245.013 68.4612 246.114 67.6944 247.464 67.1605C248.823 66.617 250.395 66.3452 252.181 66.3452C253.423 66.3452 254.612 66.4908 255.748 66.782C256.893 67.0732 257.908 67.5245 258.791 68.136C259.684 68.7475 260.388 69.5337 260.902 70.4947C261.417 71.4459 261.674 72.5864 261.674 73.9162V89H255.792V85.8988H255.617C255.258 86.5977 254.777 87.214 254.176 87.7479C253.574 88.272 252.851 88.6845 252.006 88.9854C251.162 89.2766 250.186 89.4222 249.08 89.4222ZM250.856 85.1417C251.768 85.1417 252.574 84.9621 253.273 84.603C253.972 84.2341 254.52 83.7391 254.918 83.1179C255.316 82.4967 255.515 81.793 255.515 81.0067V78.6335C255.321 78.7597 255.054 78.8762 254.714 78.983C254.384 79.08 254.011 79.1722 253.593 79.2596C253.176 79.3372 252.759 79.41 252.341 79.478C251.924 79.5362 251.545 79.5896 251.206 79.6381C250.478 79.7449 249.842 79.9148 249.298 80.1477C248.755 80.3807 248.332 80.6961 248.032 81.0941C247.731 81.4824 247.58 81.9677 247.58 82.5501C247.58 83.3945 247.886 84.04 248.497 84.4865C249.119 84.9233 249.905 85.1417 250.856 85.1417ZM278.381 66.6364V71.2955H264.913V66.6364H278.381ZM267.971 61.2784H274.173V82.1278C274.173 82.7005 274.261 83.147 274.435 83.4673C274.61 83.7779 274.853 83.9963 275.163 84.1225C275.484 84.2487 275.853 84.3118 276.27 84.3118C276.561 84.3118 276.852 84.2875 277.144 84.239C277.435 84.1808 277.658 84.1371 277.813 84.108L278.789 88.7234C278.478 88.8204 278.041 88.9321 277.478 89.0582C276.915 89.1941 276.231 89.2766 275.426 89.3058C273.931 89.364 272.62 89.165 271.494 88.7088C270.378 88.2526 269.509 87.544 268.888 86.5831C268.267 85.6222 267.961 84.4089 267.971 82.9432V61.2784ZM292.373 89.4368C290.073 89.4368 288.092 88.9709 286.433 88.0391C284.783 87.0975 283.511 85.7678 282.618 84.0497C281.725 82.322 281.278 80.2788 281.278 77.9201C281.278 75.6197 281.725 73.6007 282.618 71.8633C283.511 70.1258 284.768 68.7718 286.389 67.8011C288.02 66.8305 289.932 66.3452 292.125 66.3452C293.601 66.3452 294.974 66.583 296.246 67.0586C297.527 67.5245 298.643 68.2282 299.595 69.1697C300.555 70.1113 301.303 71.2955 301.837 72.7223C302.371 74.1394 302.638 75.7992 302.638 77.7017V79.4052H283.754V75.5614H296.799C296.799 74.6684 296.605 73.8774 296.217 73.1882C295.828 72.4991 295.29 71.9603 294.601 71.5721C293.921 71.1741 293.13 70.9751 292.227 70.9751C291.286 70.9751 290.451 71.1935 289.723 71.6303C289.005 72.0574 288.442 72.6349 288.034 73.3629C287.627 74.0812 287.418 74.882 287.408 75.7653V79.4197C287.408 80.5263 287.612 81.4824 288.02 82.288C288.437 83.0936 289.024 83.7148 289.781 84.1516C290.538 84.5884 291.436 84.8068 292.475 84.8068C293.164 84.8068 293.795 84.7098 294.368 84.5156C294.94 84.3215 295.43 84.0303 295.838 83.642C296.246 83.2538 296.556 82.7782 296.77 82.2152L302.506 82.5938C302.215 83.9721 301.618 85.1757 300.716 86.2045C299.823 87.2237 298.668 88.0196 297.25 88.5923C295.843 89.1553 294.217 89.4368 292.373 89.4368Z" fill="white"/>
<g clip-path="url(#clip3_176_42)">
<g style="mix-blend-mode:multiply" opacity="0.2">
<path fill-rule="evenodd" clip-rule="evenodd" d="M155.874 534.26C173.34 534.755 195.008 535.002 231.836 535.002C268.663 535.002 290.578 535.002 308.044 534.26C313.109 534.498 318.17 533.706 322.92 531.931C327.67 530.156 332.011 527.437 335.679 523.936C339.348 520.436 342.268 516.227 344.264 511.565C346.259 506.904 347.288 501.886 347.288 496.815C347.288 491.744 346.259 486.726 344.264 482.065C342.268 477.403 339.348 473.195 335.679 469.694C332.011 466.194 327.67 463.474 322.92 461.699C318.17 459.925 313.109 459.132 308.044 459.37C290.578 458.876 268.663 458.628 231.836 458.628C195.008 458.628 173.34 458.628 155.874 459.37C150.809 459.132 145.748 459.925 140.998 461.699C136.248 463.474 131.908 466.194 128.239 469.694C124.57 473.195 121.65 477.403 119.655 482.065C117.66 486.726 116.631 491.744 116.631 496.815C116.631 501.886 117.66 506.904 119.655 511.565C121.65 516.227 124.57 520.436 128.239 523.936C131.908 527.437 136.248 530.156 140.998 531.931C145.748 533.706 150.809 534.498 155.874 534.26Z" fill="#33233D"/>
</g>
<path fill-rule="evenodd" clip-rule="evenodd" d="M155.874 530.469C173.34 530.469 195.008 531.21 231.836 531.21C268.663 531.21 290.578 531.21 308.044 530.469C317.986 530.469 327.521 526.519 334.551 519.489C341.581 512.459 345.531 502.924 345.531 492.982C345.531 483.04 341.581 473.505 334.551 466.475C327.521 459.445 317.986 455.496 308.044 455.496C290.578 455.496 268.663 454.754 231.836 454.754C195.008 454.754 173.34 454.754 155.874 455.496C145.932 455.496 136.397 459.445 129.367 466.475C122.337 473.505 118.388 483.04 118.388 492.982C118.388 502.924 122.337 512.459 129.367 519.489C136.397 526.519 145.932 530.469 155.874 530.469Z" fill="url(#paint30_linear_176_42)"/>
<path style="mix-blend-mode:screen" fill-rule="evenodd" clip-rule="evenodd" d="M231.753 528.326C203.742 528.326 171.693 529.892 145.494 520.088C142.873 519.109 140.426 517.719 138.243 515.968C135.366 513.688 132.936 510.895 131.076 507.73C130.031 505.91 129.201 503.974 128.604 501.962C127.796 499.29 127.379 496.515 127.368 493.724C127.014 492.81 126.391 492.025 125.583 491.472C124.774 490.918 123.817 490.622 122.837 490.622C121.857 490.622 120.9 490.918 120.091 491.472C119.283 492.025 118.66 492.81 118.306 493.724C118.306 503.666 122.255 513.2 129.285 520.231C136.315 527.261 145.85 531.21 155.792 531.21C173.258 531.704 194.926 531.952 231.753 531.952C268.581 531.952 290.496 531.952 307.962 531.21C317.904 531.21 327.439 527.261 334.469 520.231C341.499 513.2 345.449 503.666 345.449 493.724C345.094 492.81 344.471 492.025 343.663 491.472C342.854 490.918 341.897 490.622 340.917 490.622C339.937 490.622 338.98 490.918 338.172 491.472C337.363 492.025 336.741 492.81 336.386 493.724C336.375 496.515 335.959 499.29 335.15 501.962C334.482 503.948 333.655 505.876 332.678 507.73C330.818 510.895 328.388 513.688 325.511 515.968C323.306 517.685 320.864 519.073 318.261 520.088C292.061 530.304 259.765 528.326 231.753 528.326Z" fill="url(#paint31_radial_176_42)"/>
<path fill-rule="evenodd" clip-rule="evenodd" d="M155.874 529.562C167.903 529.562 179.849 529.562 191.878 530.139H231.836H272.041C283.987 530.139 296.016 530.139 307.962 529.562C317.663 529.562 326.968 525.708 333.828 518.848C340.688 511.988 344.542 502.684 344.542 492.982C344.542 483.281 340.688 473.976 333.828 467.116C326.968 460.256 317.663 456.402 307.962 456.402C296.016 456.402 283.987 456.402 272.041 455.908C255.563 455.908 248.643 455.908 231.836 455.908C215.028 455.908 208.685 455.908 191.878 455.908C179.849 455.908 167.903 455.908 155.874 456.402C146.172 456.402 136.868 460.256 130.008 467.116C123.148 473.976 119.294 483.281 119.294 492.982C119.294 502.684 123.148 511.988 130.008 518.848C136.868 525.708 146.172 529.562 155.874 529.562ZM155.874 530.469C173.34 530.469 195.008 531.21 231.836 531.21C268.663 531.21 290.578 531.21 308.044 530.469C317.986 530.469 327.521 526.519 334.551 519.489C341.581 512.459 345.531 502.924 345.531 492.982C345.531 483.04 341.581 473.505 334.551 466.475C327.521 459.445 317.986 455.496 308.044 455.496C290.578 455.496 268.663 454.754 231.836 454.754C195.008 454.754 173.34 454.754 155.874 455.496C145.932 455.496 136.397 459.445 129.367 466.475C122.337 473.505 118.388 483.04 118.388 492.982C118.388 502.924 122.337 512.459 129.367 519.489C136.397 526.519 145.932 530.469 155.874 530.469Z" fill="url(#paint32_linear_176_42)"/>
<path d="M231.753 457.886C200.776 457.886 171.693 457.886 155.957 458.545C152.967 458.818 150.013 459.398 147.141 460.275C144.323 460.982 141.568 461.919 138.902 463.076C136.458 464.854 134.17 466.839 132.064 469.008C129.916 471.051 127.958 473.284 126.215 475.681C124.978 478.332 123.985 481.09 123.249 483.92C122.421 486.776 121.842 489.698 121.519 492.653C121.824 495.666 122.403 498.644 123.249 501.551C123.94 504.384 124.906 507.144 126.132 509.79C127.861 512.274 129.849 514.566 132.064 516.628C135.783 521.421 141.219 524.581 147.223 525.444C150.079 526.271 153.001 526.85 155.957 527.174C171.775 527.174 200.858 527.833 231.836 527.833C262.813 527.833 291.896 527.833 307.715 527.174C310.671 526.858 313.594 526.279 316.448 525.444C319.283 524.758 322.043 523.792 324.687 522.56C327.171 520.832 329.463 518.843 331.525 516.628C333.671 514.583 335.628 512.35 337.374 509.955C338.595 507.298 339.587 504.541 340.34 501.716C341.128 498.851 341.706 495.932 342.07 492.983C341.724 489.977 341.146 487.002 340.34 484.085C339.612 481.263 338.648 478.507 337.457 475.846C335.708 473.353 333.721 471.035 331.525 468.926C329.482 466.803 327.248 464.872 324.851 463.158C319.351 460.82 313.558 459.24 307.632 458.462C291.732 458.462 262.731 457.803 231.671 457.803L231.753 457.886Z" fill="url(#paint33_linear_176_42)"/>
<path fill-rule="evenodd" clip-rule="evenodd" d="M156.122 460.191C153.34 460.546 150.587 461.097 147.883 461.839C145.058 462.522 142.3 463.459 139.644 464.64C137.325 466.295 135.173 468.171 133.218 470.242C131.169 472.219 129.294 474.369 127.616 476.669C125.323 481.905 123.85 487.462 123.249 493.146C123.527 495.933 124.051 498.69 124.814 501.385C125.497 504.21 126.435 506.968 127.616 509.624C129.6 513.467 132.448 516.799 135.936 519.357C139.423 521.916 143.456 523.632 147.718 524.371C150.403 525.193 153.163 525.745 155.957 526.019C171.281 526.019 199.458 526.678 231.754 526.678C264.05 526.678 292.309 526.678 307.633 526.019C310.427 525.745 313.187 525.193 315.871 524.371C324.035 521.846 331.114 516.652 335.974 509.624C337.12 506.962 338.03 504.206 338.693 501.385C339.514 498.7 340.066 495.94 340.341 493.146C340.055 490.354 339.504 487.595 338.693 484.907C338.022 482.089 337.113 479.333 335.974 476.669C334.356 474.522 332.565 472.51 330.619 470.654C328.664 468.583 326.511 466.707 324.193 465.052C321.537 463.871 318.779 462.934 315.954 462.251C313.25 461.509 310.497 460.958 307.715 460.603C292.391 460.603 264.132 459.944 231.836 459.944C199.54 459.944 171.363 459.944 156.039 460.603L156.122 460.191Z" fill="#8E37E2"/>
<path fill-rule="evenodd" clip-rule="evenodd" d="M307.385 517.946V526.185C310.179 525.91 312.939 525.359 315.624 524.537C318.445 523.874 321.201 522.964 323.863 521.818L319.908 514.98C317.886 515.751 315.823 516.411 313.729 516.957C311.552 517.61 309.317 518.051 307.056 518.276L307.385 517.946Z" fill="url(#paint34_radial_176_42)"/>
<path fill-rule="evenodd" clip-rule="evenodd" d="M320.237 514.651L324.192 521.49C328.732 518.048 332.779 514.001 336.221 509.461L329.3 505.506C328.002 507.211 326.569 508.809 325.016 510.285C323.501 511.823 321.906 513.281 320.237 514.651Z" fill="url(#paint35_radial_176_42)"/>
<path fill-rule="evenodd" clip-rule="evenodd" d="M329.3 505.506L336.221 509.461C337.367 506.8 338.277 504.043 338.94 501.222C339.761 498.537 340.313 495.778 340.587 492.983H332.349C332.018 495.099 331.55 497.19 330.948 499.245C330.452 501.353 329.791 503.419 328.971 505.424L329.3 505.506Z" fill="url(#paint36_radial_176_42)"/>
<path fill-rule="evenodd" clip-rule="evenodd" d="M332.678 493.063H340.917C340.632 490.271 340.08 487.512 339.269 484.825C338.599 482.006 337.689 479.25 336.55 476.586L329.63 480.541C330.437 482.522 331.098 484.559 331.607 486.637C332.2 488.722 332.668 490.84 333.008 492.981L332.678 493.063Z" fill="url(#paint37_radial_176_42)"/>
<path fill-rule="evenodd" clip-rule="evenodd" d="M329.3 480.624L336.221 476.669C334.523 474.513 332.649 472.501 330.618 470.655C328.663 468.584 326.511 466.707 324.192 465.053L320.237 471.891C323.554 474.631 326.59 477.695 329.3 481.036V480.624Z" fill="url(#paint38_radial_176_42)"/>
<path fill-rule="evenodd" clip-rule="evenodd" d="M320.238 471.48L324.192 464.642C321.536 463.461 318.779 462.524 315.954 461.841C313.249 461.099 310.496 460.548 307.715 460.193V468.432C309.972 468.724 312.204 469.192 314.388 469.832C316.493 470.341 318.558 471.002 320.567 471.81L320.238 471.48Z" fill="url(#paint39_radial_176_42)"/>
<path fill-rule="evenodd" clip-rule="evenodd" d="M143.68 471.479C141.955 472.782 140.355 474.244 138.902 475.845C137.344 477.341 135.885 478.937 134.535 480.624C133.82 482.748 133.269 484.924 132.888 487.132C132.275 489.207 131.834 491.329 131.569 493.476C131.834 495.596 132.275 497.691 132.888 499.738C133.383 501.846 134.044 503.912 134.865 505.917C137.632 509.234 140.693 512.294 144.01 515.062C146.028 515.844 148.091 516.505 150.189 517.039C152.366 517.691 154.601 518.133 156.862 518.357C167.243 518.357 177.624 518.769 188.087 518.852C202.835 518.852 217.5 518.852 232.247 518.852C246.995 518.852 261.742 518.852 276.489 518.852C286.87 518.852 297.333 518.852 307.714 518.357C309.976 518.133 312.211 517.691 314.388 517.039C316.482 516.493 318.544 515.832 320.567 515.062C322.235 513.691 323.83 512.234 325.345 510.695C326.899 509.219 328.331 507.621 329.629 505.917C330.45 503.912 331.111 501.846 331.607 499.738C332.209 497.683 332.677 495.591 333.007 493.476C332.676 491.334 332.208 489.215 331.607 487.132C331.098 485.054 330.437 483.017 329.629 481.036C326.919 477.694 323.884 474.631 320.567 471.891C318.558 471.083 316.492 470.422 314.388 469.913C312.203 469.273 309.972 468.805 307.714 468.513C297.333 468.513 286.87 468.513 276.489 468.513C261.742 468.513 246.995 468.513 232.247 468.513C217.5 468.513 202.835 468.513 188.087 468.513C177.624 468.513 167.243 468.513 156.862 468.513C154.605 468.805 152.373 469.273 150.189 469.913C148.081 470.409 146.014 471.07 144.01 471.891L143.68 471.479Z" fill="url(#paint40_radial_176_42)"/>
<path fill-rule="evenodd" clip-rule="evenodd" d="M156.533 468.103L156.121 459.864C153.34 460.219 150.586 460.77 147.882 461.511C145.057 462.194 142.3 463.132 139.644 464.313L143.598 471.151C145.603 470.33 147.669 469.669 149.777 469.174C151.962 468.533 154.193 468.065 156.451 467.773L156.533 468.103Z" fill="url(#paint41_radial_176_42)"/>
<path fill-rule="evenodd" clip-rule="evenodd" d="M143.68 471.48L139.726 464.642C137.407 466.297 135.255 468.173 133.3 470.244C131.251 472.221 129.376 474.371 127.697 476.671L134.535 480.625C135.885 478.939 137.344 477.343 138.902 475.847C140.355 474.245 141.955 472.783 143.68 471.48Z" fill="url(#paint42_radial_176_42)"/>
<path fill-rule="evenodd" clip-rule="evenodd" d="M134.536 480.625L127.698 476.671C125.405 481.907 123.932 487.464 123.331 493.148H131.57C131.852 491.112 132.292 489.101 132.888 487.134C133.397 485.056 134.058 483.019 134.865 481.037L134.536 480.625Z" fill="url(#paint43_radial_176_42)"/>
<path fill-rule="evenodd" clip-rule="evenodd" d="M131.241 493.064H123.002C123.28 495.851 123.804 498.608 124.567 501.303C125.25 504.128 126.188 506.885 127.368 509.542L134.207 505.587C133.386 503.582 132.725 501.516 132.229 499.408C131.616 497.361 131.176 495.267 130.911 493.146L131.241 493.064Z" fill="url(#paint44_radial_176_42)"/>
<path fill-rule="evenodd" clip-rule="evenodd" d="M134.535 505.506L127.697 509.461C131.139 514.001 135.186 518.048 139.726 521.49L143.68 514.651C140.364 511.884 137.303 508.823 134.535 505.506Z" fill="url(#paint45_radial_176_42)"/>
<path fill-rule="evenodd" clip-rule="evenodd" d="M143.681 514.65L139.727 521.488C142.388 522.634 145.145 523.544 147.965 524.207C150.65 525.029 153.41 525.581 156.204 525.855L156.616 517.616C154.354 517.392 152.12 516.951 149.943 516.298C147.845 515.764 145.782 515.103 143.764 514.321L143.681 514.65Z" fill="url(#paint46_radial_176_42)"/>
<path fill-rule="evenodd" clip-rule="evenodd" d="M156.533 468.102C166.914 468.102 177.295 468.102 187.758 468.102C202.505 468.102 217.17 468.102 231.918 468.102C246.665 468.102 261.412 468.102 276.16 468.102C286.541 468.102 297.004 468.102 307.385 468.102V459.863C292.061 459.863 263.802 459.204 231.506 459.204C199.21 459.204 171.033 459.204 155.709 459.863L156.121 468.102H156.533Z" fill="url(#paint47_radial_176_42)"/>
<path fill-rule="evenodd" clip-rule="evenodd" d="M187.758 518.439C177.295 518.439 166.914 518.439 156.533 517.945L156.121 526.184C171.445 526.184 199.622 526.843 231.918 526.843C264.214 526.843 292.473 526.843 307.797 526.184V517.945C297.416 517.945 286.953 518.357 276.572 518.439C261.825 518.439 247.077 518.439 232.33 518.439C217.582 518.439 202.917 518.439 188.17 518.439H187.758Z" fill="url(#paint48_radial_176_42)"/>
<path style="mix-blend-mode:screen" opacity="0.35" fill-rule="evenodd" clip-rule="evenodd" d="M231.754 524.042C190.56 524.042 156.369 521.323 156.369 517.945L155.957 526.184C171.281 526.184 199.458 526.843 231.754 526.843C264.05 526.843 292.309 526.843 307.633 526.184V517.945C307.633 521.323 273.854 524.042 232.166 524.042H231.754Z" fill="url(#paint49_radial_176_42)"/>
<path style="mix-blend-mode:screen" fill-rule="evenodd" clip-rule="evenodd" d="M139.726 464.642C140.456 466.325 140.663 468.189 140.32 469.991C139.977 471.793 139.1 473.45 137.802 474.747C136.505 476.044 134.848 476.921 133.046 477.264C131.244 477.607 129.38 477.401 127.697 476.671L134.535 480.625C135.885 478.939 137.344 477.343 138.902 475.847C140.355 474.245 141.955 472.783 143.68 471.48L139.726 464.642Z" fill="url(#paint50_radial_176_42)"/>
<path style="mix-blend-mode:screen" fill-rule="evenodd" clip-rule="evenodd" d="M127.698 476.671C129.187 477.756 130.313 479.266 130.929 481.003C131.545 482.74 131.622 484.622 131.15 486.403C130.678 488.184 129.679 489.781 128.284 490.985C126.889 492.189 125.162 492.943 123.331 493.148H131.57C131.852 491.112 132.292 489.101 132.888 487.134C133.397 485.056 134.058 483.019 134.865 481.037L128.027 477.083L127.698 476.671Z" fill="url(#paint51_radial_176_42)"/>
<path style="mix-blend-mode:screen" fill-rule="evenodd" clip-rule="evenodd" d="M123.331 493.064C131.57 493.064 136.266 504.516 129.757 508.306L134.536 505.505C133.715 503.5 133.054 501.434 132.559 499.325C131.946 497.279 131.505 495.184 131.24 493.064H123.331Z" fill="url(#paint52_radial_176_42)"/>
<path style="mix-blend-mode:screen" fill-rule="evenodd" clip-rule="evenodd" d="M324.192 521.49C323.462 519.807 323.255 517.943 323.598 516.141C323.941 514.339 324.818 512.682 326.115 511.384C327.413 510.087 329.07 509.21 330.872 508.867C332.674 508.524 334.538 508.731 336.221 509.461L329.3 505.506C328.002 507.211 326.569 508.809 325.016 510.285C323.501 511.823 321.906 513.281 320.237 514.651L324.192 521.49Z" fill="url(#paint53_radial_176_42)"/>
<path style="mix-blend-mode:screen" fill-rule="evenodd" clip-rule="evenodd" d="M336.221 509.461C334.732 508.375 333.606 506.865 332.989 505.129C332.373 503.392 332.296 501.51 332.768 499.729C333.24 497.948 334.239 496.35 335.635 495.147C337.03 493.943 338.756 493.189 340.587 492.983H332.349C332.018 495.099 331.55 497.19 330.948 499.245C330.452 501.353 329.791 503.419 328.971 505.424L335.891 509.379L336.221 509.461Z" fill="url(#paint54_radial_176_42)"/>
<path style="mix-blend-mode:screen" fill-rule="evenodd" clip-rule="evenodd" d="M340.587 493.063C332.348 493.063 327.57 481.611 334.161 477.821L329.3 480.622C330.107 482.604 330.768 484.641 331.277 486.719C331.879 488.802 332.347 490.921 332.678 493.063H340.587Z" fill="url(#paint55_radial_176_42)"/>
<g style="mix-blend-mode:screen">
<path fill-rule="evenodd" clip-rule="evenodd" d="M128.851 477.33L133.218 480.79V481.449C132.053 484.955 131.118 488.533 130.416 492.159H129.922L126.05 492.654H129.84H130.416C130.993 494.713 131.817 496.773 132.558 498.833V498.174C131.946 496.127 131.505 494.032 131.24 491.912C131.687 490.286 132.237 488.69 132.888 487.134C133.397 485.056 134.058 483.018 134.865 481.037C136.215 479.351 137.673 477.754 139.232 476.259C140.685 474.657 142.285 473.195 144.01 471.892C146.015 471.072 148.081 470.41 150.189 469.915C152.374 469.274 154.605 468.806 156.863 468.514C167.244 468.514 177.624 468.514 188.088 468.514C202.835 468.514 217.5 468.514 232.248 468.514C246.995 468.514 261.742 468.514 276.49 468.514C286.871 468.514 297.334 468.514 307.715 468.514C309.972 468.806 312.204 469.274 314.388 469.915L317.107 470.656C314.141 469.668 311.175 468.761 308.044 468.02C308.044 466.866 308.044 465.713 308.044 464.56L307.55 468.102C257.623 467.526 207.614 466.702 157.934 468.102L157.11 462.417V468.102V468.597C152.835 468.96 148.593 469.649 144.422 470.656H143.763L139.891 465.219L142.61 471.398V472.057C139.891 474.446 137.337 477 134.865 479.554H134.289L129.016 477.494L128.851 477.33Z" fill="#AC73EF"/>
</g>
<g style="mix-blend-mode:screen">
<path fill-rule="evenodd" clip-rule="evenodd" d="M306.561 519.18L307.715 524.124V519.098V518.604C311.483 517.79 315.197 516.745 318.837 515.473H319.414C320.649 517.203 321.885 519.016 323.203 520.746C322.215 518.851 321.308 516.873 320.402 514.978V514.319C323.203 511.765 325.922 509.047 328.641 506.081H329.218L333.255 507.893L329.794 505.504V504.927C330.523 502.215 331.1 499.465 331.525 496.688C331.364 497.554 331.143 498.407 330.865 499.242C330.37 501.351 329.709 503.417 328.888 505.422C327.59 507.126 326.157 508.724 324.604 510.2C323.089 511.739 321.494 513.196 319.826 514.567C317.803 515.337 315.74 515.997 313.646 516.544C311.469 517.196 309.235 517.638 306.973 517.862C296.592 517.862 286.129 518.274 275.748 518.356H236.696C259.682 518.851 283.081 518.356 305.737 518.356L306.561 519.18Z" fill="#AC73EF"/>
</g>
<path style="mix-blend-mode:screen" fill-rule="evenodd" clip-rule="evenodd" d="M307.797 460.193C292.473 460.193 264.214 459.534 231.918 459.534C199.622 459.534 171.445 459.534 156.121 460.193C156.121 460.77 190.065 461.181 232 461.181C273.935 461.181 306.149 461.181 307.797 460.275V460.193Z" fill="url(#paint56_radial_176_42)"/>
<g opacity="0.35">
<path style="mix-blend-mode:screen" opacity="0.65" fill-rule="evenodd" clip-rule="evenodd" d="M134.536 480.624L231.753 493.064L156.369 468.348C154.111 468.64 151.88 469.108 149.695 469.749C147.587 470.244 145.521 470.905 143.516 471.726C141.79 473.029 140.191 474.491 138.738 476.093C137.179 477.588 135.721 479.185 134.371 480.871L134.536 480.624Z" fill="url(#paint57_radial_176_42)"/>
<path style="mix-blend-mode:screen" opacity="0.35" fill-rule="evenodd" clip-rule="evenodd" d="M156.533 468.102L231.918 492.818L187.758 467.443C177.295 467.443 166.914 467.443 156.533 467.443V468.102Z" fill="url(#paint58_radial_176_42)"/>
<path style="mix-blend-mode:screen" opacity="0.35" fill-rule="evenodd" clip-rule="evenodd" d="M187.759 467.69L231.754 493.065L217.583 476.588L209.344 467.443H187.347L187.759 467.69Z" fill="url(#paint59_radial_176_42)"/>
<path style="mix-blend-mode:screen" opacity="0.35" fill-rule="evenodd" clip-rule="evenodd" d="M217.747 476.671L231.918 493.148V467.608H209.756L217.995 476.753L217.747 476.671Z" fill="url(#paint60_radial_176_42)"/>
<path style="mix-blend-mode:screen" opacity="0.65" fill-rule="evenodd" clip-rule="evenodd" d="M231.753 493.066L134.535 480.625C133.82 482.75 133.269 484.926 132.888 487.134C132.275 489.209 131.834 491.331 131.569 493.478L231.753 493.066Z" fill="url(#paint61_radial_176_42)"/>
<path style="mix-blend-mode:screen" opacity="0.35" fill-rule="evenodd" clip-rule="evenodd" d="M134.536 505.505L231.753 493.064L156.369 517.781C154.107 517.556 151.872 517.115 149.695 516.463C147.598 515.928 145.534 515.268 143.516 514.485C140.199 511.718 137.139 508.657 134.371 505.34L134.536 505.505Z" fill="url(#paint62_radial_176_42)"/>
<path style="mix-blend-mode:multiply" opacity="0.5" fill-rule="evenodd" clip-rule="evenodd" d="M156.533 517.946L231.918 493.229L187.758 518.605C177.295 518.605 166.914 518.605 156.533 518.111V517.946Z" fill="url(#paint63_radial_176_42)"/>
<path style="mix-blend-mode:screen" opacity="0.35" fill-rule="evenodd" clip-rule="evenodd" d="M187.759 518.44L231.754 493.064L217.583 509.542L209.344 518.769H187.347L187.759 518.44Z" fill="url(#paint64_radial_176_42)"/>
<path style="mix-blend-mode:screen" opacity="0.65" fill-rule="evenodd" clip-rule="evenodd" d="M217.747 509.377L231.918 492.899V518.44H209.756L217.995 509.212L217.747 509.377Z" fill="url(#paint65_radial_176_42)"/>
<path style="mix-blend-mode:screen" opacity="0.65" fill-rule="evenodd" clip-rule="evenodd" d="M231.753 493.064L134.536 505.505C133.715 503.501 133.054 501.434 132.558 499.326C131.946 497.279 131.505 495.185 131.24 493.064H231.753Z" fill="url(#paint66_radial_176_42)"/>
<path style="mix-blend-mode:screen" opacity="0.35" fill-rule="evenodd" clip-rule="evenodd" d="M329.3 480.624L231.753 493.064L307.22 468.348C309.478 468.64 311.709 469.108 313.893 469.749C315.998 470.257 318.063 470.918 320.073 471.726C323.389 474.466 326.425 477.53 329.135 480.871L329.3 480.624Z" fill="url(#paint67_radial_176_42)"/>
<path style="mix-blend-mode:screen" opacity="0.65" fill-rule="evenodd" clip-rule="evenodd" d="M307.385 468.102L231.918 492.818L276.16 467.443C286.541 467.443 297.004 467.443 307.385 467.443V468.102Z" fill="url(#paint68_radial_176_42)"/>
<path style="mix-blend-mode:multiply" opacity="0.5" fill-rule="evenodd" clip-rule="evenodd" d="M276.16 467.69L231.753 493.065L246.006 476.588L254.245 467.443H276.242L276.16 467.69Z" fill="url(#paint69_radial_176_42)"/>
<path style="mix-blend-mode:screen" opacity="0.35" fill-rule="evenodd" clip-rule="evenodd" d="M246.171 476.671L231.918 493.148V467.608H254.163L245.924 476.753L246.171 476.671Z" fill="url(#paint70_radial_176_42)"/>
<path style="mix-blend-mode:screen" opacity="0.65" fill-rule="evenodd" clip-rule="evenodd" d="M231.753 493.066L329.135 480.625C329.942 482.607 330.603 484.644 331.112 486.722C331.714 488.805 332.182 490.924 332.513 493.066H231.753Z" fill="url(#paint71_radial_176_42)"/>
<path style="mix-blend-mode:multiply" opacity="0.35" fill-rule="evenodd" clip-rule="evenodd" d="M329.3 505.505L231.753 493.064L307.22 517.781C309.482 517.556 311.716 517.115 313.893 516.463C315.988 515.916 318.05 515.256 320.073 514.485C321.741 513.115 323.336 511.657 324.851 510.119C326.404 508.643 327.837 507.045 329.135 505.34L329.3 505.505Z" fill="url(#paint72_radial_176_42)"/>
<path style="mix-blend-mode:screen" opacity="0.35" fill-rule="evenodd" clip-rule="evenodd" d="M307.385 517.946L231.918 493.229L276.16 518.605C286.541 518.605 297.004 518.605 307.385 518.111V517.946Z" fill="url(#paint73_radial_176_42)"/>
<path style="mix-blend-mode:screen" opacity="0.35" fill-rule="evenodd" clip-rule="evenodd" d="M276.16 518.44L231.753 493.064L246.006 509.542L254.245 518.769H276.242L276.16 518.44Z" fill="url(#paint74_radial_176_42)"/>
<path style="mix-blend-mode:screen" opacity="0.35" fill-rule="evenodd" clip-rule="evenodd" d="M246.171 509.377L231.918 492.899V518.44H254.163L245.924 509.212L246.171 509.377Z" fill="url(#paint75_radial_176_42)"/>
<path style="mix-blend-mode:screen" opacity="0.35" fill-rule="evenodd" clip-rule="evenodd" d="M231.753 493.064L329.135 505.505C329.956 503.501 330.617 501.434 331.112 499.326C331.714 497.271 332.182 495.18 332.513 493.064H231.753Z" fill="url(#paint76_radial_176_42)"/>
</g>
<path style="mix-blend-mode:screen" opacity="0.65" fill-rule="evenodd" clip-rule="evenodd" d="M159.911 468.019L131.734 496.113C131.734 497.266 132.311 498.42 132.558 499.326C133.054 501.435 133.715 503.501 134.536 505.505C137.303 508.822 140.364 511.883 143.681 514.65H144.504L191.795 467.277H187.758H159.911V468.019Z" fill="url(#paint77_radial_176_42)"/>
<path style="mix-blend-mode:screen" opacity="0.65" fill-rule="evenodd" clip-rule="evenodd" d="M218.242 467.523L167.573 518.191H180.591L231.753 467.523H218.242Z" fill="url(#paint78_radial_176_42)"/>
<path style="mix-blend-mode:screen" opacity="0.65" fill-rule="evenodd" clip-rule="evenodd" d="M306.809 468.102L256.47 518.606H276.243H283.987L325.84 476.835L325.099 476.094C323.626 474.512 322.028 473.051 320.32 471.727C318.311 470.919 316.246 470.258 314.141 469.75C311.957 469.109 309.725 468.641 307.468 468.349L306.809 468.102Z" fill="url(#paint79_radial_176_42)"/>
</g>
<defs>
<linearGradient id="paint0_linear_176_42" x1="7.22347" y1="145.875" x2="99.9604" y2="120.971" gradientUnits="userSpaceOnUse">
<stop stop-color="#1A8A81"/>
<stop offset="0.19" stop-color="#19847C"/>
<stop offset="0.45" stop-color="#15736E"/>
<stop offset="0.74" stop-color="#105656"/>
<stop offset="1" stop-color="#0A383D"/>
</linearGradient>
<linearGradient id="paint1_linear_176_42" x1="2.27051" y1="103.977" x2="90.0543" y2="103.977" gradientUnits="userSpaceOnUse">
<stop stop-color="#AACCD6"/>
<stop offset="1" stop-color="#54737C"/>
</linearGradient>
<linearGradient id="paint2_linear_176_42" x1="26623.5" y1="5234.68" x2="27601" y2="5234.68" gradientUnits="userSpaceOnUse">
<stop stop-color="#AACCD6"/>
<stop offset="1" stop-color="#54737C"/>
</linearGradient>
<linearGradient id="paint3_linear_176_42" x1="53.3168" y1="116.499" x2="101.474" y2="116.499" gradientUnits="userSpaceOnUse">
<stop stop-color="#0A3D48"/>
<stop offset="1" stop-color="#006B6D"/>
</linearGradient>
<linearGradient id="paint4_linear_176_42" x1="365.789" y1="120.971" x2="458.526" y2="145.875" gradientUnits="userSpaceOnUse">
<stop stop-color="#0A383D"/>
<stop offset="0.26" stop-color="#105656"/>
<stop offset="0.55" stop-color="#15736E"/>
<stop offset="0.81" stop-color="#19847C"/>
<stop offset="1" stop-color="#1A8A81"/>
</linearGradient>
<linearGradient id="paint5_linear_176_42" x1="375.763" y1="103.977" x2="463.478" y2="103.977" gradientUnits="userSpaceOnUse">
<stop stop-color="#54737C"/>
<stop offset="1" stop-color="#AACCD6"/>
</linearGradient>
<linearGradient id="paint6_linear_176_42" x1="31070" y1="5234.68" x2="32045.9" y2="5234.68" gradientUnits="userSpaceOnUse">
<stop stop-color="#54737C"/>
<stop offset="1" stop-color="#AACCD6"/>
</linearGradient>
<linearGradient id="paint7_linear_176_42" x1="364.344" y1="116.499" x2="412.501" y2="116.499" gradientUnits="userSpaceOnUse">
<stop stop-color="#006B6D"/>
<stop offset="1" stop-color="#0A3D48"/>
</linearGradient>
<radialGradient id="paint8_radial_176_42" cx="0" cy="0" r="1" gradientUnits="userSpaceOnUse" gradientTransform="translate(231.979 255.416) scale(247.661)">
<stop stop-color="#3F576E"/>
<stop offset="0.33" stop-color="#384F65"/>
<stop offset="0.81" stop-color="#293C4F"/>
<stop offset="1" stop-color="#20283B"/>
</radialGradient>
<linearGradient id="paint9_linear_176_42" x1="412.204" y1="478.629" x2="412.204" y2="32.3682" gradientUnits="userSpaceOnUse">
<stop stop-color="#777B9C"/>
<stop offset="1" stop-color="#525673"/>
</linearGradient>
<linearGradient id="paint10_linear_176_42" x1="41.3027" y1="20.0628" x2="231.979" y2="20.0628" gradientUnits="userSpaceOnUse">
<stop stop-color="#788896"/>
<stop offset="1" stop-color="#9FB1C4"/>
</linearGradient>
<linearGradient id="paint11_linear_176_42" x1="57.3184" y1="29.8358" x2="231.979" y2="29.8358" gradientUnits="userSpaceOnUse">
<stop stop-color="#676B87"/>
<stop offset="1" stop-color="#5B597D"/>
</linearGradient>
<linearGradient id="paint12_linear_176_42" x1="231.979" y1="20.0619" x2="422.825" y2="20.0619" gradientUnits="userSpaceOnUse">
<stop stop-color="#99AAC9"/>
<stop offset="1" stop-color="#515D7D"/>
</linearGradient>
<linearGradient id="paint13_linear_176_42" x1="231.979" y1="29.8395" x2="406.64" y2="29.8395" gradientUnits="userSpaceOnUse">
<stop stop-color="#46435E"/>
<stop offset="1" stop-color="#4A4D61"/>
</linearGradient>
<linearGradient id="paint14_linear_176_42" x1="398.379" y1="471.046" x2="398.379" y2="39.958" gradientUnits="userSpaceOnUse">
<stop stop-color="#9FB1C4"/>
<stop offset="1" stop-color="#6C7A87"/>
</linearGradient>
<linearGradient id="paint15_linear_176_42" x1="2708.15" y1="31345.6" x2="2708.15" y2="20322.6" gradientUnits="userSpaceOnUse">
<stop stop-color="#777B9C"/>
<stop offset="1" stop-color="#525673"/>
</linearGradient>
<linearGradient id="paint16_linear_176_42" x1="3839.72" y1="32640.7" x2="3839.72" y2="20828.1" gradientUnits="userSpaceOnUse">
<stop stop-color="#9FB1C4"/>
<stop offset="1" stop-color="#6C7A87"/>
</linearGradient>
<linearGradient id="paint17_linear_176_42" x1="57.3184" y1="481.156" x2="231.979" y2="481.156" gradientUnits="userSpaceOnUse">
<stop stop-color="#788896"/>
<stop offset="1" stop-color="#BCD1E8"/>
</linearGradient>
<linearGradient id="paint18_linear_176_42" x1="41.3027" y1="490.937" x2="231.979" y2="490.937" gradientUnits="userSpaceOnUse">
<stop stop-color="#5A5D75"/>
<stop offset="1" stop-color="#5B597D"/>
</linearGradient>
<linearGradient id="paint19_linear_176_42" x1="29779.3" y1="3178.34" x2="31588.8" y2="3178.34" gradientUnits="userSpaceOnUse">
<stop stop-color="#99AAC9"/>
<stop offset="1" stop-color="#515D7D"/>
</linearGradient>
<linearGradient id="paint20_linear_176_42" x1="32517.3" y1="3419.98" x2="34677.7" y2="3419.98" gradientUnits="userSpaceOnUse">
<stop stop-color="#46435E"/>
<stop offset="1" stop-color="#4A4D61"/>
</linearGradient>
<radialGradient id="paint21_radial_176_42" cx="0" cy="0" r="1" gradientUnits="userSpaceOnUse" gradientTransform="translate(501.94 121.975) rotate(180) scale(268.157 268.696)">
<stop offset="0.33" stop-color="#00565F"/>
<stop offset="0.37" stop-color="#00B6C6"/>
<stop offset="0.39" stop-color="#009DA9"/>
<stop offset="0.4" stop-color="#008B93"/>
<stop offset="0.42" stop-color="#007D83"/>
<stop offset="0.43" stop-color="#00757A"/>
<stop offset="0.46" stop-color="#007377"/>
<stop offset="0.64" stop-color="#008783"/>
<stop offset="0.84" stop-color="#00968C"/>
<stop offset="1" stop-color="#009B8F"/>
</radialGradient>
<radialGradient id="paint22_radial_176_42" cx="0" cy="0" r="1" gradientUnits="userSpaceOnUse" gradientTransform="translate(421.383 62.8327) rotate(180) scale(76.6363 76.7899)">
<stop stop-color="#7DD1BD"/>
<stop offset="1"/>
</radialGradient>
<radialGradient id="paint23_radial_176_42" cx="0" cy="0" r="1" gradientUnits="userSpaceOnUse" gradientTransform="translate(62160.4 14562.2) scale(7473.16 4215.84)">
<stop offset="0.33" stop-color="#00565F"/>
<stop offset="0.37" stop-color="#00B6C6"/>
<stop offset="0.39" stop-color="#009DA9"/>
<stop offset="0.4" stop-color="#008B93"/>
<stop offset="0.42" stop-color="#007D83"/>
<stop offset="0.43" stop-color="#00757A"/>
<stop offset="0.46" stop-color="#007377"/>
<stop offset="0.64" stop-color="#008783"/>
<stop offset="0.84" stop-color="#00968C"/>
<stop offset="1" stop-color="#009B8F"/>
</radialGradient>
<radialGradient id="paint24_radial_176_42" cx="0" cy="0" r="1" gradientUnits="userSpaceOnUse" gradientTransform="translate(6515.92 9626.48) scale(216.244 847.761)">
<stop stop-color="#7DD1BD"/>
<stop offset="1"/>
</radialGradient>
<radialGradient id="paint25_radial_176_42" cx="0" cy="0" r="1" gradientUnits="userSpaceOnUse" gradientTransform="translate(233.164 264.251) scale(266.024 266.559)">
<stop stop-color="#99E4FF"/>
<stop offset="0.25" stop-color="#6597A8"/>
<stop offset="0.47" stop-color="#3A5660"/>
<stop offset="0.66" stop-color="#1B282C"/>
<stop offset="0.8" stop-color="#070B0C"/>
<stop offset="0.87"/>
</radialGradient>
<linearGradient id="paint26_linear_176_42" x1="41.2305" y1="61.3157" x2="232.476" y2="61.3157" gradientUnits="userSpaceOnUse">
<stop stop-color="#54737C"/>
<stop offset="0.07" stop-color="#D7F6FF"/>
<stop offset="0.18" stop-color="#9AB9C2"/>
<stop offset="1" stop-color="#DCF1F7"/>
</linearGradient>
<linearGradient id="paint27_linear_176_42" x1="59432.9" y1="5608.89" x2="64158.7" y2="5608.89" gradientUnits="userSpaceOnUse">
<stop stop-color="#54737C"/>
<stop offset="0.07" stop-color="#D7F6FF"/>
<stop offset="0.18" stop-color="#9AB9C2"/>
<stop offset="1" stop-color="#DCF1F7"/>
</linearGradient>
<linearGradient id="paint28_linear_176_42" x1="232.477" y1="61.3157" x2="423.722" y2="61.3157" gradientUnits="userSpaceOnUse">
<stop stop-color="#DCF1F7"/>
<stop offset="0.82" stop-color="#9AB9C2"/>
<stop offset="0.93" stop-color="#D7F6FF"/>
<stop offset="1" stop-color="#54737C"/>
</linearGradient>
<linearGradient id="paint29_linear_176_42" x1="64339" y1="5608.89" x2="69064.8" y2="5608.89" gradientUnits="userSpaceOnUse">
<stop stop-color="#DCF1F7"/>
<stop offset="0.82" stop-color="#9AB9C2"/>
<stop offset="0.93" stop-color="#D7F6FF"/>
<stop offset="1" stop-color="#54737C"/>
</linearGradient>
<linearGradient id="paint30_linear_176_42" x1="231.918" y1="531.21" x2="231.918" y2="454.754" gradientUnits="userSpaceOnUse">
<stop stop-color="#3B3A52"/>
<stop offset="1" stop-color="#8292AB"/>
</linearGradient>
<radialGradient id="paint31_radial_176_42" cx="0" cy="0" r="1" gradientUnits="userSpaceOnUse" gradientTransform="translate(231.918 511.025) scale(122.593 122.593)">
<stop stop-color="#4D5E6E"/>
<stop offset="0.14" stop-color="#4A5A6A"/>
<stop offset="0.3" stop-color="#414F5D"/>
<stop offset="0.46" stop-color="#323D47"/>
<stop offset="0.62" stop-color="#1D2329"/>
<stop offset="0.79" stop-color="#020303"/>
<stop offset="0.8"/>
</radialGradient>
<linearGradient id="paint32_linear_176_42" x1="231.918" y1="531.21" x2="231.918" y2="454.754" gradientUnits="userSpaceOnUse">
<stop stop-color="#4A4D61"/>
<stop offset="1" stop-color="#46435E"/>
</linearGradient>
<linearGradient id="paint33_linear_176_42" x1="231.918" y1="528.245" x2="231.918" y2="457.886" gradientUnits="userSpaceOnUse">
<stop stop-color="#707E94"/>
<stop offset="1" stop-color="#3E3C54"/>
</linearGradient>
<radialGradient id="paint34_radial_176_42" cx="0" cy="0" r="1" gradientUnits="userSpaceOnUse" gradientTransform="translate(326.334 538.872) rotate(180) scale(36.7449)">
<stop stop-color="#7C83D6"/>
<stop offset="1" stop-color="#7B24D6"/>
</radialGradient>
<radialGradient id="paint35_radial_176_42" cx="0" cy="0" r="1" gradientUnits="userSpaceOnUse" gradientTransform="translate(328.888 520.171) rotate(180) scale(36.4978 36.4977)">
<stop stop-color="#BF91FF"/>
<stop offset="1" stop-color="#7C56D6"/>
</radialGradient>
<radialGradient id="paint36_radial_176_42" cx="0" cy="0" r="1" gradientUnits="userSpaceOnUse" gradientTransform="translate(370.659 512.509) rotate(180) scale(42.3472 42.3473)">
<stop stop-color="#A38FD6"/>
<stop offset="1" stop-color="#7C56D6"/>
</radialGradient>
<radialGradient id="paint37_radial_176_42" cx="0" cy="0" r="1" gradientUnits="userSpaceOnUse" gradientTransform="translate(2072.59 1717.84) scale(106.776 155.878)">
<stop stop-color="#7C83D6"/>
<stop offset="1" stop-color="#7B24D6"/>
</radialGradient>
<radialGradient id="paint38_radial_176_42" cx="0" cy="0" r="1" gradientUnits="userSpaceOnUse" gradientTransform="translate(317.601 449.152) rotate(180) scale(36.6626)">
<stop stop-color="#907CD6"/>
<stop offset="1" stop-color="#7230E3"/>
</radialGradient>
<radialGradient id="paint39_radial_176_42" cx="0" cy="0" r="1" gradientUnits="userSpaceOnUse" gradientTransform="translate(291.649 453.519) rotate(180) scale(58.0833 58.0832)">
<stop stop-color="#896BD6"/>
<stop offset="1" stop-color="#5F00D6"/>
</radialGradient>
<radialGradient id="paint40_radial_176_42" cx="0" cy="0" r="1" gradientUnits="userSpaceOnUse" gradientTransform="translate(163.536 447.833) scale(228.461)">
<stop stop-color="#9F73FF"/>
<stop offset="1" stop-color="#4F1DA3"/>
</radialGradient>
<radialGradient id="paint41_radial_176_42" cx="0" cy="0" r="1" gradientUnits="userSpaceOnUse" gradientTransform="translate(1787.55 1296.8) scale(75.3272 50.3404)">
<stop stop-color="#907CD6"/>
<stop offset="1" stop-color="#7230E3"/>
</radialGradient>
<radialGradient id="paint42_radial_176_42" cx="0" cy="0" r="1" gradientUnits="userSpaceOnUse" gradientTransform="translate(1682.06 1686.24) scale(70.8054 70.8057)">
<stop stop-color="#BF91FF"/>
<stop offset="1" stop-color="#7C56D6"/>
</radialGradient>
<radialGradient id="paint43_radial_176_42" cx="0" cy="0" r="1" gradientUnits="userSpaceOnUse" gradientTransform="translate(1186.68 1751.37) scale(59.2863 84.6946)">
<stop stop-color="#A38FD6"/>
<stop offset="1" stop-color="#7C56D6"/>
</radialGradient>
<radialGradient id="paint44_radial_176_42" cx="0" cy="0" r="1" gradientUnits="userSpaceOnUse" gradientTransform="translate(1137.03 1846.69) scale(105.997 155.878)">
<stop stop-color="#7C83D6"/>
<stop offset="1" stop-color="#7B24D6"/>
</radialGradient>
<radialGradient id="paint45_radial_176_42" cx="0" cy="0" r="1" gradientUnits="userSpaceOnUse" gradientTransform="translate(108.089 527.174) scale(36.6624)">
<stop stop-color="#A57CD6"/>
<stop offset="1" stop-color="#6F36BA"/>
</radialGradient>
<radialGradient id="paint46_radial_176_42" cx="0" cy="0" r="1" gradientUnits="userSpaceOnUse" gradientTransform="translate(130.582 559.881) scale(58.0832 58.0831)">
<stop stop-color="#896BD6"/>
<stop offset="1" stop-color="#511F82"/>
</radialGradient>
<radialGradient id="paint47_radial_176_42" cx="0" cy="0" r="1" gradientUnits="userSpaceOnUse" gradientTransform="translate(200.61 352.676) scale(133.633 133.633)">
<stop stop-color="#D9B8FF"/>
<stop offset="1" stop-color="#C194FF"/>
</radialGradient>
<radialGradient id="paint48_radial_176_42" cx="0" cy="0" r="1" gradientUnits="userSpaceOnUse" gradientTransform="translate(206.954 428.719) scale(137.176 137.176)">
<stop stop-color="#8259B5"/>
<stop offset="1" stop-color="#5522A3"/>
</radialGradient>
<radialGradient id="paint49_radial_176_42" cx="0" cy="0" r="1" gradientUnits="userSpaceOnUse" gradientTransform="translate(231.918 522.229) scale(116.167 116.167)">
<stop stop-color="#986FBF"/>
<stop offset="1"/>
</radialGradient>
<radialGradient id="paint50_radial_176_42" cx="0" cy="0" r="1" gradientUnits="userSpaceOnUse" gradientTransform="translate(135.936 463.077) scale(23.6452)">
<stop stop-color="#723AFF"/>
<stop offset="1"/>
</radialGradient>
<radialGradient id="paint51_radial_176_42" cx="0" cy="0" r="1" gradientUnits="userSpaceOnUse" gradientTransform="translate(1234.43 1757.63) scale(22.6072 32.296)">
<stop stop-color="#723AFF"/>
<stop offset="1"/>
</radialGradient>
<radialGradient id="paint52_radial_176_42" cx="0" cy="0" r="1" gradientUnits="userSpaceOnUse" gradientTransform="translate(1200.33 1704.78) scale(23.4179 31.8552)">
<stop stop-color="#723AFF"/>
<stop offset="1"/>
</radialGradient>
<radialGradient id="paint53_radial_176_42" cx="0" cy="0" r="1" gradientUnits="userSpaceOnUse" gradientTransform="translate(2257.57 1815.65) scale(41.2367 41.2366)">
<stop stop-color="#723AFF"/>
<stop offset="1"/>
</radialGradient>
<radialGradient id="paint54_radial_176_42" cx="0" cy="0" r="1" gradientUnits="userSpaceOnUse" gradientTransform="translate(1744.81 1802.62) scale(27.6476 39.2165)">
<stop stop-color="#723AFF"/>
<stop offset="1"/>
</radialGradient>
<radialGradient id="paint55_radial_176_42" cx="0" cy="0" r="1" gradientUnits="userSpaceOnUse" gradientTransform="translate(1704.19 1656.46) scale(27.5406 37.1898)">
<stop stop-color="#723AFF"/>
<stop offset="1"/>
</radialGradient>
<radialGradient id="paint56_radial_176_42" cx="0" cy="0" r="1" gradientUnits="userSpaceOnUse" gradientTransform="translate(231.918 460.358) scale(149.369 149.367)">
<stop stop-color="#9C3AFF"/>
<stop offset="1"/>
</radialGradient>
<radialGradient id="paint57_radial_176_42" cx="0" cy="0" r="1" gradientUnits="userSpaceOnUse" gradientTransform="translate(9725.55 2319.6) scale(1051.73 266.936)">
<stop stop-color="#723AFF"/>
<stop offset="1"/>
</radialGradient>
<radialGradient id="paint58_radial_176_42" cx="0" cy="0" r="1" gradientUnits="userSpaceOnUse" gradientTransform="translate(7828.43 2373.14) scale(650.57 218.99)">
<stop stop-color="#723AFF"/>
<stop offset="1"/>
</radialGradient>
<radialGradient id="paint59_radial_176_42" cx="0" cy="0" r="1" gradientUnits="userSpaceOnUse" gradientTransform="translate(4881.61 2359.41) scale(272.215 157.066)">
<stop stop-color="#723AFF"/>
<stop offset="1"/>
</radialGradient>
<radialGradient id="paint60_radial_176_42" cx="0" cy="0" r="1" gradientUnits="userSpaceOnUse" gradientTransform="translate(2591.75 2405.09) scale(109.482 126.169)">
<stop stop-color="#723AFF"/>
<stop offset="1"/>
</radialGradient>
<radialGradient id="paint61_radial_176_42" cx="0" cy="0" r="1" gradientUnits="userSpaceOnUse" gradientTransform="translate(209.179 451.625) scale(114.272 114.272)">
<stop stop-color="#AC59FF"/>
<stop offset="1" stop-color="#001938"/>
</radialGradient>
<radialGradient id="paint62_radial_176_42" cx="0" cy="0" r="1" gradientUnits="userSpaceOnUse" gradientTransform="translate(9793.72 2531.42) scale(1025.44 260.263)">
<stop stop-color="#723AFF"/>
<stop offset="1"/>
</radialGradient>
<radialGradient id="paint63_radial_176_42" cx="0" cy="0" r="1" gradientUnits="userSpaceOnUse" gradientTransform="translate(223.102 501.551) scale(77.0325)">
<stop stop-color="#9C71E3"/>
<stop offset="1" stop-color="white"/>
</radialGradient>
<radialGradient id="paint64_radial_176_42" cx="0" cy="0" r="1" gradientUnits="userSpaceOnUse" gradientTransform="translate(4782.58 2640.2) scale(610.596 353.443)">
<stop stop-color="#723AFF"/>
<stop offset="1"/>
</radialGradient>
<radialGradient id="paint65_radial_176_42" cx="0" cy="0" r="1" gradientUnits="userSpaceOnUse" gradientTransform="translate(2562.06 2655.9) scale(119.898 138.173)">
<stop stop-color="#723AFF"/>
<stop offset="1"/>
</radialGradient>
<radialGradient id="paint66_radial_176_42" cx="0" cy="0" r="1" gradientUnits="userSpaceOnUse" gradientTransform="translate(9785.51 1403.59) scale(1229.27 152.148)">
<stop stop-color="#723AFF"/>
<stop offset="1"/>
</radialGradient>
<radialGradient id="paint67_radial_176_42" cx="0" cy="0" r="1" gradientUnits="userSpaceOnUse" gradientTransform="translate(11720.8 2410.56) scale(1246.65 315.874)">
<stop stop-color="#723AFF"/>
<stop offset="1"/>
</radialGradient>
<radialGradient id="paint68_radial_176_42" cx="0" cy="0" r="1" gradientUnits="userSpaceOnUse" gradientTransform="translate(9137.8 2449.01) scale(778.067 261.621)">
<stop stop-color="#723AFF"/>
<stop offset="1"/>
</radialGradient>
<radialGradient id="paint69_radial_176_42" cx="0" cy="0" r="1" gradientUnits="userSpaceOnUse" gradientTransform="translate(5028.6 2621.28) scale(423.539 243.927)">
<stop stop-color="#9C71E3"/>
<stop offset="1" stop-color="white"/>
</radialGradient>
<radialGradient id="paint70_radial_176_42" cx="0" cy="0" r="1" gradientUnits="userSpaceOnUse" gradientTransform="translate(2705.53 2407.39) scale(157.27 180.569)">
<stop stop-color="#723AFF"/>
<stop offset="1"/>
</radialGradient>
<radialGradient id="paint71_radial_176_42" cx="0" cy="0" r="1" gradientUnits="userSpaceOnUse" gradientTransform="translate(12421.7 1473.63) scale(1362.28 168.196)">
<stop stop-color="#723AFF"/>
<stop offset="1"/>
</radialGradient>
<radialGradient id="paint72_radial_176_42" cx="0" cy="0" r="1" gradientUnits="userSpaceOnUse" gradientTransform="translate(10855.6 2444.91) scale(1075.94 272.621)">
<stop stop-color="#9C71E3"/>
<stop offset="1" stop-color="white"/>
</radialGradient>
<radialGradient id="paint73_radial_176_42" cx="0" cy="0" r="1" gradientUnits="userSpaceOnUse" gradientTransform="translate(8953.66 2653.69) scale(807.499 271.517)">
<stop stop-color="#723AFF"/>
<stop offset="1"/>
</radialGradient>
<radialGradient id="paint74_radial_176_42" cx="0" cy="0" r="1" gradientUnits="userSpaceOnUse" gradientTransform="translate(5251.04 2680.81) scale(397.735 229.802)">
<stop stop-color="#723AFF"/>
<stop offset="1"/>
</radialGradient>
<radialGradient id="paint75_radial_176_42" cx="0" cy="0" r="1" gradientUnits="userSpaceOnUse" gradientTransform="translate(2695.74 2636.24) scale(158.16 181.591)">
<stop stop-color="#723AFF"/>
<stop offset="1"/>
</radialGradient>
<radialGradient id="paint76_radial_176_42" cx="0" cy="0" r="1" gradientUnits="userSpaceOnUse" gradientTransform="translate(12417.7 1580.25) scale(1566.82 193.451)">
<stop stop-color="#723AFF"/>
<stop offset="1"/>
</radialGradient>
<radialGradient id="paint77_radial_176_42" cx="0" cy="0" r="1" gradientUnits="userSpaceOnUse" gradientTransform="translate(151.59 448.411) scale(83.6235)">
<stop stop-color="#8264C7"/>
<stop offset="1"/>
</radialGradient>
<radialGradient id="paint78_radial_176_42" cx="0" cy="0" r="1" gradientUnits="userSpaceOnUse" gradientTransform="translate(6912.25 4246.37) scale(578.262 456.522)">
<stop stop-color="#8264C7"/>
<stop offset="1"/>
</radialGradient>
<radialGradient id="paint79_radial_176_42" cx="0" cy="0" r="1" gradientUnits="userSpaceOnUse" gradientTransform="translate(8376.28 4250.32) scale(661.1 481.3)">
<stop stop-color="#8264C7"/>
<stop offset="1"/>
</radialGradient>
<clipPath id="clip0_176_42">
<rect width="465.749" height="101.405" fill="white" transform="translate(0 81)"/>
</clipPath>
<clipPath id="clip1_176_42">
<rect width="381.522" height="511" fill="white" transform="translate(41.3027)"/>
</clipPath>
<clipPath id="clip2_176_42">
<rect width="383.454" height="108.154" fill="white" transform="translate(40.749 36.8457)"/>
</clipPath>
<clipPath id="clip3_176_42">
<rect width="227.143" height="80.2456" fill="white" transform="translate(118.749 454.754)"/>
</clipPath>
</defs>
</svg>
