<svg width="55" height="54" viewBox="0 0 55 54" fill="none" xmlns="http://www.w3.org/2000/svg">
<g clip-path="url(#clip0_176_235)">
<path fill-rule="evenodd" clip-rule="evenodd" d="M27.7339 6.12844C31.8662 6.12241 35.9074 7.34224 39.3462 9.63361C42.7849 11.925 45.4668 15.1849 47.0523 19.0009C48.6378 22.8168 49.0558 27.0174 48.2533 31.071C47.4509 35.1246 45.464 38.849 42.5442 41.7731C39.6244 44.6972 35.9028 46.6895 31.8504 47.4979C27.798 48.3062 23.5969 47.8944 19.7786 46.3145C15.9603 44.7345 12.6965 42.0575 10.4001 38.622C8.10368 35.1866 6.87793 31.1472 6.87793 27.0149C6.87792 21.4808 9.07427 16.1728 12.9847 12.2567C16.895 8.34062 22.1998 6.13652 27.7339 6.12844Z" fill="url(#paint0_linear_176_235)"/>
<path fill-rule="evenodd" clip-rule="evenodd" d="M6.87777 27.015C6.87776 21.4809 9.07411 16.1729 12.9845 12.2568C16.8949 8.3407 22.1996 6.1366 27.7338 6.12852V0.0302734C26.3279 0.877366 24.9921 1.83581 23.7394 2.89643C23.1017 3.19854 22.4385 3.44344 21.7575 3.62824C21.0562 3.62824 21.0257 4.69543 20.3549 4.90887C19.6841 5.12231 17.8546 4.90886 16.9704 5.39672C14.6353 6.54814 12.5035 8.07235 10.6587 9.90943C7.59559 12.9795 5.40635 16.8106 4.3165 21.0082C4.13825 21.6872 3.90367 22.3502 3.6152 22.9902C2.50188 24.212 1.53957 25.5633 0.749023 27.015H6.87777Z" fill="url(#paint1_linear_176_235)"/>
<path fill-rule="evenodd" clip-rule="evenodd" d="M23.7402 2.86596L27.7346 6.12852V0.0302734C26.3287 0.877366 24.9929 1.83581 23.7402 2.89644V2.86596Z" fill="url(#paint2_linear_176_235)"/>
<path fill-rule="evenodd" clip-rule="evenodd" d="M6.87776 27.0151L3.6152 22.9902C2.50188 24.2121 1.53957 25.5634 0.749023 27.0151H6.87776Z" fill="url(#paint3_linear_176_235)"/>
<path fill-rule="evenodd" clip-rule="evenodd" d="M48.6209 27.015C48.6209 21.4756 46.4203 16.163 42.5034 12.246C38.5864 8.32905 33.2738 6.12852 27.7344 6.12852V0.0302734C29.15 0.862562 30.4869 1.82189 31.7287 2.89644C32.3749 3.20345 33.0487 3.44849 33.7411 3.62824C37.9446 4.68695 41.781 6.86867 44.84 9.93993C45.8446 10.9595 46.7625 12.061 47.5842 13.233C48.3258 16.7575 49.7896 20.0901 51.8834 23.0207C52.9968 24.2425 53.9591 25.5938 54.7496 27.0455L48.6209 27.015Z" fill="url(#paint4_linear_176_235)"/>
<path fill-rule="evenodd" clip-rule="evenodd" d="M31.7287 2.86596L27.7344 6.12852V0.0302734C29.15 0.862562 30.4869 1.82189 31.7287 2.89644V2.86596Z" fill="url(#paint5_linear_176_235)"/>
<path fill-rule="evenodd" clip-rule="evenodd" d="M48.6211 27.0151L51.8837 22.9902C52.997 24.2121 53.9593 25.5634 54.7498 27.0151H48.6211Z" fill="url(#paint6_linear_176_235)"/>
<path fill-rule="evenodd" clip-rule="evenodd" d="M6.8782 27.0151C6.8782 32.5465 9.07553 37.8513 12.9868 41.7625C16.898 45.6738 22.2029 47.8711 27.7342 47.8711V53.9693C26.3283 53.1223 24.9926 52.1638 23.7399 51.1032C23.0961 50.8241 22.4339 50.5898 21.7579 50.4019C18.2326 49.5043 14.9583 47.815 12.1837 45.4623C11.9093 45.2489 12.3666 44.1512 12.1837 44.0292C12.0007 43.9073 10.8421 44.3036 10.5981 44.0292C8.10718 41.5603 6.19153 38.5723 4.98774 35.2782C5.31761 34.5059 5.35401 33.6396 5.09011 32.8423C4.82621 32.045 4.28018 31.3715 3.55466 30.9485C2.44287 29.7365 1.4806 28.3954 0.688477 26.9541L6.8782 27.0151Z" fill="url(#paint7_linear_176_235)"/>
<path fill-rule="evenodd" clip-rule="evenodd" d="M23.7402 51.1337L27.7346 47.8711V53.9693C26.3287 53.1222 24.9929 52.1638 23.7402 51.1032V51.1337Z" fill="url(#paint8_linear_176_235)"/>
<path fill-rule="evenodd" clip-rule="evenodd" d="M6.87776 27.0148L3.6152 30.9177C2.50342 29.7057 1.54114 28.3647 0.749023 26.9233L6.87776 27.0148Z" fill="url(#paint9_linear_176_235)"/>
<path fill-rule="evenodd" clip-rule="evenodd" d="M48.6209 27.0149C48.6128 32.549 46.4087 37.8538 42.4926 41.7642C38.5765 45.6745 33.2685 47.8709 27.7344 47.8709V53.9691C29.15 53.1368 30.4869 52.1775 31.7287 51.1029C32.3811 50.8192 33.0538 50.5848 33.7411 50.4017C37.9388 49.3118 41.7699 47.1226 44.84 44.0595C47.9112 41.0005 50.0929 37.1641 51.1516 32.9607C51.3364 32.2797 51.5813 31.6164 51.8834 30.9787C52.9952 29.7668 53.9575 28.4257 54.7496 26.9844L48.6209 27.0149Z" fill="url(#paint10_linear_176_235)"/>
<path fill-rule="evenodd" clip-rule="evenodd" d="M31.7287 51.1337L27.7344 47.8711V53.9693C29.15 53.137 30.4869 52.1777 31.7287 51.1032V51.1337Z" fill="url(#paint11_linear_176_235)"/>
<path fill-rule="evenodd" clip-rule="evenodd" d="M48.6211 27.0148L51.8837 30.9177C52.9954 29.7057 53.9577 28.3647 54.7498 26.9233L48.6211 27.0148Z" fill="url(#paint12_linear_176_235)"/>
<path fill-rule="evenodd" clip-rule="evenodd" d="M5.59754 25.4297L1.78613 27.0152H6.87817C6.87817 21.4811 9.07451 16.1731 12.9849 12.257C16.8953 8.34091 22.2 6.13682 27.7342 6.12874V0.823242L26.2401 4.90908C21.1004 5.77658 16.3558 8.21552 12.6591 11.8903C8.96249 15.5651 6.49548 20.2952 5.59754 25.4297Z" fill="#89EFF4"/>
<path fill-rule="evenodd" clip-rule="evenodd" d="M41.9741 41.2546C38.6874 44.5437 34.4051 46.6532 29.7943 47.2543C25.1836 47.8555 20.5035 46.9145 16.4834 44.5782C19.836 46.7417 23.7446 47.8857 27.7347 47.8712C32.1089 47.8815 36.3755 46.5161 39.9312 43.9683C40.3557 43.9169 40.7743 43.825 41.1813 43.6939C41.3338 43.511 41.1813 43.2061 41.3338 42.8707C42.3793 42.0323 43.3393 41.0927 44.1999 40.0655C44.4134 39.8215 46.7307 40.3704 46.9137 40.0655C47.0966 39.7606 45.0842 38.8458 45.2062 38.6629C47.4698 35.2891 48.6988 31.3276 48.7421 27.2651C48.7855 23.2025 47.6413 19.2157 45.4501 15.7944C47.7826 19.8178 48.7185 24.4998 48.1118 29.1107C47.5051 33.7215 45.39 38.0021 42.0961 41.2851L41.9741 41.2546Z" fill="#73BDC9"/>
<path fill-rule="evenodd" clip-rule="evenodd" d="M27.7342 7.897C31.5154 7.897 35.2117 9.01825 38.3556 11.119C41.4996 13.2197 43.95 16.2055 45.397 19.6989C46.844 23.1922 47.2226 27.0362 46.4849 30.7448C45.7472 34.4533 43.9264 37.8598 41.2527 40.5335C38.579 43.2072 35.1725 45.028 31.464 45.7657C27.7555 46.5034 23.9115 46.1248 20.4181 44.6778C16.9247 43.2308 13.9389 40.7803 11.8382 37.6364C9.73749 34.4925 8.61624 30.7962 8.61624 27.015C8.61222 24.5033 9.10398 22.0154 10.0633 19.6941C11.0227 17.3728 12.4307 15.2637 14.2068 13.4876C15.9829 11.7115 18.092 10.3034 20.4134 9.34409C22.7347 8.38475 25.2225 7.89298 27.7342 7.897Z" fill="url(#paint13_radial_176_235)"/>
<path style="mix-blend-mode:screen" fill-rule="evenodd" clip-rule="evenodd" d="M25.5995 10.3975C28.4881 10.3975 31.3119 11.2541 33.7138 12.8589C36.1156 14.4638 37.9876 16.7448 39.093 19.4136C40.1985 22.0824 40.4877 25.019 39.9242 27.8522C39.3606 30.6853 37.9696 33.2877 35.927 35.3303C33.8844 37.3729 31.282 38.7639 28.4488 39.3275C25.6157 39.891 22.679 39.6018 20.0103 38.4964C17.3415 37.3909 15.0605 35.5189 13.4556 33.1171C11.8508 30.7153 10.9942 27.8915 10.9942 25.0028C10.9902 23.0837 11.3652 21.1827 12.0977 19.4088C12.8303 17.635 13.906 16.0234 15.263 14.6663C16.62 13.3093 18.2317 12.2337 20.0055 11.5011C21.7793 10.7685 23.6804 10.3935 25.5995 10.3975Z" fill="url(#paint14_radial_176_235)"/>
<path style="mix-blend-mode:screen" fill-rule="evenodd" clip-rule="evenodd" d="M16.7571 15.6721C21.0564 11.3728 27.1852 10.5495 30.4477 13.8426C33.7103 17.1356 32.9175 23.2339 28.6182 27.5331C24.319 31.8324 18.2207 32.6252 14.9277 29.3626C11.6346 26.1001 12.4884 19.9408 16.7571 15.6721Z" fill="url(#paint15_radial_176_235)"/>
<path style="mix-blend-mode:screen" opacity="0.5" fill-rule="evenodd" clip-rule="evenodd" d="M36.3934 11.5562C40.222 13.9205 42.9992 17.6618 44.1538 22.011C45.3084 26.3601 44.7527 30.9863 42.601 34.9382C40.4493 38.8902 36.8651 41.8675 32.5855 43.2578C28.306 44.6482 23.6563 44.346 19.5928 42.4133C20.9798 42.7543 22.4027 42.9283 23.8311 42.9316C27.4475 42.8869 30.9696 41.7712 33.9522 39.7255C36.9348 37.6799 39.2442 34.7961 40.5886 31.4385C41.9329 28.0809 42.2519 24.4001 41.5052 20.8613C40.7585 17.3225 38.9797 14.0844 36.3934 11.5562Z" fill="url(#paint16_radial_176_235)"/>
<path d="M22.7494 36L32.6494 27L22.7494 18" stroke="white" stroke-width="3.6"/>
</g>
<defs>
<linearGradient id="paint0_linear_176_235" x1="27.7339" y1="47.871" x2="27.7339" y2="6.12844" gradientUnits="userSpaceOnUse">
<stop stop-color="#8292AB"/>
<stop offset="1" stop-color="#5B597D"/>
</linearGradient>
<linearGradient id="paint1_linear_176_235" x1="0.749023" y1="13.5074" x2="27.7338" y2="13.5074" gradientUnits="userSpaceOnUse">
<stop stop-color="#515D7D"/>
<stop offset="1" stop-color="#99AAC9"/>
</linearGradient>
<linearGradient id="paint2_linear_176_235" x1="23.7402" y1="3.0794" x2="32.3388" y2="3.0794" gradientUnits="userSpaceOnUse">
<stop stop-color="#BCD1E8"/>
<stop offset="1" stop-color="#788896"/>
</linearGradient>
<linearGradient id="paint3_linear_176_235" x1="146.307" y1="516.919" x2="146.307" y2="511.606" gradientUnits="userSpaceOnUse">
<stop stop-color="#BCD1E8"/>
<stop offset="1" stop-color="#788896"/>
</linearGradient>
<linearGradient id="paint4_linear_176_235" x1="27.7344" y1="13.5074" x2="54.7496" y2="13.5074" gradientUnits="userSpaceOnUse">
<stop stop-color="#99AAC9"/>
<stop offset="1" stop-color="#515D7D"/>
</linearGradient>
<linearGradient id="paint5_linear_176_235" x1="27.7344" y1="3.0794" x2="31.7287" y2="3.0794" gradientUnits="userSpaceOnUse">
<stop stop-color="#5A5D75"/>
<stop offset="1" stop-color="#5B597D"/>
</linearGradient>
<linearGradient id="paint6_linear_176_235" x1="290.4" y1="516.919" x2="290.4" y2="511.606" gradientUnits="userSpaceOnUse">
<stop stop-color="#BCD1E8"/>
<stop offset="1" stop-color="#788896"/>
</linearGradient>
<linearGradient id="paint7_linear_176_235" x1="615.979" y1="3461.94" x2="855.334" y2="3461.94" gradientUnits="userSpaceOnUse">
<stop stop-color="#5A5D75"/>
<stop offset="1" stop-color="#5B597D"/>
</linearGradient>
<linearGradient id="paint8_linear_176_235" x1="23.7402" y1="50.9507" x2="27.7346" y2="50.9507" gradientUnits="userSpaceOnUse">
<stop stop-color="#5B597D"/>
<stop offset="1" stop-color="#707491"/>
</linearGradient>
<linearGradient id="paint9_linear_176_235" x1="0.749023" y1="28.9967" x2="6.87776" y2="28.9967" gradientUnits="userSpaceOnUse">
<stop stop-color="#46435E"/>
<stop offset="1" stop-color="#4A4D61"/>
</linearGradient>
<linearGradient id="paint10_linear_176_235" x1="881.416" y1="3458.1" x2="1120.77" y2="3458.1" gradientUnits="userSpaceOnUse">
<stop stop-color="#46435E"/>
<stop offset="1" stop-color="#4A4D61"/>
</linearGradient>
<linearGradient id="paint11_linear_176_235" x1="27.7344" y1="50.9507" x2="31.7287" y2="50.9507" gradientUnits="userSpaceOnUse">
<stop stop-color="#5D617A"/>
<stop offset="1" stop-color="#46435E"/>
</linearGradient>
<linearGradient id="paint12_linear_176_235" x1="284.271" y1="519.706" x2="296.59" y2="519.706" gradientUnits="userSpaceOnUse">
<stop stop-color="#46435E"/>
<stop offset="1" stop-color="#4A4D61"/>
</linearGradient>
<radialGradient id="paint13_radial_176_235" cx="0" cy="0" r="1" gradientUnits="userSpaceOnUse" gradientTransform="translate(21.636 21.7705) scale(26.07)">
<stop stop-color="#0F9487"/>
<stop offset="0.24" stop-color="#0B6C6A"/>
<stop offset="0.46" stop-color="#084F55"/>
<stop offset="0.58" stop-color="#07444D"/>
<stop offset="0.71" stop-color="#074047"/>
<stop offset="0.88" stop-color="#083436"/>
<stop offset="1" stop-color="#082925"/>
</radialGradient>
<radialGradient id="paint14_radial_176_235" cx="0" cy="0" r="1" gradientUnits="userSpaceOnUse" gradientTransform="translate(15.6593 13.5381) scale(31.7414)">
<stop stop-color="#008F8C"/>
<stop offset="1"/>
</radialGradient>
<radialGradient id="paint15_radial_176_235" cx="0" cy="0" r="1" gradientUnits="userSpaceOnUse" gradientTransform="translate(509.904 2281.94) scale(200.826 200.92)">
<stop stop-color="#008F8C"/>
<stop offset="1"/>
</radialGradient>
<radialGradient id="paint16_radial_176_235" cx="0" cy="0" r="1" gradientUnits="userSpaceOnUse" gradientTransform="translate(823.137 3972.47) scale(248.231 321.393)">
<stop stop-color="#008F8C"/>
<stop offset="1"/>
</radialGradient>
<clipPath id="clip0_176_235">
<rect width="54" height="54" fill="white" transform="translate(0.749023)"/>
</clipPath>
</defs>
</svg>
