<svg width="229" height="269" viewBox="0 0 229 269" fill="none" xmlns="http://www.w3.org/2000/svg">
<g clip-path="url(#clip0_176_444)">
<path fill-rule="evenodd" clip-rule="evenodd" d="M8.38729 89.9982C28.6785 87.2927 43.2205 83.2345 48.2933 78.1617C49.0366 77.4709 49.549 76.5678 49.7608 75.5754C49.9726 74.583 49.8736 73.5495 49.477 72.6154C46.0684 62.1173 44.1891 51.1831 43.8969 40.1494C43.8969 46.6426 26.2436 52.2903 -0.0673828 55.334C4.03544 61.2388 9.32166 66.2256 15.4554 69.9775C14.0591 76.9615 11.6553 83.7055 8.31959 89.9982H8.38729Z" fill="url(#paint0_linear_176_444)"/>
<path fill-rule="evenodd" clip-rule="evenodd" d="M42.1046 49.3475C36.4907 53.8115 22.4896 57.5993 3.65261 60.0004C2.73951 58.9858 1.92786 57.9374 1.11621 56.8891C20.8325 54.5556 35.5775 50.7002 41.4282 46.1685C42.6004 45.3279 43.4858 44.1473 43.9646 42.7866C43.9646 43.9703 44.1336 45.2892 44.2689 46.7096C43.7474 47.6977 43.0071 48.5536 42.1046 49.2122V49.3475Z" fill="url(#paint1_linear_176_444)"/>
<path fill-rule="evenodd" clip-rule="evenodd" d="M10.9574 84.5198C29.1857 81.882 42.4089 77.7561 47.2788 73.3596C48.0361 72.686 48.5773 71.8036 48.8344 70.8232C49.0373 71.4658 49.2741 72.0745 49.477 72.6156V72.8523C49.4771 73.5508 49.333 74.2417 49.0536 74.8818C48.7743 75.5219 48.3657 76.0975 47.8537 76.5724C42.8485 81.3747 28.6784 85.5006 9.16504 88.1723C9.73996 86.9886 10.3149 85.7711 10.856 84.5198H10.9574Z" fill="url(#paint2_linear_176_444)"/>
<path fill-rule="evenodd" clip-rule="evenodd" d="M26.2095 57.1271C25.8375 48.74 34.0215 42.5512 43.4908 40.4883C44.8435 52.4601 50.0517 67.0698 49.8826 74.7128C49.8826 71.6015 45.7905 68.5916 38.046 65.92C30.3015 63.2483 26.2095 60.2046 26.2095 57.1271V57.1271Z" fill="url(#paint3_linear_176_444)"/>
<path fill-rule="evenodd" clip-rule="evenodd" d="M220.6 89.9982C200.309 87.2927 185.733 83.2345 180.66 78.1617C179.925 77.4654 179.418 76.5626 179.207 75.5724C178.996 74.5821 179.09 73.5511 179.476 72.6154C182.908 62.122 184.8 51.186 185.09 40.1494C185.09 46.6426 202.744 52.2903 229.055 55.334C224.952 61.2388 219.665 66.2256 213.532 69.9775C214.913 76.9658 217.317 83.712 220.668 89.9982H220.6Z" fill="url(#paint4_linear_176_444)"/>
<path fill-rule="evenodd" clip-rule="evenodd" d="M187.051 49.3475C192.631 53.8115 206.632 57.5993 225.503 60.0004C226.382 58.9858 227.228 57.9374 228.006 56.8891C208.289 54.5556 193.578 50.7002 187.728 46.1685C186.558 45.3178 185.664 44.1417 185.157 42.7866C185.157 43.9703 185.157 45.2892 184.887 46.7096C185.398 47.7048 186.14 48.5629 187.051 49.2122V49.3475Z" fill="url(#paint5_linear_176_444)"/>
<path fill-rule="evenodd" clip-rule="evenodd" d="M218.029 84.5198C199.801 81.882 186.578 77.7561 181.708 73.3596C180.939 72.6957 180.395 71.8094 180.152 70.8232C179.958 71.4322 179.733 72.0305 179.476 72.6156C179.476 72.6156 179.476 72.7847 179.476 72.8523C179.469 73.5486 179.607 74.2386 179.881 74.8789C180.154 75.5192 180.558 76.0958 181.065 76.5724C186.07 81.3747 200.241 85.5006 219.754 88.1723C219.179 86.9886 218.638 85.7711 218.097 84.5198H218.029Z" fill="url(#paint6_linear_176_444)"/>
<path fill-rule="evenodd" clip-rule="evenodd" d="M202.743 57.1271C203.149 48.74 194.931 42.5512 185.462 40.4883C184.143 52.4601 178.935 67.0698 179.104 74.7128C179.104 71.6015 183.196 68.5916 190.94 65.92C198.685 63.2483 202.743 60.2046 202.743 57.1271V57.1271Z" fill="url(#paint7_linear_176_444)"/>
</g>
<path fill-rule="evenodd" clip-rule="evenodd" d="M113.733 245.313C124.673 244.153 135.612 242.827 146.884 241.17C163.459 238.766 180.034 235.866 196.609 232.219C195.551 226.175 195.134 220.035 195.366 213.903V37.9579C195.134 31.8259 195.551 25.6866 196.609 19.6422C180.034 15.9957 163.459 13.0951 146.884 10.6916C136.027 9.03413 125.087 7.70812 113.733 6.54785C102.876 7.70812 91.9368 9.03413 81.0801 10.6916C64.5049 13.0951 47.9297 15.9957 31.3545 19.6422C32.4129 25.6866 32.8296 31.8259 32.5977 37.9579V213.903C32.8296 220.035 32.4129 226.175 31.3545 232.219C47.9297 235.866 64.5049 238.766 81.0801 241.17C91.9368 242.827 102.876 244.153 113.733 245.313Z" fill="url(#paint9_radial_176_444)"/>
<path class="card-img-bg" fill-rule="evenodd" clip-rule="evenodd" d="M114.266 245.817C125.042 244.612 135.817 243.126 146.518 241.438C162.718 238.827 179.215 235.774 195.303 231.837C194.256 225.408 193.845 218.876 194.077 212.353V42.7036C193.845 36.1804 194.256 29.649 195.303 23.2199C179.215 19.2026 162.718 16.2298 146.518 13.6186C135.817 11.9313 125.042 10.4449 114.266 9.23975C103.491 10.4449 92.7531 11.9313 82.0151 13.6186C65.8151 16.2298 49.3551 19.2829 33.2295 23.2199C34.2908 29.6473 34.7143 36.1789 34.4928 42.7036V212.353C34.7143 218.878 34.2908 225.41 33.2295 231.837C49.3551 235.854 65.8151 238.827 82.0151 241.438C92.7531 243.126 103.491 244.612 114.266 245.817V245.817Z" fill="url(#paint8_radial_176_444)"/>
<g style="mix-blend-mode:screen" opacity="0.5">
<path fill-rule="evenodd" clip-rule="evenodd" d="M145.474 16.908C161.138 18.8141 177.133 21.1346 192.713 24.1182C177.05 20.5545 161.055 17.8196 145.308 15.8306C134.976 14.2836 124.534 12.9576 113.981 11.8525C103.539 12.9023 93.0965 14.2283 82.6541 15.8306C66.9077 18.1511 50.9126 20.886 35.249 24.1182C50.8297 21.1346 66.8247 18.8141 82.4883 16.908C92.9307 15.6648 103.456 14.5046 113.898 13.5929C124.424 14.5046 134.949 15.6648 145.391 16.908H145.474Z" fill="#4D5E6E"/>
</g>
<g style="mix-blend-mode:color-burn" opacity="0.2">
<path fill-rule="evenodd" clip-rule="evenodd" d="M145.474 235.038C161.138 233.132 177.133 230.812 192.713 227.828C177.05 231.392 161.055 234.127 145.308 236.116C134.976 237.663 124.534 238.989 113.981 240.094C103.539 238.989 93.0965 237.663 82.6541 236.116C66.9077 233.795 50.9126 231.06 35.249 227.828C50.8297 230.812 66.8247 233.132 82.4883 235.038C92.9307 236.281 103.456 237.442 113.898 238.353C124.424 237.442 134.949 236.281 145.391 235.038H145.474Z" fill="#35424F"/>
</g>
<path fill-rule="evenodd" clip-rule="evenodd" d="M199.593 19.9726C197.52 27.0133 196.679 34.3591 197.106 41.6861V210.173C196.679 217.5 197.52 224.846 199.593 231.886L207.88 235.616C204.838 230.619 203.206 224.891 203.156 219.041C202.493 215.891 201.002 214.068 201.002 212.991C201.395 211.864 202.082 210.863 202.991 210.09V87.5165C202.991 84.7816 201.333 81.3008 201.333 78.5659C201.333 77.0741 202.991 76.2454 202.991 74.7536C202.201 70.341 202.201 65.8232 202.991 61.4106C202.09 60.5092 201.584 59.287 201.584 58.0127C201.584 56.7383 202.09 55.5161 202.991 54.6147V41.6861C201.859 32.9005 203.573 23.9835 207.88 16.2432L199.593 19.9726V19.9726Z" fill="url(#paint10_linear_176_444)"/>
<path fill-rule="evenodd" clip-rule="evenodd" d="M27.8732 19.9731C45.5258 15.7465 63.6756 12.5972 81.494 9.94515C92.2678 8.37051 102.959 6.9616 113.733 5.88422V0.331543L103.953 1.24318C102.71 1.24318 101.218 2.9007 99.478 3.31508C98.0734 3.31684 96.6862 3.0054 95.4172 2.40344C78.842 4.88972 62.2668 7.54175 46.6861 10.691C43.7294 11.1826 40.7309 11.3769 37.7355 11.2712C36.7409 11.2712 36.078 13.6746 35.1663 13.9232C34.2547 14.1718 32.68 13.0944 31.7684 13.3431C27.9775 14.7503 24.0229 15.6693 20 16.078L27.8732 19.8074V19.9731Z" fill="url(#paint11_linear_176_444)"/>
<path fill-rule="evenodd" clip-rule="evenodd" d="M81.4938 9.94292C63.6755 12.5949 45.5256 15.7442 27.873 19.9709L34.8346 24.1147C50.4982 20.551 66.5762 17.7333 82.3226 15.8271C92.765 14.3353 103.29 12.9265 113.733 11.932V6.29639C102.959 7.37377 92.2677 8.78265 81.4938 10.3573V9.94292Z" fill="url(#paint12_linear_176_444)"/>
<path fill-rule="evenodd" clip-rule="evenodd" d="M113.732 5.88419C124.506 6.96157 135.28 8.37048 145.971 9.94512C163.872 12.5972 182.022 15.7464 199.592 19.9731L207.88 16.2437C203.39 14.8947 198.824 13.8154 194.205 13.0115C189.867 13.4024 185.498 13.2632 181.193 12.5972C179.359 11.8659 177.695 10.7658 176.304 9.36499C159.729 6.21571 141.413 3.39792 124.258 1.0774C120.849 2.05358 117.194 1.66727 114.064 0V5.55271L113.732 5.88419Z" fill="url(#paint13_linear_176_444)"/>
<path fill-rule="evenodd" clip-rule="evenodd" d="M145.971 9.94473C135.28 8.37008 124.506 6.96118 113.732 5.88379V11.2707C124.258 12.2653 134.783 13.6742 145.225 15.1659C160.972 17.4864 177.05 20.3042 192.713 23.4535L199.592 19.3097C182.022 15.083 163.872 11.9337 145.971 9.2817V9.94473Z" fill="url(#paint14_linear_176_444)"/>
<path fill-rule="evenodd" clip-rule="evenodd" d="M192.714 24.1179C191.725 29.9192 191.336 35.8068 191.553 41.6876V181.002C192.747 182.732 193.387 184.784 193.387 186.886C193.387 188.988 192.747 191.041 191.553 192.771V210.174C191.336 216.055 191.725 221.943 192.714 227.744L199.592 231.888C197.52 224.847 196.678 217.501 197.106 210.174V41.6876C196.678 34.3606 197.52 27.0148 199.592 19.9741L192.714 24.1179V24.1179Z" fill="url(#paint15_linear_176_444)"/>
<path fill-rule="evenodd" clip-rule="evenodd" d="M27.873 19.9741C30.0144 27.0015 30.8844 34.3546 30.4422 41.6876V210.174C30.8844 217.508 30.0144 224.861 27.873 231.888L34.8346 227.744C35.823 221.943 36.2118 216.055 35.9949 210.174C35.9057 208.452 35.4836 206.764 34.7518 205.202C34.7518 204.705 35.9949 203.71 35.9949 202.301V41.6876C36.2118 35.8068 35.823 29.9192 34.8346 24.1179L27.873 19.9741V19.9741Z" fill="url(#paint16_linear_176_444)"/>
<path fill-rule="evenodd" clip-rule="evenodd" d="M30.4423 41.6861C30.8845 34.353 30.0145 26.9999 27.8732 19.9726L20 16.2432C23.2428 21.6405 24.8813 27.8498 24.7239 34.1444C25.5812 34.8812 26.1893 35.8656 26.4643 36.9622C26.3485 38.6448 25.8066 40.2704 24.8897 41.6861C25.793 44.3748 25.793 47.285 24.8897 49.9737C24.8897 50.5538 26.1329 49.9737 26.1329 50.8853C26.1329 51.797 24.8897 52.7915 24.8897 53.3716V168.735C26.63 171.801 26.7958 173.542 24.8897 173.542V177.768C24.8897 179.343 26.8787 179.426 26.8787 181.001C26.8787 182.575 24.8897 186.47 24.8897 188.459V210.173C26.0211 218.959 24.3075 227.875 20 235.616L27.8732 231.886C30.0145 224.859 30.8845 217.506 30.4423 210.173V75.3337C31.1882 73.6762 31.8512 72.7646 31.7684 71.6043C31.4245 70.6483 30.98 69.7315 30.4423 68.8694V41.6861Z" fill="url(#paint17_linear_176_444)"/>
<path fill-rule="evenodd" clip-rule="evenodd" d="M82.3226 236.443C66.5762 234.122 50.4982 231.305 34.8346 228.155L27.873 232.299C45.5256 236.526 63.6755 239.675 81.4938 242.327C92.2677 243.902 102.959 245.311 113.733 246.388V240.752C103.29 239.675 92.765 238.349 82.3226 236.857V236.443Z" fill="url(#paint18_linear_176_444)"/>
<path fill-rule="evenodd" clip-rule="evenodd" d="M81.494 241.916C63.6756 239.264 45.5258 236.114 27.8732 231.888L20 235.617C25.8842 237.109 32.2657 238.601 39.0615 240.01C41.7135 238.435 43.8683 240.009 45.9402 241.418L48.5922 241.916C48.5922 240.755 49.5038 240.01 49.7524 240.092C50.0011 240.175 51.41 242.496 53.8134 242.91C65.4989 245.148 76.7701 246.888 89.0357 248.629C92.185 248.629 93.511 247.054 97.3233 247.385C102.988 248.134 108.548 249.524 113.898 251.529V245.977C103.125 244.899 92.4336 243.49 81.6597 241.916H81.494Z" fill="url(#paint19_linear_176_444)"/>
<path fill-rule="evenodd" clip-rule="evenodd" d="M113.732 240.339V245.975C124.506 244.897 135.28 243.489 145.971 241.914C163.872 239.262 182.022 236.113 199.592 231.886L192.713 227.742C177.05 231.306 160.972 234.124 145.225 236.03C134.783 237.522 124.258 238.848 113.732 239.925V240.339Z" fill="url(#paint20_linear_176_444)"/>
<path fill-rule="evenodd" clip-rule="evenodd" d="M145.971 241.916C135.28 243.491 124.506 244.899 113.732 245.977V251.612C128.319 250.203 143.899 248.049 158.983 245.562C163.045 244.085 167.341 243.355 171.663 243.408C173.237 243.408 174.729 241.087 176.304 240.838C177.878 240.59 178.044 242.164 178.873 241.999C189.232 240.01 199.012 237.855 207.548 235.7L199.26 231.971C181.691 236.197 163.541 239.347 145.64 241.999L145.971 241.916Z" fill="url(#paint21_linear_176_444)"/>
<path fill-rule="evenodd" clip-rule="evenodd" d="M112.738 4.80557C90.4514 7.32925 68.3184 11.0642 46.4375 15.9938C58.123 13.6733 69.9743 11.6843 81.6598 9.94387C93.3453 8.20347 103.125 6.96032 113.899 5.88293C123.678 6.87744 133.374 8.12058 142.988 9.4466C143.485 9.4466 143.9 10.524 144.314 10.6069C144.728 10.6897 145.557 9.86099 146.137 9.94387C157.906 11.6843 169.674 13.6733 181.442 15.9938C167.271 12.6788 152.519 10.0267 137.933 7.70621C137.933 7.70621 137.104 5.0542 136.689 4.97132C136.275 4.88844 135.943 7.45758 135.612 7.3747L114.976 4.63981L113.899 0.744629L112.904 4.63981L112.738 4.80557Z" fill="#89EFF4"/>
<path fill-rule="evenodd" clip-rule="evenodd" d="M113.733 244.152C90.6104 242.246 64.0073 238.599 40.3877 234.704C54.0622 237.522 67.9025 239.925 81.8257 241.914C92.5995 243.489 103.291 244.898 114.064 245.975C124.838 244.898 135.612 243.489 146.303 241.914C159.978 239.925 173.818 237.522 187.741 234.704C164.121 238.599 137.518 242.246 114.396 244.152H113.733Z" fill="#73BDC9"/>
<path fill-rule="evenodd" clip-rule="evenodd" d="M29.4474 207.52C29.8421 215.432 28.8033 223.35 26.3811 230.892L22.1543 234.538L27.8728 231.886C30.0141 224.859 30.8841 217.506 30.4419 210.173V113.291L29.6132 195.504C28.7016 195.504 28.7016 196.332 29.6132 197.493V203.294C29.6132 203.957 28.2872 203.294 28.2872 204.205C28.2872 205.117 29.5303 206.775 29.5303 207.52H29.4474Z" fill="#73BDC9"/>
<path fill-rule="evenodd" clip-rule="evenodd" d="M198.017 207.52C197.707 215.428 198.744 223.331 201.084 230.892L205.31 234.538L199.592 231.886C197.801 226.349 196.96 220.549 197.105 214.731C194.039 210.753 194.039 209.178 197.105 210.173V113.291L198.017 207.52Z" fill="#73BDC9"/>
<g clip-path="url(#clip1_176_444)">
<path fill-rule="evenodd" clip-rule="evenodd" d="M114.249 18.6134C68.5621 18.6134 30.416 25.0855 21.5559 33.6585C20.8287 34.3614 20.3275 35.2658 20.1166 36.2559C19.9057 37.246 19.9947 38.2766 20.3722 39.2157C23.8074 49.7406 25.6984 60.7098 25.9859 71.7796C25.9859 62.0545 65.5185 54.1592 114.249 54.1592C162.98 54.1592 202.513 62.0545 202.513 71.7796C202.808 60.622 204.699 49.5645 208.126 38.9446C208.513 38.0071 208.607 36.974 208.396 35.9818C208.185 34.9897 207.678 34.085 206.943 33.3874C198.083 24.8144 159.971 18.3423 114.249 18.3423V18.6134Z" fill="#1181C7"/>
<path fill-rule="evenodd" clip-rule="evenodd" d="M114.249 53.9896V18.6133C159.97 18.6133 198.082 25.0854 206.943 33.6584C207.678 34.356 208.184 35.2607 208.396 36.2528C208.607 37.245 208.513 38.2781 208.126 39.2156C204.724 49.7487 202.834 60.7131 202.513 71.7795C202.513 62.0544 163.014 54.1591 114.249 54.1591V53.9896Z" fill="url(#paint22_radial_176_444)"/>
<path style="mix-blend-mode:screen" fill-rule="evenodd" clip-rule="evenodd" d="M204.508 35.9968C201.255 45.9512 199.466 56.3275 199.199 66.7986C198.015 65.9753 196.758 65.2607 195.445 64.6638C195.889 54.2414 197.534 43.9054 200.349 33.862C200.606 33.1339 200.708 32.36 200.65 31.5899C200.592 30.8197 200.374 30.0702 200.011 29.3892C201.361 29.9552 202.671 30.6118 203.934 31.3545C205.185 32.1678 204.948 34.4042 204.373 35.9968H204.508Z" fill="url(#paint23_radial_176_444)"/>
<path fill-rule="evenodd" clip-rule="evenodd" d="M114.249 53.9896V18.6133C68.5621 18.6133 30.416 25.0854 21.5559 33.6584C20.8287 34.3613 20.3275 35.2657 20.1166 36.2558C19.9057 37.2459 19.9947 38.2765 20.3722 39.2156C23.8074 49.7405 25.6984 60.7097 25.9859 71.7795C25.9859 62.0544 65.5185 54.1591 114.249 54.1591V53.9896Z" fill="url(#paint24_radial_176_444)"/>
<path style="mix-blend-mode:screen" fill-rule="evenodd" clip-rule="evenodd" d="M24.024 35.9968C27.2614 45.9552 29.0495 56.3291 29.3334 66.7986C30.5134 65.9681 31.7705 65.2532 33.0872 64.6638C32.5997 54.2361 30.9087 43.9 28.0483 33.862C27.7778 33.1378 27.6651 32.3641 27.7176 31.5926C27.7701 30.8211 27.9866 30.0698 28.3528 29.3892C27.0133 29.9548 25.7139 30.6114 24.4637 31.3545C23.1786 32.1678 23.4491 34.4042 24.024 35.9968V35.9968Z" fill="url(#paint25_radial_176_444)"/>
<path style="mix-blend-mode:screen" fill-rule="evenodd" clip-rule="evenodd" d="M114.249 18.6134C68.5621 18.6134 30.416 25.0855 21.5559 33.6585C20.8287 34.3614 20.3275 35.2658 20.1166 36.2559C19.9057 37.246 19.9947 38.2766 20.3722 39.2157C23.8074 49.7406 25.6984 60.7098 25.9859 71.7796C25.9859 62.0545 65.5185 54.1592 114.249 54.1592C162.98 54.1592 202.513 62.0545 202.513 71.7796C202.808 60.622 204.699 49.5645 208.126 38.9446C208.513 38.0071 208.607 36.974 208.396 35.9818C208.185 34.9897 207.678 34.085 206.943 33.3874C198.083 24.8144 159.971 18.3423 114.249 18.3423V18.6134Z" fill="url(#paint26_radial_176_444)"/>
<g style="mix-blend-mode:screen" opacity="0.5">
<path fill-rule="evenodd" clip-rule="evenodd" d="M114.249 19.1893C160.207 19.1893 198.556 25.6614 207.484 34.2345C207.625 34.3653 207.75 34.5133 207.856 34.675C207.612 34.2363 207.304 33.8366 206.943 33.489C198.083 24.916 159.97 18.4438 114.249 18.4438C68.5281 18.4438 30.4159 24.916 21.5557 33.489C21.2145 33.8544 20.9087 34.2515 20.6426 34.675L21.0485 34.2345C29.9425 25.6614 68.3928 19.1893 114.249 19.1893Z" fill="#89EFF4"/>
</g>
<path fill-rule="evenodd" clip-rule="evenodd" d="M21.793 39.453C28.3536 30.4056 67.2774 23.493 114.25 23.493V20.1045C64.4029 20.1045 23.6191 27.8304 20.4065 37.6232C20.2954 37.9506 20.2382 38.294 20.2373 38.6398C20.2513 38.7637 20.2513 38.8887 20.2373 39.0125C20.474 39.5886 20.677 40.1646 20.9137 40.7745C21.0866 40.2853 21.3379 39.8275 21.6577 39.4192L21.793 39.453Z" fill="url(#paint27_linear_176_444)"/>
<path fill-rule="evenodd" clip-rule="evenodd" d="M27.2037 66.8322C34.2715 58.5303 70.5577 52.1937 114.25 52.1937V48.8052C70.2871 48.8052 33.5952 55.2095 26.5611 63.6131C26.1844 64.056 25.8661 64.5458 25.6143 65.0702C25.7495 66.516 25.8511 67.8375 25.9187 69.0348C26.1763 68.2131 26.6155 67.4602 27.2037 66.8322V66.8322Z" fill="url(#paint28_linear_176_444)"/>
<path fill-rule="evenodd" clip-rule="evenodd" d="M206.74 39.453C200.145 30.4056 161.255 23.493 114.249 23.493V20.1045C164.096 20.1045 204.88 27.8304 208.126 37.6232C208.177 37.9602 208.177 38.3029 208.126 38.6398C208.14 38.7637 208.14 38.8887 208.126 39.0125C207.923 39.5886 207.686 40.1646 207.484 40.7745C207.297 40.2915 207.047 39.8356 206.74 39.4192V39.453Z" fill="url(#paint29_linear_176_444)"/>
<path fill-rule="evenodd" clip-rule="evenodd" d="M201.329 66.8322C194.227 58.5303 157.941 52.1937 114.249 52.1937V48.8052C158.212 48.8052 194.904 55.2095 201.971 63.6131C202.347 64.0499 202.655 64.5412 202.884 65.0702C202.884 66.5273 202.648 67.8488 202.614 69.0348C202.356 68.2131 201.917 67.4602 201.329 66.8322V66.8322Z" fill="url(#paint30_linear_176_444)"/>
</g>
<g class="card-svg-img" clip-path="url(#clip2_176_444)">
<path d="M122.018 146.992C122.018 146.992 98.0719 145.7 96.6493 145.338C95.2267 144.976 90.534 141.332 90.534 141.332L80.3311 133.417L74.9883 125.883L87.4699 122.924L99.0568 125.838L105.243 124.546L125.501 134.929L122.018 146.992Z" fill="#186181"/>
<path d="M87.5212 130.012C88.2486 129.864 94.3381 127.932 94.3381 127.932C94.3381 127.932 92.4649 124.191 91.3899 123.919L87.4504 122.924L74.9688 125.883C74.9688 125.883 82.5582 129.534 83.2791 129.941C84.0001 130.348 86.8131 130.154 87.5212 130.012Z" fill="url(#paint31_linear_176_444)"/>
<path d="M123.852 141.358L107.592 134.897L96.1661 133.333L89.4521 134.697L96.6489 145.345C98.0715 145.681 121.464 146.999 121.464 146.999L123.852 141.358Z" fill="#00618E"/>
<path d="M84.4248 130.168C84.4248 130.168 88.9308 134.044 89.42 134.69C89.9093 135.337 123.569 142.392 123.569 142.392C123.569 142.392 106.833 127.835 104.477 128.223C102.121 128.611 94.338 127.932 94.338 127.932L84.4248 130.168Z" fill="#00618E"/>
<path d="M96.6493 145.332L89.4204 134.697L84.4251 130.167L74.9883 125.884L80.3311 133.417L96.6493 145.332Z" fill="url(#paint32_linear_176_444)"/>
<path d="M101.406 129.437C101.406 129.437 91.8013 124.65 90.6233 122.847C89.4453 121.044 86.5164 114.293 86.5164 114.293L84.6367 99.0767C84.6367 99.0767 103.388 107.224 104.103 107.812C104.817 108.4 111.827 121.981 111.827 121.981L101.406 129.437Z" fill="url(#paint33_linear_176_444)"/>
<path d="M90.3143 122.343H90.3658L92.754 107.87L84.6367 99.0767L86.5164 114.293C86.5164 114.293 89.0011 120.036 90.3143 122.343Z" fill="url(#paint34_linear_176_444)"/>
<path d="M101.29 108.374L103.465 107.463C100.06 105.777 84.6367 99.064 84.6367 99.064L92.754 107.87L101.29 108.374Z" fill="url(#paint35_linear_176_444)"/>
<path d="M101.431 106.507C96.0884 104.052 84.6367 99.0767 84.6367 99.0767L98.1547 105.854L101.431 106.507Z" fill="url(#paint36_linear_176_444)"/>
<path d="M84.6436 99.0767L86.1627 106.32L86.137 110.804L84.6436 99.0767Z" fill="url(#paint37_linear_176_444)"/>
<path d="M108.873 141.164C108.873 141.164 104.013 102.139 103.041 96.7765C102.069 91.4138 113.733 71.4103 115.677 70.4347C117.621 69.459 133.656 87.0203 135.6 89.4626C137.544 91.9049 130.257 145.067 128.796 143.606C127.335 142.146 124.695 148.485 119.456 148.969C114.216 149.454 108.873 141.164 108.873 141.164Z" fill="#1281C8"/>
<path d="M135.6 89.4629L132.15 85.554L121.084 81.9229L115.69 89.4823L111.879 100.699L108.48 115.818L107.341 128.888C108.223 135.866 108.886 141.165 108.886 141.165C108.886 141.165 114.229 149.461 119.468 148.97C124.708 148.479 127.354 142.14 128.809 143.607C128.809 143.607 131.808 112.871 131.808 109.693C131.808 106.514 133.74 94.3346 135.6 89.4629Z" fill="url(#paint38_linear_176_444)"/>
<path d="M111.866 100.679L104.746 89.4624C103.504 92.5637 102.763 95.2774 103.04 96.7764C104.012 102.139 108.872 141.164 108.872 141.164C110.203 143.153 111.787 144.958 113.584 146.533H115.664C115.664 146.533 119.159 113.847 119.455 111.895C119.751 109.944 111.866 100.679 111.866 100.679Z" fill="url(#paint39_linear_176_444)"/>
<path d="M122.558 85.0693L125.641 80.9213L124.702 77.723C120.537 73.5427 116.578 69.9697 115.69 70.4349C113.758 71.4105 102.081 91.4076 103.053 96.7768L111.879 100.653L122.558 85.0693Z" fill="url(#paint40_linear_176_444)"/>
<path d="M135.6 89.4626C133.669 87.0203 117.621 69.4332 115.677 70.4347L122.558 85.0691L135.6 89.4626Z" fill="url(#paint41_linear_176_444)"/>
<path d="M114.731 71.3779C115.491 73.4131 120.023 85.6698 119.456 85.5341C118.89 85.3984 113.328 96.6149 113.328 96.6149L110.109 98.0751C110.109 98.0751 104.561 95.9365 103.949 94.8446C103.337 93.7526 105.674 87.3368 105.674 87.3368C104.791 89.251 104.053 91.2294 103.466 93.2551C103.192 94.4129 103.056 95.5993 103.061 96.7893L111.886 100.666L122.578 85.056L115.677 70.4346C115.31 70.6916 114.99 71.0108 114.731 71.3779V71.3779Z" fill="url(#paint42_linear_176_444)"/>
<path d="M104.091 96.6215L102.971 95.9043C102.955 96.1958 102.97 96.4882 103.016 96.7765C103.988 102.139 108.848 141.164 108.848 141.164C108.848 141.164 104.799 102.398 103.814 97.1319L104.091 96.6215Z" fill="url(#paint43_linear_176_444)"/>
<path d="M110.74 100.182C110.74 100.182 118.124 110.397 118.754 111.411C119.385 112.425 115.665 146.533 115.665 146.533C115.665 146.533 119.887 112.29 119.81 111.327C119.733 110.364 112.214 100.182 112.214 100.182L111.867 100.679L110.74 100.182Z" fill="url(#paint44_linear_176_444)"/>
<path d="M122.018 83.9062L135.6 89.4628C135.6 89.4628 131.429 107.082 131.306 116.561C130.096 110.92 134.39 90.5159 134.525 89.9474C133.63 89.4628 122.204 85.5603 122.204 85.5603L122.533 85.0692L122.018 83.9062Z" fill="url(#paint45_linear_176_444)"/>
<path style="mix-blend-mode:color-dodge" d="M130.788 92.848C131.87 86.1954 127.374 79.9221 120.746 78.8363C114.118 77.7505 107.868 82.2632 106.786 88.9158C105.704 95.5684 110.2 101.842 116.828 102.927C123.456 104.013 129.706 99.5006 130.788 92.848Z" fill="url(#paint46_radial_176_444)"/>
<path style="mix-blend-mode:color-dodge" d="M128.473 116.12C130.003 109.556 125.942 102.991 119.403 101.455C112.864 99.9189 106.323 103.995 104.793 110.558C103.263 117.121 107.323 123.687 113.862 125.223C120.401 126.758 126.943 122.683 128.473 116.12Z" fill="url(#paint47_radial_176_444)"/>
<path d="M133.527 146.927C133.527 146.927 139.623 136.99 141.149 135.711C142.774 134.147 144.302 132.486 145.726 130.736L146.865 140.654L139.836 146.927H133.527Z" fill="url(#paint48_linear_176_444)"/>
<path d="M93.0895 122.415C93.0895 122.415 90.0125 130.646 90.2958 132.326C90.579 134.006 91.6733 141.546 91.6797 142.121C91.6862 142.696 101.464 148.782 101.464 148.782H112.916C112.916 148.782 117.383 134.852 116.546 132.326C115.71 129.8 104.818 122.415 104.818 122.415L93.3663 118.854L93.0895 122.415Z" fill="url(#paint49_linear_176_444)"/>
<path d="M109.916 126.078L113.34 132.403L112.915 148.775H101.464L92.1621 141.054L98.5671 126.084L109.916 126.078Z" fill="url(#paint50_linear_176_444)"/>
<path d="M93.3663 118.854L93.0895 122.395C93.0895 122.395 90.0125 130.627 90.2958 132.306C90.579 133.986 91.6733 141.526 91.6797 142.102L98.5675 126.065L93.3663 118.854Z" fill="url(#paint51_linear_176_444)"/>
<path d="M93.1924 121.116L93.3662 118.874L93.1924 121.116Z" fill="url(#paint52_linear_176_444)"/>
<path d="M109.916 126.078C107.258 124.069 104.818 122.415 104.818 122.415L93.3662 118.854L98.5674 126.065H109.916V126.078Z" fill="url(#paint53_linear_176_444)"/>
<path d="M93.0887 122.414C93.0887 122.414 90.0182 130.646 90.295 132.326C90.5718 134.006 91.6725 141.546 91.679 142.121C91.679 142.153 91.7176 142.198 91.7627 142.256L98.5667 126.104L93.726 118.997L93.3655 118.887L93.0887 122.414Z" fill="url(#paint54_linear_176_444)"/>
<path d="M94.4219 119.197L93.3662 118.874L93.2826 119.927L93.3662 119.991C93.3662 119.991 97.8722 125.587 97.8722 126.007C97.8722 126.427 91.6797 142.114 91.6797 142.114L98.9151 126.078L94.4219 119.197Z" fill="url(#paint55_linear_176_444)"/>
<path d="M98.1807 124.959L108.01 126.084H98.9145L98.1807 124.959Z" fill="url(#paint56_linear_176_444)"/>
<path d="M116.546 132.325C116.128 131.072 113.218 128.61 110.405 126.452C110.405 126.452 115.555 131.802 115.883 132.713C116.212 133.624 112.929 148.278 112.929 148.278L113.096 148.2C113.914 145.558 117.287 134.541 116.546 132.325Z" fill="url(#paint57_linear_176_444)"/>
<path d="M144.399 132.293L143.878 136.635L146.858 140.667L145.719 130.749C145.719 130.749 145.159 131.421 144.399 132.293Z" fill="url(#paint58_linear_176_444)"/>
<path d="M143.878 136.635L145.725 130.736C144.302 132.486 142.773 134.147 141.149 135.711C140.765 136.089 140.418 136.502 140.112 136.945L143.878 136.635Z" fill="url(#paint59_linear_176_444)"/>
<path d="M130.309 146.637C129.898 146.598 129.499 146.476 129.136 146.279C128.773 146.082 128.454 145.813 128.197 145.49C127.94 145.166 127.75 144.793 127.64 144.394C127.529 143.995 127.5 143.578 127.553 143.167C128.229 137.998 130.128 128.171 131.48 126.007C133.257 123.151 144.998 113.698 144.998 113.698C144.998 113.698 145.713 127.971 144.998 128.953C144.445 129.715 138.883 140.421 136.488 145.047C136.166 145.667 135.666 146.176 135.054 146.508C134.441 146.841 133.744 146.983 133.051 146.915L130.309 146.637Z" fill="url(#paint60_linear_176_444)"/>
<path d="M140.009 122.821L136.443 120.993C134.164 123.028 132.156 124.979 131.506 126.032C130.154 128.197 128.255 137.992 127.579 143.193C127.525 143.604 127.554 144.021 127.665 144.42C127.775 144.819 127.965 145.191 128.222 145.515C128.479 145.839 128.799 146.108 129.162 146.305C129.525 146.502 129.923 146.624 130.334 146.663L140.949 124.482L140.009 122.821Z" fill="url(#paint61_linear_176_444)"/>
<path d="M144.985 113.724L144.522 114.105L140.602 122.679L140.956 124.482L144.985 129.005C145.7 127.997 144.985 113.724 144.985 113.724Z" fill="url(#paint62_linear_176_444)"/>
<path d="M144.986 113.724C144.986 113.724 133.257 123.177 131.468 126.032L140.943 124.482L144.986 113.724Z" fill="url(#paint63_linear_176_444)"/>
<path d="M132.092 126.608C133.308 124.734 144.966 113.75 144.966 113.744C144.966 113.737 133.238 123.196 131.448 126.052C130.096 128.216 128.197 138.012 127.521 143.213C127.554 143.18 130.882 128.456 132.092 126.608Z" fill="url(#paint64_linear_176_444)"/>
<path d="M140.196 146.895C141.452 146.271 142.742 145.716 144.059 145.234C144.303 145.234 147.277 146.372 146.878 146.772C146.479 147.173 140.196 146.895 140.196 146.895Z" fill="url(#paint65_linear_176_444)"/>
<path style="mix-blend-mode:color-dodge" d="M100.247 140.337C106.245 140.337 111.107 135.457 111.107 129.437C111.107 123.418 106.245 118.538 100.247 118.538C94.2496 118.538 89.3877 123.418 89.3877 129.437C89.3877 135.457 94.2496 140.337 100.247 140.337Z" fill="url(#paint66_radial_176_444)"/>
<path style="mix-blend-mode:color-dodge" d="M132.092 142.121C138.089 142.121 142.951 137.24 142.951 131.221C142.951 125.201 138.089 120.321 132.092 120.321C126.094 120.321 121.232 125.201 121.232 131.221C121.232 137.24 126.094 142.121 132.092 142.121Z" fill="url(#paint67_radial_176_444)"/>
<path style="mix-blend-mode:color-dodge" d="M116.469 152.594C141.707 152.594 162.166 150.662 162.166 148.278C162.166 145.894 141.707 143.962 116.469 143.962C91.2309 143.962 70.7715 145.894 70.7715 148.278C70.7715 150.662 91.2309 152.594 116.469 152.594Z" fill="url(#paint68_radial_176_444)"/>
<path style="mix-blend-mode:color-dodge" d="M153.039 141.176C156.341 121.137 142.833 102.206 122.868 98.8923C102.903 95.5784 84.0422 109.137 80.7407 129.176C77.4391 149.215 90.9473 168.146 110.912 171.46C130.877 174.774 149.738 161.215 153.039 141.176Z" fill="url(#paint69_radial_176_444)"/>
</g>
<path d="M61.6436 32.4259L63.6619 36.2694L65.7304 32.4259H68.8581L65.6731 37.9227L68.944 43.4194H65.8306L63.6619 39.6189L61.5291 43.4194H58.3799L61.6436 37.9227L58.4944 32.4259H61.6436ZM77.0173 28.7614V43.4194H73.9183V31.7031H73.8324L70.4756 33.8073V31.0589L74.1043 28.7614H77.0173ZM81.5246 43.6055C81.0522 43.6055 80.6466 43.4385 80.3079 43.1045C79.9739 42.7657 79.8069 42.3602 79.8069 41.8878C79.8069 41.4202 79.9739 41.0194 80.3079 40.6854C80.6466 40.3514 81.0522 40.1844 81.5246 40.1844C81.9827 40.1844 82.3835 40.3514 82.727 40.6854C83.0706 41.0194 83.2423 41.4202 83.2423 41.8878C83.2423 42.2027 83.1612 42.4914 82.999 42.7538C82.8415 43.0115 82.634 43.219 82.3763 43.3765C82.1186 43.5292 81.8347 43.6055 81.5246 43.6055ZM90.7521 43.6198C89.9982 43.6151 89.2705 43.4886 88.5691 43.2405C87.8725 42.9924 87.2474 42.5892 86.6939 42.0309C86.1404 41.4727 85.7014 40.7331 85.377 39.8122C85.0573 38.8913 84.8974 37.7605 84.8974 36.4197C84.9022 35.1886 85.043 34.0888 85.3197 33.1202C85.6012 32.1468 86.002 31.3213 86.5221 30.6438C87.047 29.9662 87.6744 29.4509 88.4045 29.0978C89.1345 28.74 89.9528 28.561 90.8594 28.561C91.8376 28.561 92.7012 28.7519 93.4503 29.1336C94.1995 29.5106 94.8007 30.0235 95.2539 30.6724C95.712 31.3213 95.9888 32.049 96.0842 32.8554H93.0281C92.9088 32.3448 92.6583 31.944 92.2765 31.653C91.8948 31.3619 91.4224 31.2164 90.8594 31.2164C89.9051 31.2164 89.1798 31.6315 88.6836 32.4617C88.1922 33.292 87.9416 34.4204 87.9321 35.8471H88.0323C88.2518 35.4129 88.5476 35.0431 88.9198 34.7377C89.2967 34.4276 89.7238 34.1914 90.2009 34.0292C90.6829 33.8621 91.191 33.7786 91.7254 33.7786C92.5938 33.7786 93.3668 33.9838 94.0444 34.3942C94.7219 34.7997 95.2563 35.358 95.6476 36.069C96.0389 36.7799 96.2345 37.5935 96.2345 38.5096C96.2345 39.502 96.0031 40.3848 95.5402 41.1577C95.0822 41.9307 94.4404 42.5367 93.6149 42.9757C92.7942 43.4099 91.84 43.6246 90.7521 43.6198ZM90.7377 41.1864C91.2149 41.1864 91.6419 41.0719 92.0189 40.8428C92.3958 40.6138 92.6917 40.3037 92.9064 39.9124C93.1211 39.5211 93.2285 39.0822 93.2285 38.5955C93.2285 38.1088 93.1211 37.6722 92.9064 37.2857C92.6964 36.8992 92.4054 36.5914 92.0332 36.3624C91.661 36.1334 91.2364 36.0189 90.7592 36.0189C90.4013 36.0189 90.0697 36.0857 89.7644 36.2193C89.4638 36.3529 89.1989 36.539 88.9699 36.7775C88.7456 37.0161 88.5691 37.2928 88.4403 37.6078C88.3114 37.9179 88.247 38.2495 88.247 38.6026C88.247 39.075 88.3544 39.5068 88.5691 39.8981C88.7886 40.2893 89.0844 40.6019 89.4566 40.8357C89.8335 41.0695 90.2606 41.1864 90.7377 41.1864ZM106.281 28.7614V43.4194H103.182V28.7614H106.281ZM108.774 43.4194V32.4259H111.68V34.3655H111.809C112.038 33.7214 112.419 33.2132 112.954 32.8411C113.488 32.4689 114.128 32.2828 114.872 32.2828C115.626 32.2828 116.268 32.4713 116.797 32.8482C117.327 33.2204 117.68 33.7262 117.856 34.3655H117.971C118.195 33.7357 118.601 33.2323 119.188 32.8554C119.779 32.4736 120.478 32.2828 121.285 32.2828C122.311 32.2828 123.143 32.6096 123.783 33.2633C124.427 33.9122 124.749 34.8331 124.749 36.026V43.4194H121.707V36.6272C121.707 36.0165 121.545 35.5584 121.22 35.253C120.896 34.9477 120.49 34.795 120.004 34.795C119.45 34.795 119.018 34.9715 118.708 35.3246C118.398 35.6729 118.243 36.1334 118.243 36.706V43.4194H115.287V36.5628C115.287 36.0236 115.132 35.5942 114.822 35.2745C114.516 34.9548 114.113 34.795 113.612 34.795C113.273 34.795 112.968 34.8809 112.696 35.0526C112.429 35.2196 112.217 35.4558 112.059 35.7612C111.902 36.0618 111.823 36.4149 111.823 36.8205V43.4194H108.774ZM127.157 47.542V32.4259H130.163V34.2725H130.299C130.433 33.9767 130.626 33.6761 130.879 33.3707C131.137 33.0605 131.471 32.8029 131.881 32.5977C132.296 32.3878 132.811 32.2828 133.427 32.2828C134.229 32.2828 134.968 32.4927 135.646 32.9126C136.323 33.3277 136.865 33.9552 137.27 34.795C137.676 35.63 137.879 36.6773 137.879 37.937C137.879 39.1633 137.681 40.1987 137.285 41.0432C136.894 41.883 136.359 42.52 135.682 42.9542C135.009 43.3836 134.255 43.5984 133.42 43.5984C132.828 43.5984 132.325 43.5005 131.91 43.3049C131.499 43.1093 131.163 42.8636 130.901 42.5677C130.638 42.2671 130.438 41.9641 130.299 41.6588H130.206V47.542H127.157ZM130.142 37.9227C130.142 38.5764 130.233 39.1466 130.414 39.6333C130.595 40.12 130.858 40.4993 131.201 40.7713C131.545 41.0385 131.962 41.1721 132.454 41.1721C132.95 41.1721 133.37 41.0361 133.713 40.7641C134.057 40.4874 134.317 40.1056 134.493 39.6189C134.675 39.1275 134.765 38.5621 134.765 37.9227C134.765 37.2881 134.677 36.7298 134.501 36.2479C134.324 35.766 134.064 35.389 133.72 35.117C133.377 34.8451 132.955 34.7091 132.454 34.7091C131.957 34.7091 131.538 34.8403 131.194 35.1027C130.855 35.3652 130.595 35.7373 130.414 36.2193C130.233 36.7012 130.142 37.269 130.142 37.9227ZM143.046 43.627C142.345 43.627 141.72 43.5053 141.171 43.262C140.622 43.0139 140.188 42.6488 139.869 42.1669C139.554 41.6802 139.396 41.0742 139.396 40.349C139.396 39.7382 139.508 39.2253 139.733 38.8102C139.957 38.3951 140.262 38.0611 140.649 37.8082C141.035 37.5553 141.474 37.3644 141.966 37.2356C142.462 37.1068 142.982 37.0161 143.526 36.9636C144.165 36.8968 144.681 36.8348 145.072 36.7775C145.463 36.7155 145.747 36.6248 145.924 36.5056C146.1 36.3863 146.188 36.2097 146.188 35.9759V35.933C146.188 35.4797 146.045 35.129 145.759 34.8809C145.477 34.6327 145.077 34.5087 144.557 34.5087C144.008 34.5087 143.571 34.6304 143.247 34.8737C142.922 35.1123 142.708 35.4129 142.603 35.7755L139.783 35.5465C139.926 34.8785 140.207 34.3011 140.627 33.8144C141.047 33.323 141.589 32.946 142.252 32.6836C142.92 32.4164 143.693 32.2828 144.571 32.2828C145.182 32.2828 145.766 32.3544 146.324 32.4975C146.887 32.6406 147.386 32.8625 147.82 33.1631C148.259 33.4637 148.605 33.8502 148.858 34.3226C149.111 34.7902 149.237 35.3509 149.237 36.0045V43.4194H146.346V41.8949H146.26C146.083 42.2385 145.847 42.5415 145.551 42.8039C145.256 43.0616 144.9 43.2644 144.485 43.4123C144.07 43.5554 143.59 43.627 143.046 43.627ZM143.92 41.5228C144.368 41.5228 144.764 41.4345 145.108 41.258C145.451 41.0766 145.721 40.8333 145.916 40.5279C146.112 40.2225 146.21 39.8766 146.21 39.4901V38.3235C146.114 38.3855 145.983 38.4428 145.816 38.4953C145.654 38.543 145.47 38.5883 145.265 38.6312C145.06 38.6694 144.855 38.7052 144.65 38.7386C144.444 38.7672 144.258 38.7935 144.091 38.8173C143.733 38.8698 143.421 38.9533 143.154 39.0678C142.886 39.1824 142.679 39.3374 142.531 39.5331C142.383 39.7239 142.309 39.9625 142.309 40.2488C142.309 40.6639 142.459 40.9812 142.76 41.2007C143.065 41.4154 143.452 41.5228 143.92 41.5228ZM156.57 43.6342C155.444 43.6342 154.475 43.3956 153.664 42.9184C152.858 42.4365 152.237 41.7685 151.803 40.9144C151.374 40.0603 151.159 39.0774 151.159 37.9656C151.159 36.8396 151.376 35.8519 151.81 35.0025C152.249 34.1484 152.872 33.4828 153.678 33.0057C154.485 32.5237 155.444 32.2828 156.556 32.2828C157.515 32.2828 158.354 32.4569 159.075 32.8053C159.795 33.1536 160.366 33.6427 160.786 34.2725C161.205 34.9023 161.437 35.6419 161.48 36.4912H158.603C158.521 35.9425 158.307 35.5012 157.958 35.1672C157.615 34.8284 157.164 34.659 156.606 34.659C156.133 34.659 155.721 34.7878 155.368 35.0455C155.019 35.2984 154.747 35.6682 154.552 36.1548C154.356 36.6415 154.258 37.2308 154.258 37.9227C154.258 38.6241 154.354 39.2205 154.544 39.712C154.74 40.2035 155.014 40.578 155.368 40.8357C155.721 41.0933 156.133 41.2222 156.606 41.2222C156.954 41.2222 157.267 41.1506 157.543 41.0074C157.825 40.8643 158.056 40.6567 158.238 40.3848C158.424 40.108 158.545 39.7764 158.603 39.3899H161.48C161.432 40.2297 161.203 40.9693 160.793 41.6087C160.387 42.2433 159.826 42.7395 159.111 43.0974C158.395 43.4552 157.548 43.6342 156.57 43.6342ZM169.279 32.4259V34.7162H162.659V32.4259H169.279ZM164.162 29.7921H167.211V40.0412C167.211 40.3227 167.254 40.5422 167.34 40.6997C167.426 40.8524 167.545 40.9597 167.698 41.0218C167.855 41.0838 168.036 41.1148 168.242 41.1148C168.385 41.1148 168.528 41.1029 168.671 41.079C168.814 41.0504 168.924 41.0289 169 41.0146L169.48 43.2834C169.327 43.3312 169.112 43.386 168.836 43.4481C168.559 43.5149 168.222 43.5554 167.826 43.5697C167.092 43.5984 166.447 43.5005 165.894 43.2763C165.345 43.052 164.918 42.7037 164.613 42.2313C164.307 41.759 164.157 41.1625 164.162 40.442V29.7921Z" fill="white"/>
<g clip-path="url(#clip3_176_444)">
<g style="mix-blend-mode:multiply" opacity="0.2">
<path fill-rule="evenodd" clip-rule="evenodd" d="M67.7643 267.75C78.4742 268.053 91.7606 268.205 114.342 268.205C136.924 268.205 150.362 268.205 161.072 267.75C164.178 267.896 167.281 267.41 170.193 266.322C173.106 265.233 175.768 263.566 178.017 261.419C180.267 259.273 182.057 256.692 183.281 253.834C184.504 250.975 185.135 247.899 185.135 244.789C185.135 241.68 184.504 238.603 183.281 235.745C182.057 232.886 180.267 230.306 178.017 228.159C175.768 226.013 173.106 224.345 170.193 223.257C167.281 222.169 164.178 221.683 161.072 221.829C150.362 221.526 136.924 221.374 114.342 221.374C91.7606 221.374 78.4742 221.374 67.7643 221.829C64.6585 221.683 61.5554 222.169 58.6428 223.257C55.7301 224.345 53.0685 226.013 50.819 228.159C48.5695 230.306 46.7789 232.886 45.5554 235.745C44.332 238.603 43.7012 241.68 43.7012 244.789C43.7012 247.899 44.332 250.975 45.5554 253.834C46.7789 256.692 48.5695 259.273 50.819 261.419C53.0685 263.566 55.7301 265.233 58.6428 266.322C61.5554 267.41 64.6585 267.896 67.7643 267.75V267.75Z" fill="#33233D"/>
</g>
<path fill-rule="evenodd" clip-rule="evenodd" d="M67.7642 265.426C78.4741 265.426 91.7604 265.881 114.342 265.881C136.924 265.881 150.362 265.881 161.072 265.426C167.168 265.426 173.014 263.005 177.325 258.694C181.636 254.383 184.057 248.537 184.057 242.441C184.057 236.344 181.636 230.498 177.325 226.187C173.014 221.876 167.168 219.455 161.072 219.455C150.362 219.455 136.924 219 114.342 219C91.7604 219 78.4741 219 67.7642 219.455C61.668 219.455 55.8214 221.876 51.5107 226.187C47.2 230.498 44.7783 236.344 44.7783 242.441C44.7783 248.537 47.2 254.383 51.5107 258.694C55.8214 263.005 61.668 265.426 67.7642 265.426V265.426Z" fill="url(#paint70_linear_176_444)"/>
<path style="mix-blend-mode:screen" fill-rule="evenodd" clip-rule="evenodd" d="M114.292 264.112C97.1161 264.112 77.4644 265.072 61.3996 259.06C59.7927 258.46 58.292 257.607 56.954 256.534C55.1897 255.136 53.6995 253.423 52.5588 251.482C51.9181 250.366 51.4095 249.179 51.0433 247.946C50.5475 246.307 50.2923 244.606 50.2855 242.894C50.0681 242.334 49.6864 241.853 49.1905 241.513C48.6947 241.174 48.1079 240.992 47.507 240.992C46.9061 240.992 46.3193 241.174 45.8235 241.513C45.3276 241.853 44.946 242.334 44.7285 242.894C44.7285 248.99 47.1502 254.837 51.4609 259.147C55.7716 263.458 61.6181 265.88 67.7144 265.88C78.4243 266.183 91.7106 266.335 114.292 266.335C136.874 266.335 150.312 266.335 161.022 265.88C167.118 265.88 172.965 263.458 177.275 259.147C181.586 254.837 184.008 248.99 184.008 242.894C183.79 242.334 183.409 241.853 182.913 241.513C182.417 241.174 181.83 240.992 181.229 240.992C180.628 240.992 180.041 241.174 179.546 241.513C179.05 241.853 178.668 242.334 178.451 242.894C178.444 244.606 178.189 246.307 177.693 247.946C177.283 249.163 176.776 250.346 176.177 251.482C175.037 253.423 173.546 255.136 171.782 256.534C170.431 257.587 168.933 258.438 167.337 259.06C151.272 265.324 131.469 264.112 114.292 264.112Z" fill="url(#paint71_radial_176_444)"/>
<path fill-rule="evenodd" clip-rule="evenodd" d="M67.7642 264.871C75.1399 264.871 82.4651 264.871 89.8407 265.224H114.342H138.995C146.32 265.224 153.696 265.224 161.021 264.871C166.97 264.871 172.675 262.508 176.882 258.301C181.088 254.095 183.451 248.389 183.451 242.441C183.451 236.492 181.088 230.786 176.882 226.58C172.675 222.374 166.97 220.01 161.021 220.01V220.01C153.696 220.01 146.32 220.01 138.995 219.707C128.891 219.707 124.648 219.707 114.342 219.707C104.036 219.707 100.146 219.707 89.8407 219.707C82.4651 219.707 75.1399 219.707 67.7642 220.01C61.8154 220.01 56.1101 222.374 51.9037 226.58C47.6972 230.786 45.334 236.492 45.334 242.441C45.334 248.389 47.6972 254.095 51.9037 258.301C56.1101 262.508 61.8154 264.871 67.7642 264.871ZM67.7642 265.426C78.4741 265.426 91.7604 265.881 114.342 265.881C136.924 265.881 150.362 265.881 161.072 265.426C167.168 265.426 173.014 263.005 177.325 258.694C181.636 254.383 184.057 248.537 184.057 242.441C184.057 236.344 181.636 230.498 177.325 226.187C173.014 221.876 167.168 219.455 161.072 219.455C150.362 219.455 136.924 219 114.342 219C91.7604 219 78.4741 219 67.7642 219.455C61.668 219.455 55.8214 221.876 51.5107 226.187C47.2 230.498 44.7783 236.344 44.7783 242.441C44.7783 248.537 47.2 254.383 51.5107 258.694C55.8214 263.005 61.668 265.426 67.7642 265.426V265.426Z" fill="url(#paint72_linear_176_444)"/>
<path d="M114.292 220.919C95.2969 220.919 77.4639 220.919 67.8149 221.323C65.9815 221.49 64.1702 221.846 62.4095 222.384C60.6815 222.817 58.9919 223.392 57.3576 224.101C55.8586 225.192 54.4558 226.409 53.1646 227.739C51.8475 228.991 50.647 230.361 49.5778 231.831C48.8195 233.456 48.2108 235.147 47.7591 236.882C47.2516 238.633 46.8966 240.425 46.6982 242.237C46.8854 244.085 47.2405 245.911 47.7591 247.693C48.183 249.431 48.7752 251.123 49.5273 252.745C50.587 254.268 51.8064 255.674 53.1646 256.938C55.4452 259.877 58.7779 261.815 62.46 262.344C64.211 262.851 66.0027 263.206 67.8149 263.405C77.5145 263.405 95.3474 263.809 114.342 263.809C133.337 263.809 151.17 263.809 160.87 263.405C162.683 263.211 164.475 262.856 166.225 262.344C167.963 261.924 169.656 261.331 171.277 260.576C172.8 259.516 174.205 258.297 175.47 256.938C176.785 255.685 177.986 254.315 179.056 252.846C179.805 251.217 180.413 249.527 180.875 247.794C181.358 246.038 181.713 244.248 181.936 242.439C181.724 240.596 181.369 238.772 180.875 236.984C180.429 235.253 179.837 233.563 179.107 231.932C178.034 230.403 176.816 228.982 175.47 227.688C174.217 226.387 172.847 225.203 171.378 224.152C168.005 222.718 164.453 221.749 160.819 221.272C151.069 221.272 133.287 220.868 114.241 220.868L114.292 220.919Z" fill="url(#paint73_linear_176_444)"/>
<path fill-rule="evenodd" clip-rule="evenodd" d="M67.9156 222.334C66.21 222.552 64.5219 222.89 62.8638 223.345C61.1314 223.763 59.4405 224.338 57.8119 225.062C56.3901 226.077 55.0705 227.227 53.8715 228.497C52.6151 229.71 51.4657 231.028 50.4363 232.438C49.0306 235.648 48.1275 239.056 47.7588 242.542C47.9293 244.25 48.2505 245.941 48.7186 247.593C49.1374 249.326 49.7123 251.017 50.4363 252.645C51.6532 255.002 53.3994 257.045 55.538 258.614C57.6765 260.182 60.1494 261.235 62.7628 261.688C64.409 262.192 66.1013 262.53 67.8146 262.698C77.211 262.698 94.4883 263.103 114.291 263.103C134.095 263.103 151.422 263.103 160.819 262.698C162.532 262.53 164.225 262.192 165.871 261.688C170.876 260.139 175.217 256.955 178.197 252.645C178.9 251.013 179.458 249.323 179.864 247.593C180.368 245.947 180.707 244.255 180.875 242.542C180.7 240.829 180.362 239.138 179.864 237.49C179.453 235.761 178.895 234.071 178.197 232.438C177.205 231.121 176.107 229.888 174.914 228.75C173.715 227.48 172.395 226.329 170.973 225.315C169.345 224.591 167.654 224.016 165.921 223.597C164.263 223.142 162.575 222.805 160.869 222.587V222.587C151.473 222.587 134.145 222.183 114.342 222.183C94.5388 222.183 77.2615 222.183 67.8651 222.587L67.9156 222.334Z" fill="#8E37E2"/>
<path fill-rule="evenodd" clip-rule="evenodd" d="M160.668 257.748V262.8C162.381 262.632 164.074 262.294 165.72 261.79C167.449 261.383 169.14 260.825 170.772 260.123L168.347 255.93C167.107 256.402 165.842 256.807 164.558 257.142C163.223 257.542 161.853 257.813 160.466 257.95L160.668 257.748Z" fill="url(#paint74_radial_176_444)"/>
<path fill-rule="evenodd" clip-rule="evenodd" d="M168.549 255.729L170.974 259.922C173.758 257.811 176.239 255.33 178.349 252.546L174.106 250.121C173.31 251.166 172.431 252.146 171.479 253.051C170.55 253.995 169.572 254.888 168.549 255.729V255.729Z" fill="url(#paint75_radial_176_444)"/>
<path fill-rule="evenodd" clip-rule="evenodd" d="M174.105 250.12L178.349 252.545C179.052 250.913 179.609 249.223 180.016 247.493C180.52 245.847 180.858 244.155 181.026 242.441H175.975C175.772 243.738 175.485 245.021 175.116 246.281C174.812 247.574 174.406 248.841 173.903 250.07L174.105 250.12Z" fill="url(#paint76_radial_176_444)"/>
<path fill-rule="evenodd" clip-rule="evenodd" d="M176.177 242.491H181.229C181.054 240.779 180.715 239.087 180.218 237.44C179.807 235.711 179.249 234.021 178.551 232.388L174.308 234.813C174.803 236.027 175.208 237.277 175.52 238.551C175.884 239.829 176.17 241.128 176.379 242.441L176.177 242.491Z" fill="url(#paint77_radial_176_444)"/>
<path fill-rule="evenodd" clip-rule="evenodd" d="M174.106 234.862L178.349 232.438C177.309 231.115 176.16 229.881 174.914 228.75C173.715 227.48 172.396 226.329 170.974 225.314L168.549 229.507C170.583 231.188 172.444 233.066 174.106 235.115V234.862Z" fill="url(#paint78_radial_176_444)"/>
<path fill-rule="evenodd" clip-rule="evenodd" d="M168.549 229.256L170.974 225.063C169.345 224.339 167.654 223.764 165.922 223.345C164.264 222.89 162.576 222.553 160.87 222.335V227.387C162.254 227.566 163.623 227.853 164.962 228.246C166.253 228.558 167.519 228.963 168.751 229.458L168.549 229.256Z" fill="url(#paint79_radial_176_444)"/>
<path fill-rule="evenodd" clip-rule="evenodd" d="M60.2875 229.254C59.2293 230.053 58.2484 230.95 57.3575 231.932C56.402 232.849 55.5075 233.828 54.68 234.862C54.2415 236.164 53.9037 237.498 53.6696 238.853C53.2938 240.125 53.0235 241.426 52.8613 242.743C53.0235 244.043 53.2938 245.327 53.6696 246.582C53.9736 247.875 54.3789 249.142 54.8821 250.371C56.5791 252.405 58.4558 254.281 60.4896 255.978C61.7271 256.458 62.9923 256.863 64.2785 257.191C65.6134 257.591 66.9837 257.862 68.3705 257.999C74.7358 257.999 81.1011 258.252 87.5169 258.302C96.5597 258.302 105.552 258.302 114.595 258.302C123.638 258.302 132.68 258.302 141.723 258.302C148.088 258.302 154.504 258.302 160.87 257.999C162.256 257.862 163.627 257.591 164.962 257.191C166.246 256.856 167.51 256.451 168.751 255.978C169.774 255.138 170.752 254.244 171.681 253.301C172.633 252.396 173.512 251.416 174.308 250.371C174.811 249.142 175.216 247.875 175.52 246.582C175.889 245.322 176.176 244.04 176.379 242.743C176.176 241.429 175.889 240.13 175.52 238.853C175.208 237.579 174.803 236.329 174.308 235.114C172.646 233.065 170.784 231.187 168.751 229.507C167.519 229.012 166.252 228.606 164.962 228.294C163.622 227.902 162.254 227.615 160.87 227.436C154.504 227.436 148.088 227.436 141.723 227.436C132.68 227.436 123.638 227.436 114.595 227.436C105.552 227.436 96.5597 227.436 87.5169 227.436C81.1011 227.436 74.7358 227.436 68.3705 227.436C66.9862 227.615 65.618 227.902 64.2785 228.294C62.9856 228.598 61.7187 229.004 60.4896 229.507L60.2875 229.254Z" fill="url(#paint80_radial_176_444)"/>
<path fill-rule="evenodd" clip-rule="evenodd" d="M68.1688 227.185L67.9162 222.133C66.2106 222.351 64.5225 222.688 62.8643 223.143C61.132 223.562 59.4411 224.137 57.8125 224.861L60.2374 229.054C61.4665 228.551 62.7334 228.145 64.0263 227.841C65.3658 227.449 66.7339 227.162 68.1183 226.983L68.1688 227.185Z" fill="url(#paint81_radial_176_444)"/>
<path fill-rule="evenodd" clip-rule="evenodd" d="M60.2878 229.256L57.863 225.062C56.4412 226.077 55.1215 227.228 53.9226 228.498C52.6661 229.71 51.5168 231.028 50.4873 232.438L54.6803 234.863C55.5078 233.829 56.4023 232.85 57.3578 231.933C58.2487 230.951 59.2296 230.055 60.2878 229.256V229.256Z" fill="url(#paint82_radial_176_444)"/>
<path fill-rule="evenodd" clip-rule="evenodd" d="M54.6801 234.862L50.4871 232.438C49.0814 235.648 48.1783 239.056 47.8096 242.541H52.8614C53.0342 241.293 53.3045 240.06 53.6697 238.853C53.9819 237.579 54.3871 236.33 54.8822 235.115L54.6801 234.862Z" fill="url(#paint83_radial_176_444)"/>
<path fill-rule="evenodd" clip-rule="evenodd" d="M52.6593 242.49H47.6074C47.7779 244.199 48.0991 245.89 48.5672 247.542C48.986 249.274 49.5609 250.965 50.2849 252.594L54.4779 250.169C53.9748 248.94 53.5694 247.673 53.2655 246.38C52.8897 245.125 52.6193 243.841 52.4572 242.541L52.6593 242.49Z" fill="url(#paint84_radial_176_444)"/>
<path fill-rule="evenodd" clip-rule="evenodd" d="M54.6803 250.121L50.4873 252.546C52.5975 255.33 55.0791 257.811 57.863 259.922L60.2878 255.729C58.2541 254.032 56.3773 252.155 54.6803 250.121V250.121Z" fill="url(#paint85_radial_176_444)"/>
<path fill-rule="evenodd" clip-rule="evenodd" d="M60.2881 255.726L57.8633 259.919C59.4951 260.622 61.1856 261.18 62.9151 261.587C64.5613 262.09 66.2536 262.429 67.967 262.597L68.2195 257.545C66.8328 257.408 65.4625 257.137 64.1275 256.737C62.8414 256.409 61.5761 256.004 60.3387 255.524L60.2881 255.726Z" fill="url(#paint86_radial_176_444)"/>
<path fill-rule="evenodd" clip-rule="evenodd" d="M68.1683 227.185C74.5336 227.185 80.8989 227.185 87.3148 227.185C96.3576 227.185 105.35 227.185 114.393 227.185C123.435 227.185 132.478 227.185 141.521 227.185C147.886 227.185 154.302 227.185 160.667 227.185V222.133C151.271 222.133 133.943 221.729 114.14 221.729C94.3368 221.729 77.0595 221.729 67.6631 222.133L67.9157 227.185H68.1683Z" fill="url(#paint87_radial_176_444)"/>
<path fill-rule="evenodd" clip-rule="evenodd" d="M87.3151 258.049C80.8993 258.049 74.5339 258.049 68.1686 257.746L67.916 262.798C77.3124 262.798 94.5897 263.202 114.393 263.202C134.196 263.202 151.524 263.202 160.92 262.798V257.746C154.555 257.746 148.139 257.999 141.774 258.049C132.731 258.049 123.688 258.049 114.646 258.049C105.603 258.049 96.6104 258.049 87.5677 258.049H87.3151Z" fill="url(#paint88_radial_176_444)"/>
<path style="mix-blend-mode:screen" opacity="0.35" fill-rule="evenodd" clip-rule="evenodd" d="M114.292 261.484C89.0331 261.484 68.068 259.817 68.068 257.746L67.8154 262.798C77.2118 262.798 94.4891 263.202 114.292 263.202C134.096 263.202 151.423 263.202 160.82 262.798V257.746C160.82 259.817 140.107 261.484 114.545 261.484H114.292Z" fill="url(#paint89_radial_176_444)"/>
<path style="mix-blend-mode:screen" fill-rule="evenodd" clip-rule="evenodd" d="M57.863 225.062C58.3105 226.094 58.4374 227.237 58.227 228.342C58.0167 229.447 57.4789 230.463 56.6835 231.259C55.8882 232.054 54.872 232.592 53.767 232.802C52.662 233.013 51.5193 232.886 50.4873 232.438L54.6803 234.863C55.5078 233.829 56.4023 232.85 57.3578 231.933C58.2487 230.951 59.2296 230.055 60.2878 229.256L57.863 225.062Z" fill="url(#paint90_radial_176_444)"/>
<path style="mix-blend-mode:screen" fill-rule="evenodd" clip-rule="evenodd" d="M50.4871 232.438C51.4001 233.103 52.0907 234.029 52.4685 235.094C52.8462 236.159 52.8935 237.313 52.6041 238.405C52.3146 239.497 51.702 240.477 50.8465 241.215C49.991 241.953 48.9324 242.415 47.8096 242.541H52.8614C53.0342 241.293 53.3045 240.06 53.6697 238.853C53.9819 237.579 54.3871 236.33 54.8822 235.115L50.6892 232.69L50.4871 232.438Z" fill="url(#paint91_radial_176_444)"/>
<path style="mix-blend-mode:screen" fill-rule="evenodd" clip-rule="evenodd" d="M47.8096 242.49C52.8614 242.49 55.741 249.512 51.75 251.836L54.6801 250.119C54.1769 248.889 53.7716 247.623 53.4676 246.33C53.0918 245.075 52.8215 243.79 52.6594 242.49H47.8096Z" fill="url(#paint92_radial_176_444)"/>
<path style="mix-blend-mode:screen" fill-rule="evenodd" clip-rule="evenodd" d="M170.974 259.922C170.526 258.89 170.399 257.747 170.61 256.642C170.82 255.537 171.358 254.521 172.153 253.725C172.949 252.93 173.965 252.392 175.07 252.182C176.175 251.972 177.317 252.098 178.349 252.546L174.106 250.121C173.31 251.166 172.431 252.146 171.479 253.051C170.55 253.995 169.572 254.888 168.549 255.729L170.974 259.922Z" fill="url(#paint93_radial_176_444)"/>
<path style="mix-blend-mode:screen" fill-rule="evenodd" clip-rule="evenodd" d="M178.349 252.545C177.436 251.879 176.745 250.954 176.368 249.889C175.99 248.824 175.943 247.67 176.232 246.577C176.521 245.485 177.134 244.506 177.99 243.768C178.845 243.03 179.904 242.568 181.026 242.441H175.975C175.772 243.738 175.485 245.021 175.116 246.281C174.812 247.574 174.406 248.841 173.903 250.07L178.147 252.495L178.349 252.545Z" fill="url(#paint94_radial_176_444)"/>
<path style="mix-blend-mode:screen" fill-rule="evenodd" clip-rule="evenodd" d="M181.027 242.489C175.975 242.489 173.045 235.467 177.086 233.144L174.105 234.861C174.6 236.076 175.006 237.325 175.318 238.6C175.687 239.877 175.974 241.176 176.177 242.489H181.027Z" fill="url(#paint95_radial_176_444)"/>
<g style="mix-blend-mode:screen">
<path fill-rule="evenodd" clip-rule="evenodd" d="M51.1942 232.843L53.8717 234.965V235.369C53.1579 237.519 52.5841 239.712 52.154 241.936H51.8509L49.4766 242.239H51.8004H52.154C52.5077 243.502 53.0129 244.765 53.4675 246.028V245.624C53.0917 244.369 52.8214 243.085 52.6592 241.785C52.9329 240.787 53.2704 239.809 53.6696 238.855C53.9818 237.581 54.387 236.331 54.882 235.116C55.7095 234.082 56.6039 233.103 57.5595 232.186C58.4504 231.204 59.4314 230.308 60.4896 229.509C61.7187 229.006 62.9856 228.6 64.2784 228.296C65.6179 227.904 66.9861 227.617 68.3705 227.438C74.7358 227.438 81.1011 227.438 87.5169 227.438C96.5597 227.438 105.552 227.438 114.595 227.438C123.638 227.438 132.68 227.438 141.723 227.438C148.088 227.438 154.504 227.438 160.87 227.438C162.254 227.617 163.622 227.904 164.962 228.296L166.629 228.751C164.81 228.145 162.991 227.589 161.072 227.134C161.072 226.427 161.072 225.72 161.072 225.013L160.769 227.185C130.154 226.831 99.4898 226.326 69.0272 227.185L68.522 223.699V227.185V227.488C65.9004 227.711 63.2996 228.133 60.7422 228.751H60.338L57.9637 225.417L59.6308 229.206V229.61C57.9637 231.075 56.3976 232.641 54.882 234.207H54.5284L51.2952 232.944L51.1942 232.843Z" fill="#AC73EF"/>
</g>
<g style="mix-blend-mode:screen">
<path fill-rule="evenodd" clip-rule="evenodd" d="M160.163 258.505L160.87 261.536V258.455V258.152C163.181 257.653 165.458 257.012 167.69 256.232H168.044C168.801 257.293 169.559 258.404 170.368 259.465C169.761 258.303 169.206 257.091 168.65 255.929V255.525C170.368 253.959 172.035 252.292 173.702 250.473H174.055L176.531 251.584L174.409 250.119V249.766C174.856 248.103 175.21 246.416 175.47 244.714C175.371 245.245 175.236 245.768 175.066 246.28C174.762 247.573 174.356 248.84 173.853 250.069C173.057 251.114 172.179 252.094 171.226 252.999C170.297 253.942 169.319 254.836 168.296 255.676C167.056 256.149 165.791 256.554 164.507 256.889C163.173 257.289 161.802 257.56 160.415 257.697C154.05 257.697 147.634 257.95 141.269 258H117.323C131.418 258.303 145.765 258 159.658 258L160.163 258.505Z" fill="#AC73EF"/>
</g>
<path style="mix-blend-mode:screen" fill-rule="evenodd" clip-rule="evenodd" d="M160.92 222.335C151.524 222.335 134.196 221.931 114.393 221.931C94.5897 221.931 77.3124 221.931 67.916 222.335C67.916 222.688 88.7296 222.941 114.443 222.941C140.157 222.941 159.91 222.941 160.92 222.385V222.335Z" fill="url(#paint96_radial_176_444)"/>
<g opacity="0.35">
<path style="mix-blend-mode:screen" opacity="0.65" fill-rule="evenodd" clip-rule="evenodd" d="M54.6801 234.863L114.292 242.491L68.0675 227.336C66.6832 227.515 65.315 227.802 63.9755 228.195C62.6827 228.499 61.4158 228.904 60.1866 229.407C59.1284 230.206 58.1475 231.103 57.2566 232.085C56.301 233.002 55.4066 233.981 54.5791 235.015L54.6801 234.863Z" fill="url(#paint97_radial_176_444)"/>
<path style="mix-blend-mode:screen" opacity="0.35" fill-rule="evenodd" clip-rule="evenodd" d="M68.168 227.184L114.392 242.34L87.3144 226.78C80.8986 226.78 74.5333 226.78 68.168 226.78V227.184Z" fill="url(#paint98_radial_176_444)"/>
<path style="mix-blend-mode:screen" opacity="0.35" fill-rule="evenodd" clip-rule="evenodd" d="M87.3151 226.932L114.292 242.491L105.603 232.388L100.551 226.78H87.0625L87.3151 226.932Z" fill="url(#paint99_radial_176_444)"/>
<path style="mix-blend-mode:screen" opacity="0.35" fill-rule="evenodd" clip-rule="evenodd" d="M105.703 232.439L114.392 242.543V226.882H100.803L105.855 232.489L105.703 232.439Z" fill="url(#paint100_radial_176_444)"/>
<path style="mix-blend-mode:screen" opacity="0.65" fill-rule="evenodd" clip-rule="evenodd" d="M114.292 242.493L54.68 234.864C54.2415 236.167 53.9037 237.501 53.6696 238.855C53.2938 240.127 53.0235 241.428 52.8613 242.745L114.292 242.493Z" fill="url(#paint101_radial_176_444)"/>
<path style="mix-blend-mode:screen" opacity="0.35" fill-rule="evenodd" clip-rule="evenodd" d="M54.6801 250.119L114.292 242.49L68.0675 257.646C66.6807 257.508 65.3104 257.237 63.9755 256.837C62.6894 256.51 61.4241 256.105 60.1866 255.625C58.1529 253.928 56.2761 252.051 54.5791 250.017L54.6801 250.119Z" fill="url(#paint102_radial_176_444)"/>
<path style="mix-blend-mode:multiply" opacity="0.5" fill-rule="evenodd" clip-rule="evenodd" d="M68.168 257.747L114.392 242.592L87.3144 258.151C80.8986 258.151 74.5333 258.151 68.168 257.848V257.747Z" fill="url(#paint103_radial_176_444)"/>
<path style="mix-blend-mode:screen" opacity="0.35" fill-rule="evenodd" clip-rule="evenodd" d="M87.3151 258.05L114.292 242.49L105.603 252.594L100.551 258.252H87.0625L87.3151 258.05Z" fill="url(#paint104_radial_176_444)"/>
<path style="mix-blend-mode:screen" opacity="0.65" fill-rule="evenodd" clip-rule="evenodd" d="M105.703 252.494L114.392 242.391V258.051H100.803L105.855 252.393L105.703 252.494Z" fill="url(#paint105_radial_176_444)"/>
<path style="mix-blend-mode:screen" opacity="0.65" fill-rule="evenodd" clip-rule="evenodd" d="M114.292 242.49L54.6799 250.119C54.1768 248.889 53.7714 247.623 53.4675 246.33C53.0917 245.075 52.8213 243.79 52.6592 242.49H114.292Z" fill="url(#paint106_radial_176_444)"/>
<path style="mix-blend-mode:screen" opacity="0.35" fill-rule="evenodd" clip-rule="evenodd" d="M174.106 234.863L114.292 242.491L160.567 227.336C161.951 227.515 163.319 227.802 164.659 228.195C165.949 228.507 167.216 228.912 168.448 229.407C170.481 231.087 172.343 232.966 174.005 235.015L174.106 234.863Z" fill="url(#paint107_radial_176_444)"/>
<path style="mix-blend-mode:screen" opacity="0.65" fill-rule="evenodd" clip-rule="evenodd" d="M160.667 227.184L114.393 242.34L141.521 226.78C147.886 226.78 154.302 226.78 160.667 226.78V227.184Z" fill="url(#paint108_radial_176_444)"/>
<path style="mix-blend-mode:multiply" opacity="0.5" fill-rule="evenodd" clip-rule="evenodd" d="M141.521 226.932L114.292 242.491L123.032 232.388L128.084 226.78H141.572L141.521 226.932Z" fill="url(#paint109_radial_176_444)"/>
<path style="mix-blend-mode:screen" opacity="0.35" fill-rule="evenodd" clip-rule="evenodd" d="M123.132 232.439L114.393 242.543V226.882H128.033L122.981 232.489L123.132 232.439Z" fill="url(#paint110_radial_176_444)"/>
<path style="mix-blend-mode:screen" opacity="0.65" fill-rule="evenodd" clip-rule="evenodd" d="M114.292 242.493L174.005 234.864C174.5 236.079 174.905 237.329 175.217 238.603C175.586 239.88 175.873 241.179 176.076 242.493H114.292Z" fill="url(#paint111_radial_176_444)"/>
<path style="mix-blend-mode:multiply" opacity="0.35" fill-rule="evenodd" clip-rule="evenodd" d="M174.106 250.119L114.292 242.49L160.567 257.646C161.954 257.508 163.324 257.237 164.659 256.837C165.943 256.502 167.208 256.098 168.448 255.625C169.471 254.785 170.449 253.891 171.378 252.948C172.33 252.043 173.209 251.063 174.005 250.017L174.106 250.119Z" fill="url(#paint112_radial_176_444)"/>
<path style="mix-blend-mode:screen" opacity="0.35" fill-rule="evenodd" clip-rule="evenodd" d="M160.667 257.747L114.393 242.592L141.521 258.151C147.886 258.151 154.302 258.151 160.667 257.848V257.747Z" fill="url(#paint113_radial_176_444)"/>
<path style="mix-blend-mode:screen" opacity="0.35" fill-rule="evenodd" clip-rule="evenodd" d="M141.521 258.05L114.292 242.49L123.032 252.594L128.084 258.252H141.572L141.521 258.05Z" fill="url(#paint114_radial_176_444)"/>
<path style="mix-blend-mode:screen" opacity="0.35" fill-rule="evenodd" clip-rule="evenodd" d="M123.132 252.494L114.393 242.391V258.051H128.033L122.981 252.393L123.132 252.494Z" fill="url(#paint115_radial_176_444)"/>
<path style="mix-blend-mode:screen" opacity="0.35" fill-rule="evenodd" clip-rule="evenodd" d="M114.292 242.49L174.005 250.119C174.508 248.889 174.913 247.623 175.217 246.33C175.586 245.07 175.873 243.787 176.076 242.49H114.292Z" fill="url(#paint116_radial_176_444)"/>
</g>
<path style="mix-blend-mode:screen" opacity="0.65" fill-rule="evenodd" clip-rule="evenodd" d="M70.2392 227.133L52.9619 244.36C52.9619 245.067 53.3155 245.775 53.4671 246.33C53.771 247.623 54.1764 248.89 54.6795 250.119C56.3765 252.153 58.2533 254.03 60.2871 255.727H60.7923L89.7898 226.679H87.3144H70.2392V227.133Z" fill="url(#paint117_radial_176_444)"/>
<path style="mix-blend-mode:screen" opacity="0.65" fill-rule="evenodd" clip-rule="evenodd" d="M106.006 226.83L74.9375 257.899H82.9194L114.291 226.83H106.006Z" fill="url(#paint118_radial_176_444)"/>
<path style="mix-blend-mode:screen" opacity="0.65" fill-rule="evenodd" clip-rule="evenodd" d="M160.314 227.185L129.447 258.152H141.572H146.32L171.984 232.54L171.529 232.085C170.626 231.115 169.646 230.219 168.599 229.407C167.367 228.912 166.101 228.507 164.81 228.195C163.471 227.802 162.102 227.515 160.718 227.336L160.314 227.185Z" fill="url(#paint119_radial_176_444)"/>
</g>
<defs>
<linearGradient id="paint0_linear_176_444" x1="3.55121" y1="72.0405" x2="49.1388" y2="59.7981" gradientUnits="userSpaceOnUse">
<stop stop-color="#1A8A81"/>
<stop offset="0.19" stop-color="#19847C"/>
<stop offset="0.45" stop-color="#15736E"/>
<stop offset="0.74" stop-color="#105656"/>
<stop offset="1" stop-color="#0A383D"/>
</linearGradient>
<linearGradient id="paint1_linear_176_444" x1="1.11621" y1="51.4442" x2="44.2689" y2="51.4442" gradientUnits="userSpaceOnUse">
<stop stop-color="#AACCD6"/>
<stop offset="1" stop-color="#54737C"/>
</linearGradient>
<linearGradient id="paint2_linear_176_444" x1="13087.6" y1="2573.59" x2="13568.1" y2="2573.59" gradientUnits="userSpaceOnUse">
<stop stop-color="#AACCD6"/>
<stop offset="1" stop-color="#54737C"/>
</linearGradient>
<linearGradient id="paint3_linear_176_444" x1="26.2095" y1="57.6005" x2="49.8826" y2="57.6005" gradientUnits="userSpaceOnUse">
<stop stop-color="#0A3D48"/>
<stop offset="1" stop-color="#006B6D"/>
</linearGradient>
<linearGradient id="paint4_linear_176_444" x1="179.815" y1="59.7981" x2="225.402" y2="72.0405" gradientUnits="userSpaceOnUse">
<stop stop-color="#0A383D"/>
<stop offset="0.26" stop-color="#105656"/>
<stop offset="0.55" stop-color="#15736E"/>
<stop offset="0.81" stop-color="#19847C"/>
<stop offset="1" stop-color="#1A8A81"/>
</linearGradient>
<linearGradient id="paint5_linear_176_444" x1="184.718" y1="51.4442" x2="227.836" y2="51.4442" gradientUnits="userSpaceOnUse">
<stop stop-color="#54737C"/>
<stop offset="1" stop-color="#AACCD6"/>
</linearGradient>
<linearGradient id="paint6_linear_176_444" x1="15273.4" y1="2573.59" x2="15753.1" y2="2573.59" gradientUnits="userSpaceOnUse">
<stop stop-color="#54737C"/>
<stop offset="1" stop-color="#AACCD6"/>
</linearGradient>
<linearGradient id="paint7_linear_176_444" x1="179.104" y1="57.6005" x2="202.777" y2="57.6005" gradientUnits="userSpaceOnUse">
<stop stop-color="#006B6D"/>
<stop offset="1" stop-color="#0A3D48"/>
</linearGradient>
<radialGradient id="paint8_radial_176_444" cx="0" cy="0" r="1" gradientUnits="userSpaceOnUse" gradientTransform="translate(114.266 127.549) scale(114.403 123.692)">
<stop stop-color="#7A369E"/>
<stop offset="0.16" stop-color="#713496"/>
<stop offset="0.43" stop-color="#572E82"/>
<stop offset="0.76" stop-color="#2F2461"/>
<stop offset="0.8" stop-color="#29235C"/>
<stop offset="1" stop-color="#20283B"/>
</radialGradient>
<radialGradient id="paint9_radial_176_444" cx="0" cy="0" r="1" gradientUnits="userSpaceOnUse" gradientTransform="translate(113.733 125.889) scale(121.745)">
<stop stop-color="#3F576E"/>
<stop offset="0.33" stop-color="#384F65"/>
<stop offset="0.81" stop-color="#293C4F"/>
<stop offset="1" stop-color="#20283B"/>
</radialGradient>
<linearGradient id="paint10_linear_176_444" x1="202.328" y1="235.616" x2="202.328" y2="16.2432" gradientUnits="userSpaceOnUse">
<stop stop-color="#777B9C"/>
<stop offset="1" stop-color="#525673"/>
</linearGradient>
<linearGradient id="paint11_linear_176_444" x1="20" y1="10.1938" x2="113.733" y2="10.1938" gradientUnits="userSpaceOnUse">
<stop stop-color="#788896"/>
<stop offset="1" stop-color="#9FB1C4"/>
</linearGradient>
<linearGradient id="paint12_linear_176_444" x1="27.873" y1="14.9984" x2="113.733" y2="14.9984" gradientUnits="userSpaceOnUse">
<stop stop-color="#676B87"/>
<stop offset="1" stop-color="#5B597D"/>
</linearGradient>
<linearGradient id="paint13_linear_176_444" x1="113.732" y1="10.1937" x2="207.548" y2="10.1937" gradientUnits="userSpaceOnUse">
<stop stop-color="#99AAC9"/>
<stop offset="1" stop-color="#515D7D"/>
</linearGradient>
<linearGradient id="paint14_linear_176_444" x1="113.732" y1="15.0002" x2="199.592" y2="15.0002" gradientUnits="userSpaceOnUse">
<stop stop-color="#46435E"/>
<stop offset="1" stop-color="#4A4D61"/>
</linearGradient>
<linearGradient id="paint15_linear_176_444" x1="195.531" y1="231.888" x2="195.531" y2="19.9741" gradientUnits="userSpaceOnUse">
<stop stop-color="#9FB1C4"/>
<stop offset="1" stop-color="#6C7A87"/>
</linearGradient>
<linearGradient id="paint16_linear_176_444" x1="1330.97" y1="15409.2" x2="1330.97" y2="9990.52" gradientUnits="userSpaceOnUse">
<stop stop-color="#777B9C"/>
<stop offset="1" stop-color="#525673"/>
</linearGradient>
<linearGradient id="paint17_linear_176_444" x1="1887.22" y1="16045.8" x2="1887.22" y2="10239" gradientUnits="userSpaceOnUse">
<stop stop-color="#9FB1C4"/>
<stop offset="1" stop-color="#6C7A87"/>
</linearGradient>
<linearGradient id="paint18_linear_176_444" x1="27.873" y1="236.857" x2="113.733" y2="236.857" gradientUnits="userSpaceOnUse">
<stop stop-color="#788896"/>
<stop offset="1" stop-color="#BCD1E8"/>
</linearGradient>
<linearGradient id="paint19_linear_176_444" x1="20" y1="241.667" x2="113.733" y2="241.667" gradientUnits="userSpaceOnUse">
<stop stop-color="#5A5D75"/>
<stop offset="1" stop-color="#5B597D"/>
</linearGradient>
<linearGradient id="paint20_linear_176_444" x1="14638.6" y1="1562.74" x2="15528.1" y2="1562.74" gradientUnits="userSpaceOnUse">
<stop stop-color="#99AAC9"/>
<stop offset="1" stop-color="#515D7D"/>
</linearGradient>
<linearGradient id="paint21_linear_176_444" x1="15984.5" y1="1681.52" x2="17046.5" y2="1681.52" gradientUnits="userSpaceOnUse">
<stop stop-color="#46435E"/>
<stop offset="1" stop-color="#4A4D61"/>
</linearGradient>
<radialGradient id="paint22_radial_176_444" cx="0" cy="0" r="1" gradientUnits="userSpaceOnUse" gradientTransform="translate(246.712 60.2923) rotate(180) scale(131.82 132.085)">
<stop offset="0.33" stop-color="#00565F"/>
<stop offset="0.37" stop-color="#00B6C6"/>
<stop offset="0.39" stop-color="#009DA9"/>
<stop offset="0.4" stop-color="#008B93"/>
<stop offset="0.42" stop-color="#007D83"/>
<stop offset="0.43" stop-color="#00757A"/>
<stop offset="0.46" stop-color="#007377"/>
<stop offset="0.64" stop-color="#008783"/>
<stop offset="0.84" stop-color="#00968C"/>
<stop offset="1" stop-color="#009B8F"/>
</radialGradient>
<radialGradient id="paint23_radial_176_444" cx="0" cy="0" r="1" gradientUnits="userSpaceOnUse" gradientTransform="translate(207.112 31.219) rotate(180) scale(37.6728 37.7483)">
<stop stop-color="#7DD1BD"/>
<stop offset="1"/>
</radialGradient>
<radialGradient id="paint24_radial_176_444" cx="0" cy="0" r="1" gradientUnits="userSpaceOnUse" gradientTransform="translate(30556.7 7158.83) scale(3673.65 2072.42)">
<stop offset="0.33" stop-color="#00565F"/>
<stop offset="0.37" stop-color="#00B6C6"/>
<stop offset="0.39" stop-color="#009DA9"/>
<stop offset="0.4" stop-color="#008B93"/>
<stop offset="0.42" stop-color="#007D83"/>
<stop offset="0.43" stop-color="#00757A"/>
<stop offset="0.46" stop-color="#007377"/>
<stop offset="0.64" stop-color="#008783"/>
<stop offset="0.84" stop-color="#00968C"/>
<stop offset="1" stop-color="#009B8F"/>
</radialGradient>
<radialGradient id="paint25_radial_176_444" cx="0" cy="0" r="1" gradientUnits="userSpaceOnUse" gradientTransform="translate(3203.06 4732.51) scale(106.301 416.742)">
<stop stop-color="#7DD1BD"/>
<stop offset="1"/>
</radialGradient>
<radialGradient id="paint26_radial_176_444" cx="0" cy="0" r="1" gradientUnits="userSpaceOnUse" gradientTransform="translate(114.588 130.232) scale(130.772 131.035)">
<stop stop-color="#99E4FF"/>
<stop offset="0.25" stop-color="#6597A8"/>
<stop offset="0.47" stop-color="#3A5660"/>
<stop offset="0.66" stop-color="#1B282C"/>
<stop offset="0.8" stop-color="#070B0C"/>
<stop offset="0.87"/>
</radialGradient>
<linearGradient id="paint27_linear_176_444" x1="20.2373" y1="30.4734" x2="114.25" y2="30.4734" gradientUnits="userSpaceOnUse">
<stop stop-color="#54737C"/>
<stop offset="0.07" stop-color="#D7F6FF"/>
<stop offset="0.18" stop-color="#9AB9C2"/>
<stop offset="1" stop-color="#DCF1F7"/>
</linearGradient>
<linearGradient id="paint28_linear_176_444" x1="29215.9" y1="2757.55" x2="31539.1" y2="2757.55" gradientUnits="userSpaceOnUse">
<stop stop-color="#54737C"/>
<stop offset="0.07" stop-color="#D7F6FF"/>
<stop offset="0.18" stop-color="#9AB9C2"/>
<stop offset="1" stop-color="#DCF1F7"/>
</linearGradient>
<linearGradient id="paint29_linear_176_444" x1="114.249" y1="30.4734" x2="208.261" y2="30.4734" gradientUnits="userSpaceOnUse">
<stop stop-color="#DCF1F7"/>
<stop offset="0.82" stop-color="#9AB9C2"/>
<stop offset="0.93" stop-color="#D7F6FF"/>
<stop offset="1" stop-color="#54737C"/>
</linearGradient>
<linearGradient id="paint30_linear_176_444" x1="31627.7" y1="2757.55" x2="33950.8" y2="2757.55" gradientUnits="userSpaceOnUse">
<stop stop-color="#DCF1F7"/>
<stop offset="0.82" stop-color="#9AB9C2"/>
<stop offset="0.93" stop-color="#D7F6FF"/>
<stop offset="1" stop-color="#54737C"/>
</linearGradient>
<linearGradient id="paint31_linear_176_444" x1="74.9881" y1="126.555" x2="94.3574" y2="126.555" gradientUnits="userSpaceOnUse">
<stop offset="0.01" stop-color="#55E7EC"/>
<stop offset="0.29" stop-color="#51E3EB"/>
<stop offset="0.6" stop-color="#47D6E8"/>
<stop offset="0.92" stop-color="#35C1E3"/>
<stop offset="1" stop-color="#2FBAE1"/>
</linearGradient>
<linearGradient id="paint32_linear_176_444" x1="74.9883" y1="135.608" x2="96.6493" y2="135.608" gradientUnits="userSpaceOnUse">
<stop offset="0.01" stop-color="#9FFAF3"/>
<stop offset="0.17" stop-color="#76D8F1"/>
<stop offset="0.34" stop-color="#4FB6EF"/>
<stop offset="0.52" stop-color="#309CEE"/>
<stop offset="0.69" stop-color="#1A89ED"/>
<stop offset="0.85" stop-color="#0D7EEC"/>
<stop offset="1" stop-color="#087AEC"/>
</linearGradient>
<linearGradient id="paint33_linear_176_444" x1="15769.9" y1="-3320.51" x2="15845.1" y2="-4555.34" gradientUnits="userSpaceOnUse">
<stop offset="0.01" stop-color="#55E7EC"/>
<stop offset="0.29" stop-color="#51E3EB"/>
<stop offset="0.6" stop-color="#47D6E8"/>
<stop offset="0.92" stop-color="#35C1E3"/>
<stop offset="1" stop-color="#2FBAE1"/>
</linearGradient>
<linearGradient id="paint34_linear_176_444" x1="85.9765" y1="110.939" x2="93.0589" y2="109.812" gradientUnits="userSpaceOnUse">
<stop offset="0.01" stop-color="#10A3F0"/>
<stop offset="0.2" stop-color="#10AAF1"/>
<stop offset="0.48" stop-color="#12BFF5"/>
<stop offset="0.83" stop-color="#14E0FB"/>
<stop offset="1" stop-color="#15F3FE"/>
</linearGradient>
<linearGradient id="paint35_linear_176_444" x1="85.5626" y1="104.901" x2="102.62" y2="102.185" gradientUnits="userSpaceOnUse">
<stop offset="0.01" stop-color="#00709F"/>
<stop offset="1" stop-color="#206294"/>
</linearGradient>
<linearGradient id="paint36_linear_176_444" x1="85.4194" y1="104.001" x2="100.646" y2="101.577" gradientUnits="userSpaceOnUse">
<stop offset="0.01" stop-color="#DCE7EC"/>
<stop offset="0.17" stop-color="#D8E7EC"/>
<stop offset="0.34" stop-color="#CBE7EC"/>
<stop offset="0.51" stop-color="#B6E6EC"/>
<stop offset="0.69" stop-color="#98E6EC"/>
<stop offset="0.87" stop-color="#72E5EB"/>
<stop offset="1" stop-color="#53E5EB"/>
</linearGradient>
<linearGradient id="paint37_linear_176_444" x1="630.233" y1="1093.64" x2="631.928" y2="1093.37" gradientUnits="userSpaceOnUse">
<stop offset="0.01" stop-color="#DCE7EC"/>
<stop offset="0.17" stop-color="#D8E7EC"/>
<stop offset="0.34" stop-color="#CBE7EC"/>
<stop offset="0.51" stop-color="#B6E6EC"/>
<stop offset="0.69" stop-color="#98E6EC"/>
<stop offset="0.87" stop-color="#72E5EB"/>
<stop offset="1" stop-color="#53E5EB"/>
</linearGradient>
<linearGradient id="paint38_linear_176_444" x1="122.281" y1="83.48" x2="120.077" y2="152.019" gradientUnits="userSpaceOnUse">
<stop offset="0.01" stop-color="#0A98EA"/>
<stop offset="1" stop-color="#09EAF0"/>
</linearGradient>
<linearGradient id="paint39_linear_176_444" x1="7520.13" y1="9680.78" x2="9413.34" y2="6414.98" gradientUnits="userSpaceOnUse">
<stop offset="0.01" stop-color="#10A3F0"/>
<stop offset="0.2" stop-color="#10AAF1"/>
<stop offset="0.48" stop-color="#12BFF5"/>
<stop offset="0.83" stop-color="#14E0FB"/>
<stop offset="1" stop-color="#15F3FE"/>
</linearGradient>
<linearGradient id="paint40_linear_176_444" x1="102.983" y1="85.5345" x2="125.641" y2="85.5345" gradientUnits="userSpaceOnUse">
<stop stop-color="#0CBCED"/>
<stop offset="1" stop-color="#24EBFF"/>
</linearGradient>
<linearGradient id="paint41_linear_176_444" x1="10159.7" y1="1302.45" x2="9185.69" y2="964.971" gradientUnits="userSpaceOnUse">
<stop offset="0.01" stop-color="#00709F"/>
<stop offset="1" stop-color="#206294"/>
</linearGradient>
<linearGradient id="paint42_linear_176_444" x1="118.806" y1="76.2689" x2="101.696" y2="112.15" gradientUnits="userSpaceOnUse">
<stop offset="0.01" stop-color="#6AFFF2"/>
<stop offset="0.24" stop-color="#66FBF1"/>
<stop offset="0.49" stop-color="#5BEEEE"/>
<stop offset="0.74" stop-color="#49D9E9"/>
<stop offset="0.99" stop-color="#30BBE1"/>
<stop offset="1" stop-color="#2FBAE1"/>
</linearGradient>
<linearGradient id="paint43_linear_176_444" x1="2802.49" y1="6970.89" x2="1194.46" y2="5663.99" gradientUnits="userSpaceOnUse">
<stop offset="0.01" stop-color="#DCE7EC"/>
<stop offset="0.17" stop-color="#D8E7EC"/>
<stop offset="0.34" stop-color="#CBE7EC"/>
<stop offset="0.51" stop-color="#B6E6EC"/>
<stop offset="0.69" stop-color="#98E6EC"/>
<stop offset="0.87" stop-color="#72E5EB"/>
<stop offset="1" stop-color="#53E5EB"/>
</linearGradient>
<linearGradient id="paint44_linear_176_444" x1="4409.66" y1="4914.75" x2="2872.56" y2="5548.02" gradientUnits="userSpaceOnUse">
<stop offset="0.01" stop-color="#55E7EC"/>
<stop offset="0.29" stop-color="#51E3EB"/>
<stop offset="0.6" stop-color="#47D6E8"/>
<stop offset="0.92" stop-color="#35C1E3"/>
<stop offset="1" stop-color="#2FBAE1"/>
</linearGradient>
<linearGradient id="paint45_linear_176_444" x1="6608.83" y1="2996.02" x2="6895.42" y2="2996.02" gradientUnits="userSpaceOnUse">
<stop offset="0.01" stop-color="#6AFFF2"/>
<stop offset="0.24" stop-color="#66FBF1"/>
<stop offset="0.49" stop-color="#5BEEEE"/>
<stop offset="0.74" stop-color="#49D9E9"/>
<stop offset="0.99" stop-color="#30BBE1"/>
<stop offset="1" stop-color="#2FBAE1"/>
</linearGradient>
<radialGradient id="paint46_radial_176_444" cx="0" cy="0" r="1" gradientUnits="userSpaceOnUse" gradientTransform="translate(119.005 89.9943) scale(9.88746 9.92423)">
<stop offset="0.01" stop-color="#6AFFF2"/>
<stop offset="0.13" stop-color="#53C6BC"/>
<stop offset="0.25" stop-color="#3D928B"/>
<stop offset="0.38" stop-color="#2A6660"/>
<stop offset="0.5" stop-color="#1B413E"/>
<stop offset="0.63" stop-color="#0F2423"/>
<stop offset="0.75" stop-color="#07100F"/>
<stop offset="0.88" stop-color="#020404"/>
<stop offset="1"/>
</radialGradient>
<radialGradient id="paint47_radial_176_444" cx="0" cy="0" r="1" gradientUnits="userSpaceOnUse" gradientTransform="translate(116.854 112.457) scale(9.88746 9.92424)">
<stop stop-color="#1D4643"/>
<stop offset="0.03" stop-color="#1A3E3B"/>
<stop offset="0.13" stop-color="#102725"/>
<stop offset="0.24" stop-color="#091515"/>
<stop offset="0.37" stop-color="#040909"/>
<stop offset="0.56" stop-color="#010202"/>
<stop offset="1"/>
</radialGradient>
<linearGradient id="paint48_linear_176_444" x1="6741.99" y1="2541.97" x2="7018.35" y2="2541.97" gradientUnits="userSpaceOnUse">
<stop offset="0.01" stop-color="#0A98EA"/>
<stop offset="1" stop-color="#09EAF0"/>
</linearGradient>
<linearGradient id="paint49_linear_176_444" x1="11385.5" y1="4343.76" x2="12466.1" y2="4343.76" gradientUnits="userSpaceOnUse">
<stop offset="0.01" stop-color="#00709F"/>
<stop offset="1" stop-color="#206294"/>
</linearGradient>
<linearGradient id="paint50_linear_176_444" x1="1549.86" y1="2876.14" x2="831.758" y2="2157.5" gradientUnits="userSpaceOnUse">
<stop offset="0.01" stop-color="#9FFAF3"/>
<stop offset="0.17" stop-color="#76D8F1"/>
<stop offset="0.34" stop-color="#4FB6EF"/>
<stop offset="0.52" stop-color="#309CEE"/>
<stop offset="0.69" stop-color="#1A89ED"/>
<stop offset="0.85" stop-color="#0D7EEC"/>
<stop offset="1" stop-color="#087AEC"/>
</linearGradient>
<linearGradient id="paint51_linear_176_444" x1="3640.79" y1="3280.91" x2="3747.56" y2="3280.91" gradientUnits="userSpaceOnUse">
<stop offset="0.01" stop-color="#0A98EA"/>
<stop offset="1" stop-color="#09EAF0"/>
</linearGradient>
<linearGradient id="paint52_linear_176_444" x1="99.2458" y1="290.97" x2="99.2928" y2="290.97" gradientUnits="userSpaceOnUse">
<stop offset="0.01" stop-color="#0A98EA"/>
<stop offset="1" stop-color="#09EAF0"/>
</linearGradient>
<linearGradient id="paint53_linear_176_444" x1="93.3662" y1="122.479" x2="109.916" y2="122.479" gradientUnits="userSpaceOnUse">
<stop offset="0.01" stop-color="#00709F"/>
<stop offset="1" stop-color="#087EE8"/>
</linearGradient>
<linearGradient id="paint54_linear_176_444" x1="97.4016" y1="131.886" x2="79.9351" y2="127.151" gradientUnits="userSpaceOnUse">
<stop offset="0.01" stop-color="#6DDCF7"/>
<stop offset="1" stop-color="#DBFBF6"/>
</linearGradient>
<linearGradient id="paint55_linear_176_444" x1="3158.03" y1="2848.01" x2="3440.82" y2="3021.3" gradientUnits="userSpaceOnUse">
<stop offset="0.01" stop-color="#6AFFF2"/>
<stop offset="0.24" stop-color="#66FBF1"/>
<stop offset="0.49" stop-color="#5BEEEE"/>
<stop offset="0.74" stop-color="#49D9E9"/>
<stop offset="0.99" stop-color="#30BBE1"/>
<stop offset="1" stop-color="#2FBAE1"/>
</linearGradient>
<linearGradient id="paint56_linear_176_444" x1="103.466" y1="126.672" x2="102.383" y2="123.308" gradientUnits="userSpaceOnUse">
<stop offset="0.01" stop-color="#6AFFF2"/>
<stop offset="1" stop-color="#45D4E7"/>
</linearGradient>
<linearGradient id="paint57_linear_176_444" x1="3060.79" y1="3561.79" x2="2800.63" y2="3481.96" gradientUnits="userSpaceOnUse">
<stop offset="0.01" stop-color="#6AFFF2"/>
<stop offset="0.24" stop-color="#66FBF1"/>
<stop offset="0.49" stop-color="#5BEEEE"/>
<stop offset="0.74" stop-color="#49D9E9"/>
<stop offset="0.99" stop-color="#30BBE1"/>
<stop offset="1" stop-color="#2FBAE1"/>
</linearGradient>
<linearGradient id="paint58_linear_176_444" x1="1668.51" y1="1559.6" x2="1682.33" y2="1559.6" gradientUnits="userSpaceOnUse">
<stop offset="0.01" stop-color="#0A98EA"/>
<stop offset="1" stop-color="#09EAF0"/>
</linearGradient>
<linearGradient id="paint59_linear_176_444" x1="2978.7" y1="1007.28" x2="3027.65" y2="1007.28" gradientUnits="userSpaceOnUse">
<stop offset="0.01" stop-color="#0A98EA"/>
<stop offset="1" stop-color="#09EAF0"/>
</linearGradient>
<linearGradient id="paint60_linear_176_444" x1="8775.35" y1="4626.08" x2="9266.48" y2="4626.08" gradientUnits="userSpaceOnUse">
<stop offset="0.01" stop-color="#0A98EA"/>
<stop offset="1" stop-color="#09EAF0"/>
</linearGradient>
<linearGradient id="paint61_linear_176_444" x1="127.894" y1="121.878" x2="135.095" y2="135.987" gradientUnits="userSpaceOnUse">
<stop offset="0.01" stop-color="#0076C4"/>
<stop offset="0.15" stop-color="#017DC7"/>
<stop offset="0.36" stop-color="#0592D1"/>
<stop offset="0.61" stop-color="#0AB3E0"/>
<stop offset="0.9" stop-color="#12E1F6"/>
<stop offset="1" stop-color="#15F3FE"/>
</linearGradient>
<linearGradient id="paint62_linear_176_444" x1="2521.62" y1="1975.8" x2="2555.94" y2="1975.8" gradientUnits="userSpaceOnUse">
<stop offset="0.01" stop-color="#0A98EA"/>
<stop offset="1" stop-color="#09EAF0"/>
</linearGradient>
<linearGradient id="paint63_linear_176_444" x1="6893.86" y1="1524.39" x2="6943.69" y2="1632.05" gradientUnits="userSpaceOnUse">
<stop offset="0.01" stop-color="#0076C4"/>
<stop offset="0.15" stop-color="#017DC7"/>
<stop offset="0.36" stop-color="#0592D1"/>
<stop offset="0.61" stop-color="#0AB3E0"/>
<stop offset="0.9" stop-color="#12E1F6"/>
<stop offset="1" stop-color="#15F3FE"/>
</linearGradient>
<linearGradient id="paint64_linear_176_444" x1="8608.94" y1="4029.29" x2="9081.34" y2="4029.29" gradientUnits="userSpaceOnUse">
<stop offset="0.01" stop-color="#55E7EC"/>
<stop offset="0.29" stop-color="#51E3EB"/>
<stop offset="0.6" stop-color="#47D6E8"/>
<stop offset="0.92" stop-color="#35C1E3"/>
<stop offset="1" stop-color="#2FBAE1"/>
</linearGradient>
<linearGradient id="paint65_linear_176_444" x1="3538.65" y1="426.258" x2="3608.53" y2="426.258" gradientUnits="userSpaceOnUse">
<stop offset="0.01" stop-color="#55E7EC"/>
<stop offset="0.29" stop-color="#51E3EB"/>
<stop offset="0.6" stop-color="#47D6E8"/>
<stop offset="0.92" stop-color="#35C1E3"/>
<stop offset="1" stop-color="#2FBAE1"/>
</linearGradient>
<radialGradient id="paint66_radial_176_444" cx="0" cy="0" r="1" gradientUnits="userSpaceOnUse" gradientTransform="translate(100.247 129.437) scale(10.8595 10.8999)">
<stop stop-color="#22504D"/>
<stop offset="1"/>
</radialGradient>
<radialGradient id="paint67_radial_176_444" cx="0" cy="0" r="1" gradientUnits="userSpaceOnUse" gradientTransform="translate(132.253 131.382) scale(10.8595 10.8999)">
<stop stop-color="#22504D"/>
<stop offset="0.11" stop-color="#1B403D"/>
<stop offset="0.33" stop-color="#0F2423"/>
<stop offset="0.55" stop-color="#07100F"/>
<stop offset="0.78" stop-color="#020404"/>
<stop offset="1"/>
</radialGradient>
<radialGradient id="paint68_radial_176_444" cx="0" cy="0" r="1" gradientUnits="userSpaceOnUse" gradientTransform="translate(117.08 -3.30958) scale(43.7984 5.27535)">
<stop stop-color="#0C9FF9"/>
<stop offset="0.09" stop-color="#0C99F0"/>
<stop offset="0.23" stop-color="#0A8AD9"/>
<stop offset="0.4" stop-color="#0972B2"/>
<stop offset="0.6" stop-color="#06507D"/>
<stop offset="0.83" stop-color="#032439"/>
<stop offset="1"/>
</radialGradient>
<radialGradient id="paint69_radial_176_444" cx="0" cy="0" r="1" gradientUnits="userSpaceOnUse" gradientTransform="translate(34668.7 11204.9) scale(4525.07 4541.9)">
<stop offset="0.01" stop-color="#6AFFF2"/>
<stop offset="0.13" stop-color="#53C6BC"/>
<stop offset="0.25" stop-color="#3D928B"/>
<stop offset="0.38" stop-color="#2A6660"/>
<stop offset="0.5" stop-color="#1B413E"/>
<stop offset="0.63" stop-color="#0F2423"/>
<stop offset="0.75" stop-color="#07100F"/>
<stop offset="0.88" stop-color="#020404"/>
<stop offset="1"/>
</radialGradient>
<linearGradient id="paint70_linear_176_444" x1="114.393" y1="265.881" x2="114.393" y2="219" gradientUnits="userSpaceOnUse">
<stop stop-color="#3B3A52"/>
<stop offset="1" stop-color="#8292AB"/>
</linearGradient>
<radialGradient id="paint71_radial_176_444" cx="0" cy="0" r="1" gradientUnits="userSpaceOnUse" gradientTransform="translate(114.393 253.503) scale(75.1714)">
<stop stop-color="#4D5E6E"/>
<stop offset="0.14" stop-color="#4A5A6A"/>
<stop offset="0.3" stop-color="#414F5D"/>
<stop offset="0.46" stop-color="#323D47"/>
<stop offset="0.62" stop-color="#1D2329"/>
<stop offset="0.79" stop-color="#020303"/>
<stop offset="0.8"/>
</radialGradient>
<linearGradient id="paint72_linear_176_444" x1="114.393" y1="265.881" x2="114.393" y2="219" gradientUnits="userSpaceOnUse">
<stop stop-color="#4A4D61"/>
<stop offset="1" stop-color="#46435E"/>
</linearGradient>
<linearGradient id="paint73_linear_176_444" x1="114.393" y1="264.061" x2="114.393" y2="220.919" gradientUnits="userSpaceOnUse">
<stop stop-color="#707E94"/>
<stop offset="1" stop-color="#3E3C54"/>
</linearGradient>
<radialGradient id="paint74_radial_176_444" cx="0" cy="0" r="1" gradientUnits="userSpaceOnUse" gradientTransform="translate(172.287 270.58) rotate(180) scale(22.5312)">
<stop stop-color="#7C83D6"/>
<stop offset="1" stop-color="#7B24D6"/>
</radialGradient>
<radialGradient id="paint75_radial_176_444" cx="0" cy="0" r="1" gradientUnits="userSpaceOnUse" gradientTransform="translate(173.853 259.113) rotate(180) scale(22.3797)">
<stop stop-color="#BF91FF"/>
<stop offset="1" stop-color="#7C56D6"/>
</radialGradient>
<radialGradient id="paint76_radial_176_444" cx="0" cy="0" r="1" gradientUnits="userSpaceOnUse" gradientTransform="translate(199.466 254.414) rotate(180) scale(25.9664)">
<stop stop-color="#A38FD6"/>
<stop offset="1" stop-color="#7C56D6"/>
</radialGradient>
<radialGradient id="paint77_radial_176_444" cx="0" cy="0" r="1" gradientUnits="userSpaceOnUse" gradientTransform="translate(1243.05 993.498) scale(65.473 95.5808)">
<stop stop-color="#7C83D6"/>
<stop offset="1" stop-color="#7B24D6"/>
</radialGradient>
<radialGradient id="paint78_radial_176_444" cx="0" cy="0" r="1" gradientUnits="userSpaceOnUse" gradientTransform="translate(166.932 215.564) rotate(180) scale(22.4807)">
<stop stop-color="#907CD6"/>
<stop offset="1" stop-color="#7230E3"/>
</radialGradient>
<radialGradient id="paint79_radial_176_444" cx="0" cy="0" r="1" gradientUnits="userSpaceOnUse" gradientTransform="translate(151.019 218.243) rotate(180) scale(35.6155)">
<stop stop-color="#896BD6"/>
<stop offset="1" stop-color="#5F00D6"/>
</radialGradient>
<radialGradient id="paint80_radial_176_444" cx="0" cy="0" r="1" gradientUnits="userSpaceOnUse" gradientTransform="translate(72.4625 214.755) scale(140.087)">
<stop stop-color="#9F73FF"/>
<stop offset="1" stop-color="#4F1DA3"/>
</radialGradient>
<radialGradient id="paint81_radial_176_444" cx="0" cy="0" r="1" gradientUnits="userSpaceOnUse" gradientTransform="translate(1068.28 735.324) scale(46.189 30.8676)">
<stop stop-color="#907CD6"/>
<stop offset="1" stop-color="#7230E3"/>
</radialGradient>
<radialGradient id="paint82_radial_176_444" cx="0" cy="0" r="1" gradientUnits="userSpaceOnUse" gradientTransform="translate(1003.59 974.121) scale(43.4164 43.4166)">
<stop stop-color="#BF91FF"/>
<stop offset="1" stop-color="#7C56D6"/>
</radialGradient>
<radialGradient id="paint83_radial_176_444" cx="0" cy="0" r="1" gradientUnits="userSpaceOnUse" gradientTransform="translate(699.831 1014.06) scale(36.3531 51.9329)">
<stop stop-color="#A38FD6"/>
<stop offset="1" stop-color="#7C56D6"/>
</radialGradient>
<radialGradient id="paint84_radial_176_444" cx="0" cy="0" r="1" gradientUnits="userSpaceOnUse" gradientTransform="translate(669.388 1072.51) scale(64.995 95.5808)">
<stop stop-color="#7C83D6"/>
<stop offset="1" stop-color="#7B24D6"/>
</radialGradient>
<radialGradient id="paint85_radial_176_444" cx="0" cy="0" r="1" gradientUnits="userSpaceOnUse" gradientTransform="translate(38.464 263.407) scale(22.4806)">
<stop stop-color="#A57CD6"/>
<stop offset="1" stop-color="#6F36BA"/>
</radialGradient>
<radialGradient id="paint86_radial_176_444" cx="0" cy="0" r="1" gradientUnits="userSpaceOnUse" gradientTransform="translate(52.2558 283.461) scale(35.6154)">
<stop stop-color="#896BD6"/>
<stop offset="1" stop-color="#511F82"/>
</radialGradient>
<radialGradient id="paint87_radial_176_444" cx="0" cy="0" r="1" gradientUnits="userSpaceOnUse" gradientTransform="translate(95.1956 156.408) scale(81.9408 81.941)">
<stop stop-color="#D9B8FF"/>
<stop offset="1" stop-color="#C194FF"/>
</radialGradient>
<radialGradient id="paint88_radial_176_444" cx="0" cy="0" r="1" gradientUnits="userSpaceOnUse" gradientTransform="translate(99.0859 203.035) scale(84.1131 84.1132)">
<stop stop-color="#8259B5"/>
<stop offset="1" stop-color="#5522A3"/>
</radialGradient>
<radialGradient id="paint89_radial_176_444" cx="0" cy="0" r="1" gradientUnits="userSpaceOnUse" gradientTransform="translate(114.393 260.373) scale(71.2309 71.231)">
<stop stop-color="#986FBF"/>
<stop offset="1"/>
</radialGradient>
<radialGradient id="paint90_radial_176_444" cx="0" cy="0" r="1" gradientUnits="userSpaceOnUse" gradientTransform="translate(55.5391 224.103) scale(14.4987)">
<stop stop-color="#723AFF"/>
<stop offset="1"/>
</radialGradient>
<radialGradient id="paint91_radial_176_444" cx="0" cy="0" r="1" gradientUnits="userSpaceOnUse" gradientTransform="translate(729.111 1017.9) scale(13.8623 19.8032)">
<stop stop-color="#723AFF"/>
<stop offset="1"/>
</radialGradient>
<radialGradient id="paint92_radial_176_444" cx="0" cy="0" r="1" gradientUnits="userSpaceOnUse" gradientTransform="translate(708.202 985.489) scale(14.3594 19.5329)">
<stop stop-color="#723AFF"/>
<stop offset="1"/>
</radialGradient>
<radialGradient id="paint93_radial_176_444" cx="0" cy="0" r="1" gradientUnits="userSpaceOnUse" gradientTransform="translate(1356.48 1053.47) scale(25.2855)">
<stop stop-color="#723AFF"/>
<stop offset="1"/>
</radialGradient>
<radialGradient id="paint94_radial_176_444" cx="0" cy="0" r="1" gradientUnits="userSpaceOnUse" gradientTransform="translate(1042.06 1045.48) scale(16.9529 24.0467)">
<stop stop-color="#723AFF"/>
<stop offset="1"/>
</radialGradient>
<radialGradient id="paint95_radial_176_444" cx="0" cy="0" r="1" gradientUnits="userSpaceOnUse" gradientTransform="translate(1017.16 955.861) scale(16.8873 22.804)">
<stop stop-color="#723AFF"/>
<stop offset="1"/>
</radialGradient>
<radialGradient id="paint96_radial_176_444" cx="0" cy="0" r="1" gradientUnits="userSpaceOnUse" gradientTransform="translate(114.393 222.436) scale(91.5898 91.5884)">
<stop stop-color="#9C3AFF"/>
<stop offset="1"/>
</radialGradient>
<radialGradient id="paint97_radial_176_444" cx="0" cy="0" r="1" gradientUnits="userSpaceOnUse" gradientTransform="translate(5935.69 1362.48) scale(644.897 163.68)">
<stop stop-color="#723AFF"/>
<stop offset="1"/>
</radialGradient>
<radialGradient id="paint98_radial_176_444" cx="0" cy="0" r="1" gradientUnits="userSpaceOnUse" gradientTransform="translate(4772.41 1395.31) scale(398.916 134.28)">
<stop stop-color="#723AFF"/>
<stop offset="1"/>
</radialGradient>
<radialGradient id="paint99_radial_176_444" cx="0" cy="0" r="1" gradientUnits="userSpaceOnUse" gradientTransform="translate(2965.48 1386.9) scale(166.916 96.3098)">
<stop stop-color="#723AFF"/>
<stop offset="1"/>
</radialGradient>
<radialGradient id="paint100_radial_176_444" cx="0" cy="0" r="1" gradientUnits="userSpaceOnUse" gradientTransform="translate(1561.39 1414.9) scale(67.1317 77.364)">
<stop stop-color="#723AFF"/>
<stop offset="1"/>
</radialGradient>
<radialGradient id="paint101_radial_176_444" cx="0" cy="0" r="1" gradientUnits="userSpaceOnUse" gradientTransform="translate(100.45 217.082) scale(70.069 70.0689)">
<stop stop-color="#AC59FF"/>
<stop offset="1" stop-color="#001938"/>
</radialGradient>
<radialGradient id="paint102_radial_176_444" cx="0" cy="0" r="1" gradientUnits="userSpaceOnUse" gradientTransform="translate(5977.48 1492.37) scale(628.775 159.588)">
<stop stop-color="#723AFF"/>
<stop offset="1"/>
</radialGradient>
<radialGradient id="paint103_radial_176_444" cx="0" cy="0" r="1" gradientUnits="userSpaceOnUse" gradientTransform="translate(108.987 247.694) scale(47.2347)">
<stop stop-color="#9C71E3"/>
<stop offset="1" stop-color="white"/>
</radialGradient>
<radialGradient id="paint104_radial_176_444" cx="0" cy="0" r="1" gradientUnits="userSpaceOnUse" gradientTransform="translate(2904.76 1559.07) scale(374.404 216.724)">
<stop stop-color="#723AFF"/>
<stop offset="1"/>
</radialGradient>
<radialGradient id="paint105_radial_176_444" cx="0" cy="0" r="1" gradientUnits="userSpaceOnUse" gradientTransform="translate(1543.18 1568.7) scale(73.5188 84.7245)">
<stop stop-color="#723AFF"/>
<stop offset="1"/>
</radialGradient>
<radialGradient id="paint106_radial_176_444" cx="0" cy="0" r="1" gradientUnits="userSpaceOnUse" gradientTransform="translate(5972.45 800.804) scale(753.764 93.2939)">
<stop stop-color="#723AFF"/>
<stop offset="1"/>
</radialGradient>
<radialGradient id="paint107_radial_176_444" cx="0" cy="0" r="1" gradientUnits="userSpaceOnUse" gradientTransform="translate(7159.15 1418.26) scale(764.42 193.687)">
<stop stop-color="#723AFF"/>
<stop offset="1"/>
</radialGradient>
<radialGradient id="paint108_radial_176_444" cx="0" cy="0" r="1" gradientUnits="userSpaceOnUse" gradientTransform="translate(5575.29 1441.83) scale(477.094 160.42)">
<stop stop-color="#723AFF"/>
<stop offset="1"/>
</radialGradient>
<radialGradient id="paint109_radial_176_444" cx="0" cy="0" r="1" gradientUnits="userSpaceOnUse" gradientTransform="translate(3055.61 1547.47) scale(259.705 149.571)">
<stop stop-color="#9C71E3"/>
<stop offset="1" stop-color="white"/>
</radialGradient>
<radialGradient id="paint110_radial_176_444" cx="0" cy="0" r="1" gradientUnits="userSpaceOnUse" gradientTransform="translate(1631.16 1416.31) scale(96.4347 110.721)">
<stop stop-color="#723AFF"/>
<stop offset="1"/>
</radialGradient>
<radialGradient id="paint111_radial_176_444" cx="0" cy="0" r="1" gradientUnits="userSpaceOnUse" gradientTransform="translate(7588.92 843.754) scale(835.32 103.134)">
<stop stop-color="#723AFF"/>
<stop offset="1"/>
</radialGradient>
<radialGradient id="paint112_radial_176_444" cx="0" cy="0" r="1" gradientUnits="userSpaceOnUse" gradientTransform="translate(6628.61 1439.32) scale(659.746 167.165)">
<stop stop-color="#9C71E3"/>
<stop offset="1" stop-color="white"/>
</radialGradient>
<radialGradient id="paint113_radial_176_444" cx="0" cy="0" r="1" gradientUnits="userSpaceOnUse" gradientTransform="translate(5462.38 1567.34) scale(495.141 166.488)">
<stop stop-color="#723AFF"/>
<stop offset="1"/>
</radialGradient>
<radialGradient id="paint114_radial_176_444" cx="0" cy="0" r="1" gradientUnits="userSpaceOnUse" gradientTransform="translate(3192.01 1583.97) scale(243.883 140.91)">
<stop stop-color="#723AFF"/>
<stop offset="1"/>
</radialGradient>
<radialGradient id="paint115_radial_176_444" cx="0" cy="0" r="1" gradientUnits="userSpaceOnUse" gradientTransform="translate(1625.16 1556.64) scale(96.9803 111.348)">
<stop stop-color="#723AFF"/>
<stop offset="1"/>
</radialGradient>
<radialGradient id="paint116_radial_176_444" cx="0" cy="0" r="1" gradientUnits="userSpaceOnUse" gradientTransform="translate(7586.45 909.126) scale(960.741 118.62)">
<stop stop-color="#723AFF"/>
<stop offset="1"/>
</radialGradient>
<radialGradient id="paint117_radial_176_444" cx="0" cy="0" r="1" gradientUnits="userSpaceOnUse" gradientTransform="translate(65.1368 215.11) scale(51.2762)">
<stop stop-color="#8264C7"/>
<stop offset="1"/>
</radialGradient>
<radialGradient id="paint118_radial_176_444" cx="0" cy="0" r="1" gradientUnits="userSpaceOnUse" gradientTransform="translate(4210.63 2543.94) scale(354.578 279.93)">
<stop stop-color="#8264C7"/>
<stop offset="1"/>
</radialGradient>
<radialGradient id="paint119_radial_176_444" cx="0" cy="0" r="1" gradientUnits="userSpaceOnUse" gradientTransform="translate(5108.34 2546.36) scale(405.372 295.123)">
<stop stop-color="#8264C7"/>
<stop offset="1"/>
</radialGradient>
<clipPath id="clip0_176_444">
<rect width="228.953" height="49.8488" fill="white" transform="translate(0 40.1494)"/>
</clipPath>
<clipPath id="clip1_176_444">
<rect width="188.498" height="53.1662" fill="white" transform="translate(20 18.4443)"/>
</clipPath>
<clipPath id="clip2_176_444">
<rect width="91.3882" height="101.542" fill="white" transform="translate(70.7715 70.396)"/>
</clipPath>
<clipPath id="clip3_176_444">
<rect width="139.279" height="49.2049" fill="white" transform="translate(45 219)"/>
</clipPath>
</defs>
</svg>
